<?xml version="1.0" standalone="no"?>
<!DOCTYPE svg PUBLIC "-//W3C//DTD SVG 1.1//EN" "http://www.w3.org/Graphics/SVG/1.1/DTD/svg11.dtd" >
<svg xmlns="http://www.w3.org/2000/svg">
<metadata></metadata>
<defs>
<font id="webfontregular" horiz-adv-x="1052" >
<font-face units-per-em="2048" ascent="1565" descent="-483" />
<missing-glyph horiz-adv-x="522" />
<glyph horiz-adv-x="0" />
<glyph unicode="&#xd;" horiz-adv-x="522" />
<glyph unicode=" "  horiz-adv-x="522" />
<glyph unicode="&#x09;" horiz-adv-x="522" />
<glyph unicode="&#xa0;" horiz-adv-x="522" />
<glyph unicode="!" horiz-adv-x="622" d="M260 76q0 34 24 58t58 24t58 -24t24 -58t-24 -58t-58 -24t-58 24t-24 58zM287 462v928q0 24 2.5 34.5t9.5 21.5q14 20 43 20t43 -20q7 -11 9.5 -22t2.5 -34v-928q0 -24 -2.5 -34.5t-9.5 -21.5q-14 -20 -43 -21q-29 0 -43 21q-7 11 -9.5 21.5t-2.5 34.5z" />
<glyph unicode="&#x22;" horiz-adv-x="760" d="M168 1176v223q0 20 2.5 31t8.5 20q13 20 42 20t42 -20q6 -9 8.5 -20t2.5 -31v-223q0 -20 -2.5 -31t-8.5 -21q-13 -20 -42 -20t-42 20q-6 9 -8.5 20t-2.5 32zM486 1176v223q0 20 3 31t9 20q13 20 42 20t42 -20q6 -9 8.5 -20t2.5 -31v-223q0 -20 -2.5 -31t-8.5 -21 q-13 -20 -42 -20t-42 20q-6 9 -9 20t-3 32z" />
<glyph unicode="#" horiz-adv-x="1308" d="M130 535q0 23 18 36q8 5 18.5 8t29.5 3h156l64 313h-160q-18 0 -28.5 2.5t-18.5 7.5q-18 13 -19 37q0 23 19 37q8 5 18.5 7.5t28.5 2.5h178l83 417q4 19 9 29.5t14 18.5q13 12 33 12t35 -14q11 -11 14 -25.5t-2 -41.5l-79 -396h330l83 417q4 19 9.5 29.5t13.5 18.5 q13 12 34 12q20 0 35 -14q11 -11 13.5 -25.5t-2.5 -41.5l-79 -396h136q18 0 28.5 -2.5t18.5 -7.5q18 -14 19 -37q0 -24 -19 -37q-8 -5 -18 -7.5t-29 -2.5h-155l-63 -313h158q18 0 28.5 -2.5t18.5 -8.5q18 -13 18 -36q0 -24 -18 -37q-8 -5 -18.5 -8t-28.5 -3h-176l-87 -435 q-4 -19 -9.5 -29.5t-13.5 -18.5q-14 -12 -34 -12t-35 14q-11 11 -13.5 25.5t2.5 41.5l83 414h-331l-87 -435q-4 -19 -9 -29.5t-13 -18.5q-14 -12 -34 -12t-35 14q-11 11 -13.5 25.5t2.5 41.5l83 414h-138q-18 0 -28.5 3t-19.5 8q-18 13 -18 37zM459 582h331l63 313h-331z " />
<glyph unicode="$" horiz-adv-x="1202" d="M119 189q0 24 15 39t37 16q15 0 29 -9.5t29 -21.5q39 -33 75.5 -55.5t74 -37.5t77.5 -22.5t86 -10.5v604l-32 5q-43 7 -79 16t-67 21.5t-58.5 29.5t-55.5 41q-115 96 -115 267q0 86 28 156.5t81 122t128 82t170 36.5v125q0 18 2.5 28.5t7.5 18.5q13 18 37 19q23 0 37 -19 q5 -8 7.5 -18t2.5 -29v-124q48 -2 89 -9.5t79.5 -21.5t74.5 -34t75 -47q17 -12 29 -26t12 -32q0 -19 -11 -31q-14 -17 -38 -18q-12 0 -26.5 8t-31.5 20q-34 25 -64 41.5t-60 28t-60.5 17.5t-67.5 8v-594l58 -9q51 -8 90 -17t70 -20t55 -25.5t47 -33.5q60 -49 92.5 -122 t32.5 -161t-30.5 -159t-88.5 -123.5t-140.5 -83t-185.5 -36.5v-165q0 -18 -2.5 -28.5t-7.5 -18.5q-14 -18 -37 -19q-24 0 -37 19q-5 8 -7.5 18t-2.5 29v165q-55 2 -105.5 10.5t-97 25t-91.5 42.5t-90 63q-16 13 -27.5 27.5t-11.5 31.5zM244 1075q0 -63 18 -111t57 -81 q23 -18 44.5 -32t46.5 -24.5t55.5 -18t70.5 -13.5l6 -1v579q-141 -10 -219.5 -89t-78.5 -209zM636 87q77 4 139 26.5t105.5 61t67 91.5t23.5 121q0 65 -20 117.5t-60 87.5q-20 17 -38.5 28.5t-42.5 20t-55 15.5t-75 14l-44 7v-590z" />
<glyph unicode="%" horiz-adv-x="1695" d="M141 977v219q0 61 20 112t55.5 87t85 55.5t110.5 19.5q59 0 108.5 -19.5t85 -55.5t55 -87t19.5 -112v-219q0 -61 -19.5 -111.5t-55 -86.5t-85 -55t-108.5 -19q-60 0 -110 19t-85.5 55t-55.5 86t-20 112zM231 981q0 -46 10.5 -83t32 -62.5t56 -39.5t82.5 -14 q96 0 137 53.5t41 145.5v211q0 46 -10 83t-31.5 63t-55 40.5t-81.5 14.5t-82.5 -14.5t-56 -40.5t-32 -63t-10.5 -83v-211zM462 25q-3 16 10 42l681 1361q12 27 27 34q7 4 16 4t19 -5q18 -10 22 -27q3 -16 -10 -42l-681 -1362q-12 -27 -27 -34q-7 -4 -16 -4t-20 5 q-18 10 -21 28zM1016 260v219q0 61 20 112t55 87t85 56t110 20q59 0 109 -20t85.5 -56t54.5 -86.5t19 -112.5v-219q0 -61 -19 -111.5t-54.5 -86t-85 -55t-109.5 -19.5t-110 19.5t-85 55t-55 86t-20 111.5zM1106 264q0 -46 10 -83t31.5 -62.5t56 -39t82.5 -13.5q96 0 137 53 t41 145v211q0 46 -9.5 83t-31 63t-55.5 40.5t-82 14.5t-82.5 -14.5t-56 -40.5t-31.5 -63t-10 -83v-211z" />
<glyph unicode="&#x26;" horiz-adv-x="1488" d="M172 403q0 84 26.5 148t72 116.5t106 97.5t129.5 91q-29 35 -57.5 72t-51.5 76.5t-38 83.5t-15 92q0 61 23.5 114.5t63.5 92t94.5 61t115.5 22.5t115.5 -22.5t94.5 -62t63.5 -93t23.5 -114.5q0 -45 -13.5 -83t-36.5 -70t-53 -59t-65 -51l-108 -73l417 -506q23 33 38 64.5 t24 66.5t14 76t8 92q2 27 5 40t10 22q13 19 41 20q27 0 41 -20q6 -8 9 -21t3 -36q0 -48 -8 -100t-23 -104q-14 -48 -36.5 -93.5t-57.5 -88.5l127 -152q16 -19 22.5 -32t6.5 -27q0 -10 -5.5 -20.5t-15.5 -18.5q-15 -12 -33 -12q-15 0 -29 9t-32 32l-115 139q-20 -20 -59 -52 t-96 -61t-130 -50t-163 -21q-100 0 -184 30t-143.5 85t-92.5 131t-33 169zM283 410q0 -72 24.5 -131.5t69 -102.5t107.5 -66.5t139 -23.5q44 0 89.5 6.5t93.5 25t99 50t107 80.5l-443 534q-57 -39 -109 -76.5t-91.5 -81t-62.5 -96t-23 -118.5zM455 1184q0 -28 6 -54.5 t22.5 -57.5t44 -68.5t70.5 -88.5l35 23q44 29 80 55.5t62 54.5t40 59.5t14 70.5q0 42 -14 77.5t-39.5 61.5t-60 40.5t-74.5 14.5t-74.5 -14.5t-59 -39.5t-38.5 -59t-14 -75z" />
<glyph unicode="'" horiz-adv-x="442" d="M168 1176v223q0 20 2.5 31t8.5 20q13 20 42 20t42 -20q6 -9 8.5 -20t2.5 -31v-223q0 -20 -2.5 -31t-8.5 -21q-13 -20 -42 -20t-42 20q-6 9 -8.5 20t-2.5 32z" />
<glyph unicode="(" horiz-adv-x="581" d="M205 162v1134q0 49 7 96t32 95q17 35 40 64.5t52 58.5q14 14 26.5 22t26.5 8q20 0 35 -14q14 -14 14 -35q0 -14 -7.5 -26t-22.5 -27q-17 -17 -37 -42.5t-31 -49.5q-17 -36 -23 -75t-6 -87v-1110q0 -48 6 -87t23 -75q11 -25 30.5 -49.5t37.5 -42.5q15 -15 22.5 -27 t7.5 -26q0 -20 -14 -35q-14 -14 -35 -14q-14 0 -26.5 8t-26.5 22q-29 29 -52 59t-40 64q-25 48 -32 95t-7 96z" />
<glyph unicode=")" horiz-adv-x="581" d="M143 -133q0 14 8 26t23 27q17 17 36.5 42.5t31.5 49.5q17 36 22.5 75t5.5 87v1110q0 48 -5.5 87t-22.5 75q-11 25 -31 50t-37 42q-15 15 -23 27t-8 26q0 20 15 35q14 14 35 14q14 0 26 -8t27 -22q29 -29 52 -58.5t40 -64.5q25 -48 32 -94.5t7 -96.5v-1134q0 -49 -7.5 -96 t-31.5 -95q-17 -35 -40.5 -64.5t-51.5 -58.5q-14 -14 -26.5 -22t-26.5 -8q-20 0 -35 14q-14 14 -15 35z" />
<glyph unicode="*" horiz-adv-x="974" d="M172 963q5 14 31 29l203 122l-203 122q-26 15 -31 30q-7 19 3 36q10 16 30 19q16 1 41 -13l200 -121v234q0 30 10 42q11 15 31 16q20 0 32 -16q9 -12 9 -42v-234l201 121q25 14 41 13q19 -3 30 -19q10 -16 3 -36q-5 -14 -31 -30l-204 -122l204 -122q26 -15 31 -29 q7 -19 -3 -36q-10 -16 -30 -20q-16 -1 -41 14l-201 119v-233q0 -30 -9 -42q-11 -15 -32 -15q-20 0 -31 15q-9 12 -10 42v233l-200 -119q-25 -14 -41 -14q-19 3 -30 20q-10 16 -3 36z" />
<glyph unicode="+" d="M100 540q0 23 19 37q8 5 18 7.5t29 2.5h313v313q0 18 2.5 28.5t7.5 18.5q13 18 37 19q23 0 37 -19q5 -8 7.5 -18t2.5 -29v-313h314q18 0 28.5 -2.5t18.5 -7.5q18 -14 18 -37q0 -24 -18 -37q-8 -5 -18.5 -7.5t-28.5 -2.5h-314v-314q0 -18 -2.5 -28.5t-7.5 -18.5 q-14 -18 -37 -18q-24 0 -37 18q-5 8 -7.5 18.5t-2.5 28.5v314h-313q-18 0 -28.5 2.5t-18.5 7.5q-18 13 -19 37z" />
<glyph unicode="," horiz-adv-x="459" d="M84.5 -172.5q1.5 11.5 7.5 30.5l90 270q6 18 11.5 27.5t13.5 16.5q13 10 32 10q18 0 32 -10t19 -26q3 -11 1.5 -22t-7.5 -30l-90 -270q-6 -18 -11.5 -27.5t-13.5 -16.5q-13 -10 -32 -10q-18 0 -32 10t-19 25q-3 11 -1.5 22.5z" />
<glyph unicode="-" horiz-adv-x="872" d="M160 540q0 23 18 37q8 5 18.5 7.5t28.5 2.5h422q18 0 28.5 -2.5t18.5 -7.5q18 -14 19 -37q0 -24 -19 -37q-8 -5 -18 -7.5t-29 -2.5h-422q-18 0 -28.5 2.5t-18.5 7.5q-18 13 -18 37z" />
<glyph unicode="." horiz-adv-x="540" d="M176 88q0 19 7 36.5t20 30.5t30.5 20t36.5 7t37 -7t30.5 -20t20 -30t7.5 -37q0 -19 -7.5 -36.5t-20 -30.5t-30.5 -20t-37 -7t-36.5 7t-30.5 20t-20 30.5t-7 36.5z" />
<glyph unicode="/" horiz-adv-x="692" d="M15.5 -104q1.5 12 8.5 30l546 1639q8 26 21 39.5t35 13.5q17 0 30 -9.5t18 -23.5q4 -11 2.5 -23t-7.5 -30l-547 -1638q-8 -26 -21 -40t-34 -14q-17 0 -30 9.5t-19 23.5q-4 11 -2.5 23z" />
<glyph unicode="0" d="M143 377v704q0 85 28.5 157t79 123.5t120.5 80t155 28.5q84 0 155 -28.5t121.5 -80t78.5 -123.5t28 -157v-704q0 -85 -28 -157t-78.5 -123.5t-121.5 -80t-155 -28.5q-85 0 -155 28.5t-120.5 80t-79 123.5t-28.5 157zM250 376q0 -62 18 -116t52.5 -93.5t86.5 -62 t119 -22.5q68 0 119.5 22.5t86.5 62t53 93t18 116.5v706q0 62 -18 116t-53 93.5t-86.5 62t-119.5 22.5t-119.5 -22.5t-86 -62t-52.5 -93t-18 -116.5v-706z" />
<glyph unicode="1" d="M253 1154q2 9 7.5 18.5t21.5 24.5l238 239q16 16 30.5 23t32.5 7q26 0 43 -17q11 -11 14 -26t3 -39v-1321q0 -20 -2.5 -30.5t-8.5 -20.5q-13 -20 -42 -20t-42 20q-6 9 -8.5 20t-2.5 31v1250l-186 -186q-15 -15 -24.5 -20.5t-18.5 -7.5q-25 -3 -42 14q-16 16 -13 41z" />
<glyph unicode="2" d="M135 49q0 13 9.5 29.5t26.5 40.5l549 724q46 61 70 123.5t24 141.5q0 59 -18.5 109t-53 85t-86.5 54.5t-117 19.5q-46 0 -91 -11t-82 -36.5t-64.5 -67t-39.5 -101.5q-5 -24 -8.5 -38t-11.5 -26q-6 -9 -16 -15t-25 -6q-27 0 -39 19q-6 9 -8 18t-2 20q0 18 5.5 46t17.5 60 t32 64.5t49 61.5q50 50 120.5 78t162.5 28q87 0 157.5 -25t120 -71.5t77 -114t27.5 -151.5q0 -46 -7.5 -87t-22 -79t-36 -75t-50.5 -74l-531 -699h588q18 0 28.5 -2.5t18.5 -7.5q18 -14 19 -37q0 -24 -19 -37q-8 -5 -18 -7.5t-29 -2.5h-633q-33 0 -51 2t-31 14 q-12 14 -12 33z" />
<glyph unicode="3" d="M93 311q0 18 3.5 32.5t13.5 24.5q14 14 35 14q20 0 33 -12q8 -8 13 -19t8 -35q8 -62 32 -106.5t62 -72.5t88.5 -41.5t113.5 -13.5q66 0 123 21.5t100 62t68 98t25 127.5q0 147 -76.5 228t-230.5 81q-18 0 -28.5 3t-18.5 8q-18 13 -19 37q0 23 19 36q8 5 18 8t29 3 q72 0 124.5 21t87.5 59t51.5 92.5t16.5 121.5q0 68 -21.5 121t-58.5 90t-89 56.5t-113 19.5q-112 0 -181 -49.5t-92 -161.5q-5 -27 -10 -38.5t-13 -19.5q-13 -13 -35 -13q-23 0 -37 17q-6 8 -9 18t-3 25q0 28 7.5 57.5t21 57.5t32 54t38.5 46q53 53 121 77t160 24 q84 0 155 -26.5t123.5 -75.5t81.5 -119.5t29 -159.5q0 -116 -50 -202.5t-161 -132.5q111 -33 174.5 -122t63.5 -241q0 -91 -34 -165.5t-92 -127.5t-134.5 -81.5t-162.5 -28.5q-57 0 -103.5 7t-83.5 21t-67 34.5t-57 46.5q-41 41 -66 97t-25 117z" />
<glyph unicode="4" d="M71 285q0 8 2.5 17t9.5 24l547 1093q9 18 15.5 27t16.5 14q10 6 24 6q17 0 31.5 -12.5t14.5 -33.5q0 -16 -14 -45l-522 -1043h470v399q0 20 2.5 31t8.5 20q13 20 42 21q29 0 42 -21q6 -9 8.5 -19.5t2.5 -31.5v-399h135q18 0 28.5 -2.5t18.5 -7.5q18 -14 19 -37 q0 -24 -19 -37q-8 -5 -18 -7.5t-29 -2.5h-135v-175q0 -20 -2.5 -30.5t-8.5 -20.5q-13 -20 -42 -20t-42 20q-6 9 -8.5 20t-2.5 31v175h-532q-29 0 -42 8q-21 13 -21 39z" />
<glyph unicode="5" d="M151 304q0 15 3 25t9 18q14 17 38 18q22 0 35 -14q8 -8 13 -20t10 -38q23 -112 91.5 -161.5t179.5 -49.5q60 0 112.5 18.5t88.5 54.5q32 32 50 71.5t26.5 82t10 86t1.5 84.5q0 68 -8.5 136.5t-37.5 125t-82.5 91.5t-143.5 35q-82 0 -144.5 -26.5t-107.5 -95.5 q-11 -18 -25 -29q-6 -5 -15 -7.5t-17 -2.5q-6 0 -16.5 2.5t-18.5 10.5t-11.5 20.5t-3.5 27.5v628q0 10 1.5 24t13.5 25q11 11 24 12.5t25 1.5h582q18 0 28 -2.5t19 -7.5q18 -14 18 -37q0 -24 -18 -37q-8 -5 -18.5 -7.5t-28.5 -2.5h-551v-510q26 28 54.5 48.5t61.5 33 t72.5 19.5t87.5 7q158 0 246 -89q38 -39 62 -86t36.5 -98t17.5 -105t5 -105q0 -52 -3 -104t-15 -102t-35 -96t-62 -85q-51 -51 -120 -77.5t-161 -26.5t-160.5 23.5t-121.5 76.5q-20 20 -38.5 46.5t-31.5 54.5t-20 57.5t-7 57.5z" />
<glyph unicode="6" d="M143 397q0 35 5 70.5t14.5 72.5t25.5 77t38 85l358 717q9 18 15.5 27t15.5 14q10 6 25 6q17 0 31.5 -12.5t14.5 -33.5q0 -16 -14 -45l-293 -587q35 14 75.5 22.5t86.5 8.5q90 0 160.5 -31.5t119 -87t74 -129.5t25.5 -159q0 -88 -26 -165t-75 -135t-121 -91t-166 -33 q-93 0 -165 30.5t-121.5 85t-76 129.5t-26.5 164zM250 403q0 -73 19.5 -132t56 -101t88 -65t116.5 -23t117 23t89 65t57 101.5t20 131.5q0 66 -18 124.5t-53 102.5t-88.5 69.5t-123.5 25.5q-65 0 -116.5 -22.5t-88 -64.5t-56 -101.5t-19.5 -133.5z" />
<glyph unicode="7" d="M174 1200v195q0 10 1.5 24t12.5 25t24 12.5t26 1.5h628q30 0 44 -2.5t25 -12.5q7 -7 10.5 -15t3.5 -20q0 -11 -4.5 -26.5t-11.5 -33.5l-489 -1304q-8 -20 -13.5 -30t-13.5 -15q-11 -7 -24 -7q-17 0 -31.5 9t-18.5 26q-2 9 -1 20t9 32l482 1285h-552v-164q0 -20 -3 -31 t-9 -20q-13 -20 -42 -21q-29 0 -42 21q-6 9 -8.5 20t-2.5 31z" />
<glyph unicode="8" d="M109 395q0 63 16.5 117.5t47.5 100t74 82t95 64.5q-97 52 -150 135t-53 195q0 81 28.5 151t79.5 121t122 80t157 29t157.5 -29t122.5 -80t79 -121.5t28 -150.5q0 -112 -51.5 -195t-148.5 -135q104 -55 167.5 -146t63.5 -218q0 -87 -31.5 -161t-88 -129t-133 -86 t-165.5 -31t-165 31t-132.5 86t-88 129t-31.5 161zM215 395q0 -68 24 -125t65.5 -99t98.5 -65.5t123 -23.5t123.5 23.5t99 65.5t65.5 99t24 125t-24 125.5t-65.5 99.5t-99 65.5t-123.5 23.5q-67 0 -123.5 -23.5t-98 -65.5t-65.5 -99.5t-24 -125.5zM246 1089q0 -62 20.5 -115 t57 -91.5t88.5 -60t114 -21.5q60 0 112 21t89.5 59t58.5 90.5t21 117.5q0 61 -20.5 113.5t-57.5 91t-88.5 60.5t-114.5 22q-62 0 -114 -21.5t-88.5 -60t-57 -91t-20.5 -114.5z" />
<glyph unicode="9" d="M133 1047q0 87 25.5 164t75 135t121.5 91t165 33t165.5 -30.5t122 -85t75.5 -129.5t26 -164q0 -71 -19.5 -143t-63.5 -162l-357 -717q-9 -18 -16 -27t-16 -14q-11 -6 -24 -6q-17 0 -31.5 12.5t-14.5 33.5q0 16 14 45l293 587q-35 -14 -75.5 -22.5t-86.5 -8.5 q-91 0 -161 31.5t-119 87t-74 130t-25 159.5zM240 1055q0 -66 17.5 -124.5t53 -102.5t89 -69.5t122.5 -25.5q65 0 116.5 22.5t88.5 64.5t56.5 101.5t19.5 133.5q0 73 -19.5 132t-56.5 101t-88.5 65t-116.5 23t-117 -23t-88.5 -65t-56.5 -101.5t-20 -131.5z" />
<glyph unicode=":" horiz-adv-x="598" d="M233 88q0 19 7.5 36.5t20 30.5t30 20t37.5 7q19 0 36.5 -7t30.5 -20t20 -30t7 -37q0 -19 -7 -36.5t-20 -30.5t-30.5 -20t-36.5 -7t-37 7t-30.5 20t-20 30.5t-7.5 36.5zM233 702q0 19 7.5 37t20 30.5t30 20t37.5 7.5q19 0 36.5 -7.5t30.5 -20t20 -30t7 -37.5 q0 -19 -7 -36.5t-20 -30t-30.5 -20t-36.5 -7.5t-37 7.5t-30.5 20t-20 30t-7.5 36.5z" />
<glyph unicode=";" horiz-adv-x="598" d="M206.5 -172.5q1.5 11.5 7.5 30.5l90 270q6 18 11.5 27.5t13.5 16.5q13 10 31 10t32.5 -10t19.5 -26q3 -11 1.5 -22t-7.5 -30l-91 -270q-6 -18 -11 -27.5t-13 -16.5q-13 -10 -32 -10q-18 0 -32 10t-19 25q-3 11 -1.5 22.5zM264 702q0 19 7.5 37t20 30.5t30 20t36.5 7.5 t37 -7.5t30.5 -20t20 -30t7.5 -37.5q0 -19 -7.5 -36.5t-20 -30t-30.5 -20t-37 -7.5t-36.5 7.5t-30 20t-20 30t-7.5 36.5z" />
<glyph unicode="&#x3c;" d="M198 540q0 35 24.5 53.5t63.5 38.5l471 237q29 14 45 15q20 0 33 -14.5t13 -31.5q0 -14 -6 -25q-5 -9 -14 -15.5t-27 -16.5l-480 -241l480 -242q18 -9 27 -16t14 -16q6 -11 6 -24q0 -17 -13 -31.5t-33 -14.5q-16 0 -45 14l-471 237q-19 9 -35.5 18.5t-28 20t-18 24 t-6.5 30.5z" />
<glyph unicode="=" d="M100 381q0 23 19 37q8 5 18 7.5t29 2.5h721q18 0 28.5 -2.5t18.5 -7.5q18 -14 18 -37q0 -24 -18 -37q-8 -5 -18.5 -7.5t-28.5 -2.5h-721q-18 0 -28.5 2.5t-18.5 7.5q-18 13 -19 37zM100 696q0 23 19 37q8 5 18 7.5t29 2.5h721q18 0 28.5 -2.5t18.5 -7.5q18 -14 18 -37 q0 -24 -18 -37q-8 -5 -18.5 -7.5t-28.5 -2.5h-721q-18 0 -28.5 2.5t-18.5 7.5q-18 13 -19 37z" />
<glyph unicode="&#x3e;" d="M205 242q0 13 6 24q5 9 13.5 16t27.5 16l480 242l-480 241q-18 9 -27 16t-14 16q-6 10 -6 25q0 17 12.5 31.5t33.5 14.5q16 0 45 -15l471 -237q19 -9 35 -18.5t28 -19.5t18.5 -23.5t6.5 -30.5t-6.5 -30.5t-18.5 -24t-28 -19.5t-35 -19l-471 -237q-29 -14 -45 -14 q-20 0 -33 14t-13 32z" />
<glyph unicode="?" horiz-adv-x="999" d="M164 1133q0 62 28 125t71 108q49 49 116.5 76.5t150.5 27.5q78 0 145.5 -27.5t117.5 -75.5t78 -114t28 -143q0 -71 -25.5 -128t-64.5 -116l-172 -254q-26 -37 -32.5 -75.5t-6.5 -81.5q0 -20 -2.5 -31t-8.5 -21q-13 -20 -42 -20t-42 20q-6 9 -8.5 20t-2.5 32 q0 35 1.5 61.5t7.5 50.5t17.5 47.5t32.5 53.5l172 254q31 46 50.5 88t19.5 100q0 56 -20 105.5t-55.5 85.5t-83 56.5t-104.5 20.5q-50 0 -98 -16t-86 -53q-34 -33 -52.5 -75.5t-24.5 -88.5q-2 -13 -4.5 -26t-8.5 -23q-6 -9 -16.5 -15t-28.5 -6q-9 0 -20 4.5t-17 14.5 q-6 9 -8 18t-2 21zM463 76q0 34 24 58t58 24t58 -24t24 -58t-24 -58t-58 -24t-58 24t-24 58z" />
<glyph unicode="@" horiz-adv-x="1427" d="M156 322v716q0 97 29 175.5t83 134.5q52 54 125 82t164 28h313q90 0 163.5 -28t125.5 -82q54 -55 83.5 -133.5t29.5 -176.5v-975q0 -20 -2.5 -30.5t-8.5 -20.5q-13 -20 -42 -20t-42 20q-6 9 -9 20t-3 31v64q-33 -43 -66.5 -70t-70.5 -42.5t-76 -21t-80 -5.5 q-77 0 -139.5 23.5t-101.5 62.5q-38 38 -62.5 86t-39.5 102.5t-21 113.5t-6 118q0 58 6 117t21 113.5t39.5 103t62.5 85.5q39 39 102 62.5t139 23.5q41 0 80 -5.5t76 -21t71 -42.5t66 -70v174q0 45 -4 80t-13.5 63.5t-26 52.5t-40.5 48q-45 45 -99.5 65.5t-131.5 20.5h-272 q-77 0 -132 -20.5t-100 -65.5q-24 -24 -40 -48t-26 -52.5t-14 -63.5t-4 -80v-712q0 -51 4.5 -84.5t15 -57t26 -42t36.5 -40.5q14 -14 23.5 -26t9.5 -27q0 -24 -16 -39q-15 -15 -38 -15q-15 0 -27.5 8.5t-27.5 23.5q-28 28 -48.5 55t-35 61t-21.5 78t-7 105zM608 494 q0 -77 10 -151.5t39 -132.5t84 -94t146 -36q90 0 145 36t84.5 94t39 132.5t9.5 151.5t-9.5 151t-39 132.5t-84.5 94t-145 35.5q-91 0 -146 -35.5t-84 -94t-39 -133t-10 -150.5z" />
<glyph unicode="A" horiz-adv-x="1232" d="M62 87l490 1311q7 18 11.5 28t9.5 18q7 10 18 16t25 6t25 -6t18 -16q5 -8 10 -18t12 -28l489 -1311q8 -22 10 -42q0 -3 1 -5q0 -17 -15 -32q-16 -16 -42 -16q-13 0 -26 8q-10 7 -16.5 17t-14.5 31l-116 306h-669l-116 -306q-8 -22 -14.5 -31.5t-16.5 -16.5q-13 -8 -26 -8 q-26 0 -42 16q-15 15 -15 33q0 21 10 46zM316 453h600l-300 826z" />
<glyph unicode="B" horiz-adv-x="1374" d="M225 66v1326q0 13 2 26.5t14 24.5q11 11 24.5 13t26.5 2h470q90 0 167.5 -25.5t134 -74t88.5 -120t32 -161.5q0 -57 -16 -108t-45 -94.5t-71 -75.5t-96 -49q59 -20 105.5 -54t78.5 -79.5t49 -101t17 -118.5q0 -97 -30.5 -171t-86.5 -124.5t-135.5 -76t-175.5 -25.5h-487 q-12 0 -25.5 2t-24.5 13t-13.5 24.5t-2.5 26.5zM336 98h430q75 0 136 20.5t104 59t66.5 94.5t23.5 125q0 70 -23.5 126t-66.5 94t-104 58.5t-136 20.5h-430v-598zM336 795h414q66 0 124.5 15.5t103 50t70 87.5t25.5 129q0 75 -25.5 129t-70 88t-103.5 50t-124 16h-414v-565z " />
<glyph unicode="C" horiz-adv-x="1318" d="M168 729q0 88 1.5 158t6 125.5t14.5 99.5t25.5 81.5t40 70.5t57.5 67q65 65 155 102t200 37q73 0 133 -14.5t109 -40t88 -60.5t70 -75q18 -25 33.5 -53t26.5 -54.5t17 -50t6 -40.5q0 -26 -14 -40q-8 -8 -17.5 -11t-18.5 -3q-12 0 -20.5 3.5t-15.5 10.5q-8 8 -15 21.5 t-12 31.5q-20 65 -54.5 116t-81.5 86.5t-106.5 55t-127.5 19.5q-80 0 -149.5 -27.5t-127.5 -84.5q-39 -39 -61.5 -83.5t-33.5 -105.5t-14 -144t-3 -198q0 -116 3 -198t14 -143t33.5 -105.5t61.5 -83.5q57 -57 127 -85t150 -28q69 0 128 19.5t106 55.5t81.5 87t54.5 116 q5 17 12 30.5t15 21.5q7 7 15.5 10.5t20.5 3.5q9 0 18 -3t18 -11q14 -14 14 -40q0 -16 -6 -40t-17 -51t-26.5 -54.5t-33.5 -52.5q-31 -40 -70 -74.5t-88 -60.5t-109.5 -40.5t-132.5 -14.5q-110 0 -200 37t-155 102q-34 34 -58 67t-39.5 70.5t-25.5 81.5t-14.5 99.5t-6 125 t-1.5 158.5z" />
<glyph unicode="D" horiz-adv-x="1388" d="M225 66v1327q0 12 2 25.5t14 24.5q11 11 24.5 13t25.5 2h424q231 0 364 -133q52 -52 81 -121t42 -147.5t16 -162.5t3 -165q0 -82 -3 -165.5t-16 -161.5t-41.5 -147.5t-81.5 -121.5q-133 -133 -364 -133h-424q-12 0 -25.5 2t-24.5 13t-13.5 24.5t-2.5 26.5zM336 98h352 q44 0 86.5 5.5t82.5 18t76.5 34.5t67.5 55q41 43 63 102.5t32.5 127.5t12 141.5t1.5 146.5q0 72 -1.5 146t-12 142t-32.5 127.5t-63 102.5q-32 33 -68 55t-76 35t-82.5 18t-86.5 5h-352v-1262z" />
<glyph unicode="E" horiz-adv-x="1224" d="M225 66v1327q0 12 2 25.5t14 24.5q11 11 24.5 13t25.5 2h757q22 0 32.5 -2.5t18.5 -7.5q19 -15 19 -39t-19 -39q-8 -5 -19 -7.5t-32 -2.5h-712v-576h597q22 0 32.5 -2.5t18.5 -7.5q19 -15 20 -39q0 -24 -20 -39q-8 -5 -19 -7.5t-32 -2.5h-597v-588h712q22 0 32.5 -2.5 t18.5 -7.5q19 -15 19 -39t-19 -39q-8 -5 -19 -7.5t-32 -2.5h-757q-12 0 -25.5 2t-24.5 13t-13.5 24.5t-2.5 26.5z" />
<glyph unicode="F" horiz-adv-x="1179" d="M225 69v1324q0 12 2 25.5t14 24.5q11 11 24.5 13t25.5 2h757q22 0 32.5 -2.5t18.5 -7.5q19 -15 19 -39t-19 -39q-8 -5 -19 -7.5t-32 -2.5h-712v-600h597q22 0 32.5 -2.5t18.5 -7.5q19 -15 20 -39q0 -24 -20 -39q-8 -5 -19 -7.5t-32 -2.5h-597v-593q0 -24 -2.5 -34.5 t-9.5 -22.5q-14 -20 -43 -20t-43 20q-7 11 -10 22t-3 35z" />
<glyph unicode="G" horiz-adv-x="1337" d="M168 729q0 88 1.5 158t6 125.5t14.5 99.5t25.5 81.5t40 70.5t57.5 67q65 65 155 102t200 37q73 0 133 -14.5t109 -40t88 -60.5t70 -75q18 -25 33.5 -53t26.5 -54.5t17 -50t6 -40.5q0 -26 -14 -40q-8 -8 -17.5 -11t-18.5 -3q-12 0 -20.5 3.5t-15.5 10.5q-8 8 -15 21.5 t-12 31.5q-20 65 -54.5 116t-81.5 86.5t-106.5 55t-127.5 19.5q-80 0 -149.5 -27.5t-127.5 -84.5q-39 -39 -61.5 -83.5t-33.5 -105.5t-14 -144t-3 -198q0 -116 3 -198t14 -143t33.5 -105.5t61.5 -83.5q57 -57 127 -85t150 -28t149.5 27.5t126.5 85.5q35 35 57 74.5t34.5 92 t17 121t4.5 160.5h-327q-22 0 -32.5 2.5t-18.5 7.5q-19 15 -20 39q0 24 20 39q8 5 19 7.5t32 2.5h374q12 0 25 -1.5t24 -12.5t12.5 -25.5t1.5 -23.5v-35q-1 -110 -6 -187t-20.5 -135.5t-44 -105t-74.5 -92.5q-65 -65 -155 -102t-199 -37q-110 0 -200 37t-155 102 q-34 34 -58 67t-39.5 70.5t-25.5 81.5t-14.5 99.5t-6 125t-1.5 158.5z" />
<glyph unicode="H" horiz-adv-x="1431" d="M225 69v1321q0 24 2.5 34.5t10.5 21.5q14 20 43 20t43 -20q7 -11 9.5 -22t2.5 -34v-606h760v606q0 24 2.5 34.5t9.5 21.5q14 20 43 20t43 -20q7 -11 9.5 -22t2.5 -34v-1321q0 -24 -2.5 -34.5t-9.5 -22.5q-14 -20 -43 -20t-43 20q-7 11 -9.5 22t-2.5 35v617h-760v-617 q0 -24 -2.5 -34.5t-9.5 -22.5q-14 -20 -43 -20t-43 20q-7 11 -10 22t-3 35z" />
<glyph unicode="I" horiz-adv-x="561" d="M225 69v1321q0 24 2.5 34.5t10.5 21.5q14 20 43 20t43 -20q7 -11 9.5 -22t2.5 -34v-1321q0 -24 -2.5 -34.5t-9.5 -22.5q-14 -20 -43 -20t-43 20q-7 11 -10 22t-3 35z" />
<glyph unicode="J" horiz-adv-x="1001" d="M53 126q0 20 13 36q15 18 37 18q12 0 24.5 -6.5t36.5 -23.5q47 -35 92.5 -49.5t105.5 -14.5q159 0 241.5 94t82.5 273v937q0 24 2.5 34.5t9.5 21.5q14 20 43 20t43 -20q7 -11 10 -22t3 -34v-960q0 -100 -31 -181.5t-87.5 -139.5t-136.5 -89.5t-180 -31.5 q-83 0 -148.5 20.5t-127.5 65.5q-13 9 -23 22t-10 30z" />
<glyph unicode="K" horiz-adv-x="1335" d="M225 69v1321q0 24 2.5 34.5t10.5 21.5q14 20 43 20t43 -20q7 -11 9.5 -22t2.5 -34v-830l717 873q8 11 20.5 22t31.5 11q20 0 35 -13q20 -17 19 -42q-1 -11 -6 -21t-18 -26l-373 -454l464 -816q17 -31 17 -50q0 -13 -6 -24.5t-20 -19.5t-28 -8q-24 0 -37 15.5t-23 31.5 l-446 786l-347 -418v-338q0 -24 -2.5 -34.5t-9.5 -22.5q-14 -20 -43 -20t-43 20q-7 11 -10 22t-3 35z" />
<glyph unicode="L" horiz-adv-x="1171" d="M225 66v1324q0 24 2.5 34.5t10.5 21.5q14 20 43 20t43 -20q7 -11 9.5 -22t2.5 -34v-1292h712q22 0 32.5 -2.5t18.5 -7.5q19 -15 19 -39t-19 -39q-8 -5 -19 -7.5t-32 -2.5h-757q-12 0 -25.5 2t-24.5 13t-13.5 24.5t-2.5 26.5z" />
<glyph unicode="M" horiz-adv-x="1675" d="M225 69v1322q0 24 5.5 37t14.5 22q16 16 40 16q9 0 18 -2t19 -8q15 -9 32 -47l484 -1075l483 1075q17 38 33 47q9 6 18 8t19 2q24 0 40 -16q9 -9 14 -22.5t5 -36.5v-1322q0 -24 -2.5 -34.5t-9.5 -22.5q-14 -20 -43 -20t-43 20q-7 11 -10 22t-3 35v1123l-421 -926 q-14 -32 -31.5 -49.5t-48.5 -17.5q-32 0 -49 17.5t-31 49.5l-422 926v-1123q0 -24 -2.5 -34.5t-9.5 -22.5q-14 -20 -43 -20t-43 20q-7 11 -10 22t-3 35z" />
<glyph unicode="N" horiz-adv-x="1513" d="M225 69v1321q0 24 5.5 37t14.5 22q17 17 43 17q20 0 35 -10.5t26 -28.5l829 -1224v1187q0 24 2.5 34.5t9.5 21.5q14 20 43 20t43 -20q7 -11 9.5 -22t2.5 -34v-1321q0 -24 -5 -37.5t-14 -22.5q-8 -8 -19.5 -12.5t-23.5 -4.5q-20 0 -35 10.5t-27 28.5l-828 1224v-1186 q0 -24 -2.5 -34.5t-9.5 -22.5q-14 -20 -43 -20t-43 20q-7 11 -10 22t-3 35z" />
<glyph unicode="O" horiz-adv-x="1335" d="M168 729q0 88 1.5 158t6 125.5t14.5 99.5t25.5 81.5t40 70.5t57.5 67q65 65 155 102t200 37t199.5 -37t154.5 -102q50 -51 79 -101t44 -117t18.5 -159t3.5 -225q0 -89 -1.5 -158.5t-6 -125t-14 -99.5t-25.5 -81.5t-40 -70.5t-58 -67q-65 -65 -155 -102t-199 -37 q-110 0 -200 37t-155 102q-34 34 -58 67t-39.5 70.5t-25.5 81.5t-14.5 99.5t-6 125t-1.5 158.5zM279 729q0 -116 3 -198t14 -143t33.5 -105.5t61.5 -83.5q57 -57 127 -85t150 -28t149.5 28t126.5 85q39 39 61.5 83.5t34 105.5t14.5 143t3 198q0 115 -3 198t-14.5 144 t-34 105.5t-61.5 83.5q-57 57 -126.5 84.5t-149.5 27.5t-149.5 -27.5t-127.5 -84.5q-39 -39 -61.5 -83.5t-33.5 -105.5t-14 -144t-3 -198z" />
<glyph unicode="P" horiz-adv-x="1292" d="M225 69v1324q0 12 2 25.5t14 24.5q11 11 24.5 13t25.5 2h469q94 0 175 -28t140 -82t92 -132t33 -178t-33 -178t-92 -131.5t-140 -82t-175 -28.5h-424v-549q0 -24 -2.5 -34.5t-9.5 -22.5q-14 -20 -43 -20t-43 20q-7 11 -10 22t-3 35zM336 717h412q75 0 137.5 19.5 t108 59.5t71 100t25.5 142t-25.5 142.5t-71 100.5t-108.5 59.5t-137 19.5h-412v-643z" />
<glyph unicode="Q" horiz-adv-x="1335" d="M168 729q0 88 1.5 158t6 125.5t14.5 99.5t25.5 81.5t40 70.5t57.5 67q65 65 155 102t200 37t199.5 -37t154.5 -102q50 -51 79 -101t44 -117t18.5 -159t3.5 -225q0 -118 -2.5 -203.5t-13 -149t-31.5 -112t-57 -92.5l127 -127q14 -14 20.5 -23.5t8.5 -20.5q1 -5 1 -9 q0 -19 -17 -35q-9 -9 -21 -13q-8 -3 -16 -3q-3 0 -7 1q-11 2 -20.5 8t-23.5 20l-127 126q-62 -51 -143 -79.5t-177 -28.5q-110 0 -200 37t-155 102q-34 34 -58 67t-39.5 70.5t-25.5 81.5t-14.5 99.5t-6 125t-1.5 158.5zM279 729q0 -116 3 -198t14 -143t33.5 -105.5 t61.5 -83.5q57 -57 127 -85t150 -28q70 0 131.5 21t113.5 64l-159 161q-14 14 -20.5 23.5t-8.5 20.5t2 23t13 21q20 20 44 15q11 -2 20.5 -8t23.5 -20l158 -158q25 36 38.5 79t21 99.5t9.5 130.5t2 171q0 115 -3 198t-14.5 144t-34 105.5t-61.5 83.5q-57 57 -126.5 84.5 t-149.5 27.5t-149.5 -27.5t-127.5 -84.5q-39 -39 -61.5 -83.5t-33.5 -105.5t-14 -144t-3 -198z" />
<glyph unicode="R" horiz-adv-x="1345" d="M225 69v1324q0 12 2 25.5t14 24.5q11 11 24.5 13t25.5 2h489q89 0 165.5 -25.5t133 -74.5t88 -122.5t31.5 -168.5q0 -82 -23.5 -149t-67.5 -116.5t-106 -82t-139 -45.5l331 -580q17 -31 17 -50q0 -13 -6 -24.5t-20 -19.5t-28 -8q-24 0 -37 15.5t-22 31.5l-363 633h-398 v-603q0 -24 -2.5 -34.5t-9.5 -22.5q-14 -20 -43 -20t-43 20q-7 11 -10 22t-3 35zM336 770h430q71 0 129.5 17.5t101.5 54t66.5 92t23.5 131.5t-23.5 131.5t-66.5 92t-101.5 54t-129.5 17.5h-430v-590z" />
<glyph unicode="S" horiz-adv-x="1202" d="M119 189q0 24 15 39t37 16q15 0 29 -9.5t29 -21.5q44 -37 85.5 -61.5t84.5 -39t91 -20.5t106 -6q86 0 155 20.5t118.5 59t75.5 94t26 127.5q0 65 -20 117.5t-60 87.5q-20 17 -38.5 29t-42.5 20t-55 15t-75 14l-170 26q-43 7 -79 16t-67 21.5t-58.5 29.5t-55.5 41 q-115 96 -115 267q0 91 32 165t90 126t142 80t189 28q58 0 106 -6t91.5 -19.5t84.5 -35t84 -52.5q17 -12 29 -26t12 -32q0 -19 -11 -31q-14 -17 -38 -18q-12 0 -26.5 8t-31.5 20q-40 29 -74.5 47t-69.5 29.5t-74 16t-88 4.5q-79 0 -142 -21t-106.5 -60t-66.5 -94.5 t-23 -124.5q0 -63 18.5 -111.5t56.5 -80.5q23 -18 44.5 -32t47 -24.5t56 -18t70.5 -13.5l157 -25q51 -8 90 -17t70 -20t55 -25.5t47 -33.5q60 -49 92.5 -122t32.5 -161q0 -92 -34 -166.5t-97.5 -127t-155 -81t-204.5 -28.5q-63 0 -120 6.5t-110 23t-102.5 44t-99.5 68.5 q-16 13 -27.5 27.5t-11.5 31.5z" />
<glyph unicode="T" horiz-adv-x="1103" d="M53 1409q0 24 20 39q8 5 18.5 7.5t32.5 2.5h856q22 0 32.5 -2.5t18.5 -7.5q19 -15 20 -39q0 -24 -20 -39q-8 -5 -19 -7.5t-32 -2.5h-374v-1291q0 -24 -2.5 -34.5t-9.5 -22.5q-14 -20 -43 -20t-43 20q-7 11 -9.5 22t-2.5 35v1291h-372q-22 0 -32.5 2.5t-18.5 7.5 q-19 15 -20 39z" />
<glyph unicode="U" horiz-adv-x="1409" d="M205 473v917q0 24 2.5 34.5t9.5 21.5q14 20 43 20t43 -20q7 -11 9.5 -22t2.5 -34v-903q0 -91 28.5 -164.5t79 -126.5t122 -81.5t160.5 -28.5q87 0 159 28.5t122.5 81.5t79 126.5t28.5 164.5v903q0 24 2.5 34.5t9.5 21.5q14 20 43 20t43 -20q7 -11 9.5 -22t2.5 -34v-917 q0 -106 -37 -195.5t-103 -154t-158 -100t-201 -35.5q-110 0 -202 35.5t-158 100t-103 154t-37 195.5z" />
<glyph unicode="V" horiz-adv-x="1093" d="M38 1408q0 4 -1 7q0 8 2 16q5 15 19 25t32 10t32 -10q8 -7 13 -16t11 -28l401 -1223l400 1223q6 18 11.5 27.5t13.5 16.5q13 10 32 10q18 0 32 -10t19 -25q2 -7 2 -15q-1 -4 -1 -8q-2 -12 -7 -30l-440 -1321q-5 -14 -11 -28t-13 -21q-10 -10 -18.5 -13t-19.5 -3t-19.5 3 t-18.5 13q-7 7 -13.5 21t-11.5 28l-439 1321q-5 18 -7 30z" />
<glyph unicode="W" horiz-adv-x="1744" d="M68 1415q0 9 4 20q5 15 19 23t29 8q19 0 33 -11q8 -8 13 -18t10 -31l302 -1218l325 1211q4 15 9.5 28t14.5 21q17 16 45 16t46 -16q9 -8 14.5 -21t9.5 -28l325 -1211l302 1218q5 22 10 31.5t13 17.5q13 11 33 11q14 0 28.5 -8t19.5 -23q4 -10 4 -20q-1 -1 -1 -2 q0 -11 -5 -33l-330 -1321q-8 -33 -24 -49q-11 -11 -22 -14.5t-23 -3.5q-27 0 -45 18q-8 8 -14.5 21.5t-10.5 27.5l-330 1215l-329 -1215q-4 -14 -10.5 -27.5t-14.5 -21.5q-18 -18 -45 -18q-12 0 -23 3.5t-22 14.5q-16 16 -25 49l-329 1321q-6 25 -6 35z" />
<glyph unicode="X" horiz-adv-x="1101" d="M92 44q0 19 18 50l373 654l-352 616q-17 31 -17 50q0 13 6 24.5t20 19.5t28 8q24 0 37 -15t22 -32l324 -578l328 584q9 16 20 28.5t35 12.5q13 0 28 -8q14 -8 20 -19.5t6 -24.5q0 -19 -17 -50l-354 -616l375 -654q17 -31 18 -50q0 -13 -6.5 -24.5t-20.5 -19.5t-28 -8 q-24 0 -37 15.5t-22 31.5l-345 611l-345 -611q-9 -16 -22.5 -31.5t-37.5 -15.5q-13 0 -27 8t-20.5 19.5t-6.5 24.5z" />
<glyph unicode="Y" horiz-adv-x="1011" d="M50 1423q2 11 9.5 21t19.5 16t24 6t22 -5q10 -6 17.5 -15t16.5 -28l347 -694l347 694q9 18 16.5 27.5t17.5 15.5q9 5 21 5t25 -6q12 -6 19 -15.5t10 -21.5q1 -4 1 -7q0 -8 -3 -15q-4 -11 -13 -30l-386 -772v-530q0 -24 -2.5 -34.5t-9.5 -22.5q-14 -20 -43 -20t-43 20 q-7 11 -9.5 22t-2.5 35v530l-386 772q-9 18 -13 29q-3 8 -3 16q0 3 1 7z" />
<glyph unicode="Z" horiz-adv-x="1114" d="M102 49q0 12 5.5 25t15.5 30l749 1256h-666q-22 0 -32.5 2.5t-18.5 7.5q-19 15 -20 39q0 24 20 39q8 5 18.5 7.5t32.5 2.5h738q20 0 31 -3.5t18 -10.5q14 -14 15 -35q0 -12 -5.5 -25t-15.5 -30l-749 -1256h699q22 0 32.5 -2.5t18.5 -7.5q19 -15 20 -39q0 -24 -20 -39 q-8 -5 -19 -7.5t-32 -2.5h-771q-20 0 -31 3.5t-18 10.5q-14 14 -15 35z" />
<glyph unicode="[" horiz-adv-x="600" d="M199 -88v1634q0 11 1.5 24.5t12.5 24.5t24 13t25 2h182q18 0 28.5 -2.5t19.5 -8.5q18 -14 18 -36q0 -24 -18 -37q-8 -5 -18.5 -7.5t-29.5 -2.5h-139v-1573h139q18 0 28.5 -2.5t19.5 -8.5q18 -14 18 -36q0 -24 -18 -37q-8 -5 -18.5 -8t-29.5 -3h-182q-12 0 -25 2t-24 13 t-12.5 24.5t-1.5 24.5z" />
<glyph unicode="\" horiz-adv-x="692" d="M18 1562q-2 12 2 23q5 14 18 23.5t31 9.5q22 0 34.5 -14t20.5 -39l543 -1639q6 -18 7.5 -30t-2.5 -23q-5 -14 -18 -23.5t-30 -9.5q-22 0 -34.5 14t-21.5 40l-542 1638q-6 18 -8 30z" />
<glyph unicode="]" horiz-adv-x="600" d="M90 -104q0 23 19 36q8 5 18 8t29 3h139v1573h-139q-18 0 -28.5 2.5t-18.5 7.5q-18 13 -19 37q0 23 19 36q8 5 18 8t29 3h182q12 0 25 -1.5t24 -13.5q11 -11 12.5 -24t1.5 -25v-1634q0 -11 -1.5 -24.5t-12.5 -24.5t-24 -13t-25 -2h-182q-18 0 -28.5 3t-18.5 8 q-18 13 -19 37z" />
<glyph unicode="^" d="M181 862q0 16 15 45l238 471q9 19 18.5 35.5t19.5 28t23.5 18t30.5 6.5t30.5 -6.5t24 -18t19.5 -27.5t18 -36l239 -471q14 -29 14 -45q0 -20 -14.5 -33t-32.5 -13q-12 0 -22 6q-8 5 -16 14t-17 27l-243 484l-242 -484q-9 -18 -17 -27t-16 -14q-11 -6 -23 -6q-17 0 -32 13 t-15 33z" />
<glyph unicode="_" d="M55 -289q0 20 16 32q12 9 42 9h827q30 0 42 -9q15 -11 15 -32q0 -20 -15 -32q-12 -9 -42 -9h-827q-30 0 -42 9q-15 11 -16 32z" />
<glyph unicode="`" horiz-adv-x="1024" d="M356 1465q0 28 26 44q12 8 28 9q16 0 29 -11q7 -5 14 -13.5t12 -17.5l110 -178q9 -14 14 -24.5t5 -21.5q0 -28 -26 -44q-12 -8 -27 -8q-16 0 -30 10q-7 5 -12.5 13t-13.5 19l-110 177q-18 29 -19 46z" />
<glyph unicode="a" horiz-adv-x="1073" d="M113 272q0 68 24 120.5t68.5 89t107.5 56t141 19.5h324v94q0 62 -14.5 110t-47 80t-83.5 49t-123 17q-45 0 -79.5 -6t-63 -18.5t-54 -32t-52.5 -45.5q-17 -17 -30 -22t-24 -5q-20 0 -33 13q-6 6 -10 13t-4 21q0 44 94 108q52 36 113 51t143 15q187 0 281 -82.5t94 -240.5 v-613q0 -20 -2.5 -30.5t-9.5 -20.5q-13 -20 -42 -20t-41 20q-6 9 -9 20t-3 31v35q-32 -32 -63.5 -52.5t-67.5 -33.5t-77.5 -18.5t-92.5 -5.5q-55 0 -98.5 4.5t-78.5 15t-63 28t-52 42.5q-34 36 -53 86t-19 108zM219 272q0 -98 63.5 -145t194.5 -47q34 0 67 2.5t64 10 t59.5 22.5t55.5 41q55 52 55 188v126h-317q-121 0 -181.5 -50t-60.5 -148z" />
<glyph unicode="b" horiz-adv-x="1110" d="M199 63v1332q0 20 2.5 31t8.5 20q13 20 42 20t42 -20q6 -9 8.5 -20t2.5 -31v-535q32 43 66.5 70t71 42.5t75 21t80.5 5.5q77 0 140 -23.5t102 -62.5q38 -38 62.5 -85t39 -100.5t21 -112.5t6.5 -121t-6.5 -122t-21 -113.5t-39 -100t-62.5 -84.5q-39 -39 -102 -62.5 t-140 -23.5q-42 0 -80.5 5.5t-75 21t-71 42.5t-66.5 70v-64q0 -20 -2.5 -30.5t-8.5 -20.5q-13 -20 -42 -20t-42 20q-6 9 -8.5 20t-2.5 31zM305 494q0 -51 4 -101.5t15 -96.5t30 -85t50 -67.5t75.5 -45t104.5 -16.5q90 0 145 35.5t84.5 93.5t39 132t9.5 151t-9.5 150.5 t-39 132t-84.5 93.5t-145 35q-60 0 -104.5 -16.5t-75.5 -45t-50 -67.5t-30 -85t-15 -96t-4 -101z" />
<glyph unicode="c" horiz-adv-x="1006" d="M141 494q0 118 29.5 211.5t85 159t136 100t182.5 34.5q82 0 143.5 -23.5t115.5 -69.5q29 -25 40.5 -40.5t11.5 -35.5q0 -9 -4.5 -18t-12.5 -15q-14 -12 -32 -13q-14 0 -27.5 9.5t-37.5 29.5q-52 46 -96.5 64t-100.5 18q-83 0 -148.5 -32t-110.5 -97q-18 -27 -31 -56 t-21 -62.5t-11.5 -73.5t-3.5 -90t3.5 -91t11.5 -74.5t21 -62t31 -55.5q45 -65 111 -97t148 -32q55 0 100 18t97 64q24 20 37 29.5t28 9.5q18 0 32 -13q7 -6 12 -15t5 -18q0 -19 -11.5 -35t-40.5 -41q-53 -46 -115 -69.5t-144 -23.5q-102 0 -182.5 34.5t-136 100t-85 159.5 t-29.5 212z" />
<glyph unicode="d" horiz-adv-x="1110" d="M141 494q0 62 6.5 121t21 112.5t39 101t62.5 84.5q39 39 102 62.5t140 23.5q41 0 80 -5.5t76 -21t70.5 -42.5t66.5 -70v535q0 20 2.5 31t8.5 20q13 20 42 20t42 -20q6 -9 8.5 -20t2.5 -31v-1332q0 -20 -2.5 -30.5t-8.5 -20.5q-13 -20 -42 -20t-42 20q-6 9 -8.5 20 t-2.5 31v64q-33 -43 -66.5 -70t-70.5 -42.5t-76 -21t-80 -5.5q-77 0 -140 23.5t-102 62.5q-38 38 -62.5 84.5t-39 100t-21 113t-6.5 122.5zM248 494q0 -51 4 -101.5t15 -96.5t29.5 -85t50 -67.5t75.5 -45t104 -16.5q90 0 145.5 35.5t84.5 93.5t39 132t10 151t-10 150.5 t-39 132t-84.5 93.5t-145.5 35q-60 0 -104 -16.5t-75.5 -45t-50 -67.5t-29.5 -85t-15 -96t-4 -101z" />
<glyph unicode="e" horiz-adv-x="1071" d="M141 494q0 122 28 216t79 158.5t124.5 97.5t166.5 33q92 0 165 -32.5t124.5 -93t78.5 -146.5t27 -192q0 -10 -1.5 -24t-12.5 -26q-11 -11 -24 -12.5t-26 -1.5h-622q0 -188 82 -288.5t239 -100.5q62 0 121 18t107 60q22 19 33.5 27t25.5 8q18 0 32.5 -15t14.5 -33 q0 -16 -11.5 -32.5t-28 -30t-34.5 -25t-30 -18.5q-42 -24 -102 -38.5t-134 -14.5q-206 0 -314 128.5t-108 377.5zM248 559h581q-2 31 -4 54.5t-5.5 44t-9.5 40t-15 42.5q-15 38 -41 69t-59 52.5t-72.5 32.5t-83.5 11q-88 0 -157 -44t-99 -121q-9 -24 -15.5 -43t-10 -39.5 t-6 -44t-3.5 -54.5z" />
<glyph unicode="f" horiz-adv-x="622" d="M84 944q0 22 16 34q8 5 17.5 7t26.5 2h83v213q0 56 15.5 103.5t45 81.5t74.5 53.5t103 19.5h31q20 0 31.5 -2.5t19.5 -7.5q18 -14 18 -37q0 -24 -18 -37q-8 -5 -18.5 -7.5t-28.5 -2.5h-17q-77 0 -113 -43.5t-36 -120.5v-213h171q17 0 26.5 -2t17.5 -7q16 -12 16 -34 t-16 -34q-8 -5 -17.5 -7t-26.5 -2h-171v-838q0 -20 -2.5 -30.5t-8.5 -20.5q-13 -20 -42 -20t-42 20q-6 9 -9 20t-3 31v838h-83q-17 0 -26 2t-18 7q-16 12 -16 34z" />
<glyph unicode="g" horiz-adv-x="1110" d="M141 494q0 62 6.5 121t21 112.5t39 101t62.5 84.5q39 39 102 62.5t140 23.5q41 0 80 -5.5t76 -21t70.5 -42.5t66.5 -70v64q0 20 2.5 31t8.5 20q13 20 42 20t42 -20q6 -9 8.5 -20t2.5 -31v-979q0 -93 -27 -171.5t-79 -135.5t-127.5 -89t-171.5 -32q-66 0 -114.5 10 t-94.5 35q-11 6 -29 16.5t-35.5 24.5t-30 30t-12.5 31q0 25 16 38t32 13q17 0 31 -11.5t34 -29.5q42 -36 91.5 -50.5t111.5 -14.5q78 0 134 26t93 72t54.5 108.5t17.5 135.5v176q-33 -43 -66.5 -70t-70.5 -42.5t-76 -21t-80 -5.5q-77 0 -140 23.5t-102 62.5 q-38 38 -62.5 84.5t-39 100t-21 113t-6.5 122.5zM248 494q0 -51 4 -101.5t15 -96.5t29.5 -85t50 -67.5t75.5 -45t104 -16.5q90 0 145.5 35.5t84.5 93.5t39 132t10 151t-10 150.5t-39 132t-84.5 93.5t-145.5 35q-60 0 -104 -16.5t-75.5 -45t-50 -67.5t-29.5 -85t-15 -96 t-4 -101z" />
<glyph unicode="h" horiz-adv-x="1148" d="M199 63v1332q0 20 2.5 31t8.5 20q13 20 42 20t42 -20q6 -9 8.5 -20t2.5 -31v-525q111 129 291 129q167 0 264 -94q50 -48 76.5 -117t26.5 -157v-568q0 -20 -3 -30.5t-9 -20.5q-13 -20 -42 -20t-42 20q-6 9 -8.5 20t-2.5 31v547q0 143 -69 219t-203 76t-206.5 -76 t-72.5 -219v-547q0 -20 -2.5 -30.5t-8.5 -20.5q-13 -20 -42 -20t-42 20q-6 9 -8.5 20t-2.5 31z" />
<glyph unicode="i" horiz-adv-x="503" d="M176 1395q0 32 22 53.5t54 21.5t54 -22t22 -53q0 -32 -22 -54t-54 -22t-54 22t-22 54zM199 63v861q0 20 2.5 31t8.5 20q13 20 42 20t42 -20q6 -9 8.5 -20t2.5 -31v-861q0 -20 -2.5 -30.5t-8.5 -20.5q-13 -20 -42 -20t-42 20q-6 9 -8.5 20t-2.5 31z" />
<glyph unicode="j" horiz-adv-x="503" d="M-33 -424q0 23 19 37q8 5 18 7.5t29 2.5h16q77 0 113.5 43.5t36.5 120.5v1137q0 20 2.5 31t8.5 20q13 20 42 20t42 -20q6 -9 8.5 -20t2.5 -31v-1137q0 -56 -15.5 -103.5t-45 -81.5t-74 -53.5t-102.5 -19.5h-31q-20 0 -31.5 2.5t-19.5 7.5q-18 13 -19 37zM176 1395 q0 32 22 53.5t54 21.5t54 -22t22 -53q0 -32 -22 -54t-54 -22t-54 22t-22 54z" />
<glyph unicode="k" horiz-adv-x="1043" d="M199 63v1332q0 20 2.5 31t8.5 20q13 20 42 20t42 -20q6 -9 8.5 -20t2.5 -31v-964l471 536q17 20 28 26t25 6q16 0 30 -11q7 -6 12 -14t5 -20q0 -10 -4.5 -20.5t-21.5 -31.5l-249 -282l338 -530q9 -14 13.5 -25t4.5 -21q0 -28 -25 -44q-12 -8 -28 -8q-17 0 -29 10t-26 32 l-322 508l-222 -252v-227q0 -20 -2.5 -30.5t-8.5 -20.5q-13 -20 -42 -20t-42 20q-6 9 -8.5 20t-2.5 31z" />
<glyph unicode="l" horiz-adv-x="587" d="M195 258v1137q0 20 2.5 31t8.5 20q13 20 42 20t42 -20q6 -9 8.5 -20t2.5 -31v-1137q0 -77 36.5 -120.5t113.5 -43.5h16q18 0 28.5 -2.5t18.5 -7.5q18 -14 18 -37q0 -24 -18 -37q-8 -5 -19.5 -7.5t-31.5 -2.5h-31q-58 0 -102.5 19.5t-74.5 54t-45 81.5t-15 103z" />
<glyph unicode="m" horiz-adv-x="1804" d="M199 63v861q0 20 2.5 31t8.5 20q13 20 42 20t42 -20q6 -9 8.5 -20t2.5 -31v-54q54 63 128 96t164 33q110 0 191 -46t126 -134q55 88 141 134t195 46q82 0 149.5 -24.5t113.5 -69.5q49 -48 77 -117t28 -157v-568q0 -20 -2.5 -30.5t-8.5 -20.5q-13 -20 -42 -20t-42 20 q-6 9 -9 20t-3 31v547q0 143 -70 219t-203 76q-63 0 -114.5 -19.5t-87.5 -55.5t-55 -87.5t-19 -113.5v-566q0 -20 -3 -30.5t-9 -20.5q-13 -20 -42 -20t-42 20q-6 9 -8.5 20t-2.5 31v547q0 143 -69.5 219t-202.5 76t-205.5 -77t-72.5 -218v-547q0 -20 -2.5 -30.5t-8.5 -20.5 q-13 -20 -42 -20t-42 20q-6 9 -8.5 20t-2.5 31z" />
<glyph unicode="n" horiz-adv-x="1148" d="M199 63v861q0 20 2.5 31t8.5 20q13 20 42 20t42 -20q6 -9 8.5 -20t2.5 -31v-54q111 129 291 129q167 0 264 -94q50 -48 76.5 -117t26.5 -157v-568q0 -20 -3 -30.5t-9 -20.5q-13 -20 -42 -20t-42 20q-6 9 -8.5 20t-2.5 31v547q0 143 -69 219t-203 76t-206.5 -76 t-72.5 -219v-547q0 -20 -2.5 -30.5t-8.5 -20.5q-13 -20 -42 -20t-42 20q-6 9 -8.5 20t-2.5 31z" />
<glyph unicode="o" horiz-adv-x="1081" d="M141 494q0 53 5 106t18 104.5t37.5 99t64.5 87.5q52 52 122 80t153 28t152.5 -28t121.5 -80q40 -40 64.5 -87.5t38 -99t18 -104.5t4.5 -106t-4.5 -106.5t-18 -105t-38 -99t-64.5 -87.5q-52 -52 -121.5 -80t-152.5 -28t-153 28t-122 80q-40 40 -64.5 87.5t-37.5 99 t-18 104.5t-5 107zM248 494q0 -44 3 -90.5t12.5 -89.5t27 -81.5t47.5 -67.5q42 -42 91.5 -62.5t111.5 -20.5q61 0 110.5 20.5t91.5 62.5q29 29 47 67.5t27.5 81.5t13 89.5t3.5 90.5t-3.5 90t-13 89t-27.5 81.5t-47 67.5q-42 42 -91.5 62.5t-110.5 20.5t-111 -20.5t-92 -62.5 q-30 -30 -47.5 -68t-27 -81t-12.5 -89t-3 -90z" />
<glyph unicode="p" horiz-adv-x="1110" d="M199 -408v1332q0 20 2.5 31t8.5 20q13 20 42 20t42 -20q6 -9 8.5 -20t2.5 -31v-64q32 43 66.5 70t71 42.5t75 21t80.5 5.5q77 0 140 -23.5t102 -62.5q38 -38 62.5 -85t39 -100.5t21 -112.5t6.5 -121t-6.5 -122t-21 -113.5t-39 -100t-62.5 -84.5q-39 -39 -102 -62.5 t-140 -23.5q-42 0 -80.5 5.5t-75 21t-71 42.5t-66.5 70v-535q0 -20 -2.5 -31t-8.5 -20q-13 -20 -42 -20t-42 20q-6 9 -8.5 20t-2.5 31zM305 494q0 -51 4 -101.5t15 -96.5t30 -85t50 -67.5t75.5 -45t104.5 -16.5q90 0 145 35.5t84.5 93.5t39 132t9.5 151t-9.5 150.5t-39 132 t-84.5 93.5t-145 35q-60 0 -104.5 -16.5t-75.5 -45t-50 -67.5t-30 -85t-15 -96t-4 -101z" />
<glyph unicode="q" horiz-adv-x="1110" d="M141 494q0 62 6.5 121t21 112.5t39 101t62.5 84.5q39 39 102 62.5t140 23.5q41 0 80 -5.5t76 -21t70.5 -42.5t66.5 -70v64q0 20 2.5 31t8.5 20q13 20 42 20t42 -20q6 -9 8.5 -20t2.5 -31v-1332q0 -20 -2.5 -31t-8.5 -20q-13 -20 -42 -20t-42 20q-6 9 -8.5 20t-2.5 31v535 q-33 -43 -66.5 -70t-70.5 -42.5t-76 -21t-80 -5.5q-77 0 -140 23.5t-102 62.5q-38 38 -62.5 84.5t-39 100t-21 113t-6.5 122.5zM248 494q0 -51 4 -101.5t15 -96.5t29.5 -85t50 -67.5t75.5 -45t104 -16.5q90 0 145.5 35.5t84.5 93.5t39 132t10 151t-10 150.5t-39 132 t-84.5 93.5t-145.5 35q-60 0 -104 -16.5t-75.5 -45t-50 -67.5t-29.5 -85t-15 -96t-4 -101z" />
<glyph unicode="r" horiz-adv-x="837" d="M199 63v861q0 20 2.5 31t8.5 20q13 20 42 20t42 -20q6 -9 8.5 -20t2.5 -31v-68q22 35 53 61.5t69 45t80 27.5t85 9q51 0 94 -10t86 -37q20 -12 35.5 -27t15.5 -36q0 -20 -14 -35q-16 -16 -37 -16q-11 0 -23.5 5.5t-39.5 22.5q-30 18 -64.5 28.5t-71.5 10.5 q-67 0 -116.5 -24t-83.5 -65.5t-51 -95.5t-17 -114v-543q0 -20 -2.5 -30.5t-8.5 -20.5q-13 -20 -42 -20t-42 20q-6 9 -8.5 20t-2.5 31z" />
<glyph unicode="s" horiz-adv-x="1011" d="M113 141q0 20 16 37q12 12 33 12q12 0 25 -6t34 -22q55 -42 122 -61t155 -19q145 0 221 49t76 150q0 77 -46.5 116.5t-142.5 47.5l-164 15q-297 27 -297 259q0 63 25.5 115t71.5 88.5t111.5 56.5t146.5 20q87 0 156.5 -17.5t127.5 -49.5q17 -9 24.5 -16t12.5 -15t5.5 -13 t0.5 -11q0 -11 -10 -25q-15 -18 -37 -18q-11 0 -21 4t-28 14q-51 28 -107.5 41.5t-123.5 13.5q-122 0 -187 -48.5t-65 -139.5q0 -77 48 -116.5t153 -48.5l159 -14q61 -5 114 -19.5t92 -44t61 -77t22 -118.5q0 -68 -27.5 -122.5t-79.5 -92t-125 -58t-163 -20.5 q-113 0 -196 24.5t-150 71.5q-19 13 -31 27t-12 30z" />
<glyph unicode="t" horiz-adv-x="665" d="M78 944q0 22 16 34q8 5 17.5 7t26.5 2h83v252q0 20 2.5 31t8.5 20q13 20 42 21q29 0 42 -21q6 -9 9 -19.5t3 -31.5v-252h171q17 0 26.5 -2t17.5 -7q16 -12 16 -34t-16 -34q-8 -5 -17.5 -7t-26.5 -2h-171v-643q0 -77 36 -120.5t113 -43.5h17q18 0 28 -2.5t19 -7.5 q18 -14 18 -37q0 -24 -18 -37q-8 -5 -19.5 -7.5t-32.5 -2.5h-30q-58 0 -103 19.5t-74.5 54t-45 81.5t-15.5 103v643h-83q-17 0 -26.5 2t-17.5 7q-16 12 -16 34z" />
<glyph unicode="u" horiz-adv-x="1148" d="M186 356v568q0 20 2.5 31t9.5 20q13 20 42 20t42 -20q6 -9 8.5 -20t2.5 -31v-547q0 -143 69 -219t203 -76t206.5 76t72.5 219v547q0 20 2.5 31t8.5 20q13 20 42 20t42 -20q6 -9 8.5 -20t2.5 -31v-861q0 -20 -2.5 -30.5t-8.5 -20.5q-13 -20 -42 -20t-42 20q-6 9 -8.5 20 t-2.5 31v54q-111 -129 -291 -129q-167 0 -264 94q-50 48 -76.5 117t-26.5 157z" />
<glyph unicode="v" horiz-adv-x="880" d="M64 939q-1 3 -1 7q0 9 4 17q5 14 17.5 23t30.5 9q22 0 34.5 -13.5t20.5 -39.5l270 -812l271 812q8 26 20.5 39.5t34.5 13.5q17 0 30 -9t18 -23q3 -8 3 -17q-1 -3 -1 -6q-2 -12 -7 -31l-294 -846q-7 -20 -14.5 -34.5t-20.5 -23.5q-16 -13 -40 -13t-40 13q-12 9 -19.5 23.5 t-14.5 34.5l-294 846q-6 18 -8 30z" />
<glyph unicode="w" horiz-adv-x="1458" d="M79 945q0 9 3 19q5 13 18.5 22t30.5 9q20 0 35 -14q10 -10 19 -42l233 -809l226 768q8 30 17.5 50.5t23.5 31.5q18 15 44 15t44 -15q14 -11 23.5 -31.5t17.5 -50.5l226 -768l233 809q9 32 19 42q14 14 35 14q17 0 30.5 -9t18.5 -22q3 -9 3 -18v-4q-1 -12 -6 -32 l-248 -821q-8 -30 -17 -50.5t-24 -31.5q-18 -15 -44 -15t-44 15q-14 11 -23 31.5t-18 50.5l-226 753l-226 -753q-8 -30 -17.5 -50.5t-23.5 -31.5q-18 -15 -44 -15t-44 15q-14 11 -23.5 31.5t-17.5 50.5l-248 821q-6 23 -6 35z" />
<glyph unicode="x" horiz-adv-x="884" d="M98 44q0 10 5 21t14 25l255 404l-254 403q-18 29 -19 46q0 28 26 44q12 8 28 8q17 0 29.5 -10t25.5 -32l234 -386l235 386q13 22 25.5 32t29.5 10q15 0 28 -8q26 -16 25 -44q0 -17 -18 -46l-254 -403l255 -404q9 -14 13.5 -25t4.5 -21q0 -28 -25 -44q-12 -8 -28 -8 q-17 0 -29.5 10t-25.5 32l-236 385l-235 -385q-13 -22 -25.5 -32t-29.5 -10q-15 0 -28 8q-26 16 -26 44z" />
<glyph unicode="y" horiz-adv-x="880" d="M64 939q-1 3 -1 7q0 8 4 17q5 14 17.5 23t30.5 9q22 0 34.5 -13.5t20.5 -39.5l270 -812l271 812q8 26 20.5 39.5t34.5 13.5q17 0 30 -9t18 -23q3 -8 3 -17q0 -3 -1 -6q-1 -12 -7 -31l-409 -1177q-11 -34 -27.5 -64t-39.5 -52q-38 -35 -81.5 -48.5t-92.5 -13.5 q-20 0 -31 2.5t-18 7.5q-9 6 -14 14t-5 23q0 11 4.5 20.5t14.5 16.5q6 5 15.5 7.5t27.5 2.5q61 0 100 28.5t64 104.5l73 219l-318 909q-6 18 -8 30z" />
<glyph unicode="z" horiz-adv-x="919" d="M102 51q0 14 5.5 26.5t16.5 26.5l560 789h-489q-18 0 -28.5 2.5t-19.5 7.5q-18 13 -18 37q0 23 18 37q8 5 18.5 7.5t29.5 2.5h546q15 0 29.5 -2t24.5 -10q18 -15 18 -39q0 -14 -5 -26.5t-16 -26.5l-561 -789h521q18 0 28.5 -2.5t18.5 -7.5q18 -14 18 -37q0 -24 -18 -37 q-8 -5 -18.5 -7.5t-28.5 -2.5h-578q-15 0 -29.5 2t-23.5 10q-18 15 -19 39z" />
<glyph unicode="{" horiz-adv-x="647" d="M98 729q0 20 13 33q8 8 18 10.5t23 3.5q20 2 40 12t35 25q37 37 37 123v424q0 41 3 71t9.5 52.5t16.5 39.5t24 31q30 30 69.5 42t94.5 12h4q33 0 50 -9q20 -10 20 -36q0 -25 -18 -37q-8 -5 -23.5 -7.5t-28.5 -2.5q-19 0 -32.5 -1.5t-22.5 -4.5t-16 -7.5t-15 -11.5 q-16 -16 -22 -46t-6 -87v-424q0 -80 -30.5 -126.5t-94.5 -78.5q32 -16 55.5 -35t38.5 -43.5t23 -55.5t8 -71v-422q0 -57 6 -86.5t22 -46.5q7 -7 14.5 -11.5t16.5 -7.5t22.5 -4t32.5 -1q12 0 27.5 -2.5t24.5 -8.5q18 -12 18 -36q0 -27 -20 -37q-16 -8 -50 -8h-4 q-55 0 -94.5 11.5t-69.5 41.5q-14 14 -24 31t-16.5 39.5t-9.5 52t-3 71.5v422q0 86 -37 123q-15 15 -35 25t-40 12q-12 1 -22.5 3.5t-18.5 10.5q-12 12 -13 33z" />
<glyph unicode="|" horiz-adv-x="649" d="M272 -88v1634q0 20 3 31t9 20q13 20 42 21q29 0 42 -21q6 -9 8.5 -19.5t2.5 -31.5v-1634q0 -20 -2.5 -31t-8.5 -20q-13 -20 -42 -21q-29 0 -42 21q-6 9 -9 19.5t-3 31.5z" />
<glyph unicode="}" horiz-adv-x="647" d="M92 -102q0 25 19 36q8 5 23.5 8t27.5 3q19 0 32.5 1t22.5 4t16.5 7.5t14.5 11.5q16 16 22 46t6 87v422q0 40 7.5 71t23 55.5t39 43.5t55.5 35q-65 32 -95 78.5t-30 126.5v424q0 57 -6 87t-22 46q-7 7 -14.5 11.5t-16.5 7.5t-22.5 4.5t-32.5 1.5q-12 0 -27.5 2.5 t-23.5 7.5q-18 12 -19 37q0 27 21 36q16 8 49 9h4q55 0 94.5 -12t69.5 -42q14 -14 24.5 -31t16.5 -39.5t9 -52.5t3 -71v-424q0 -86 37 -123q15 -15 35 -25t41 -12q12 -1 22 -3.5t19 -10.5q12 -12 12 -33q0 -20 -12 -33q-8 -8 -18.5 -10.5t-22.5 -3.5q-20 -2 -40.5 -12 t-35.5 -25q-37 -37 -37 -123v-422q0 -42 -3 -71.5t-9 -52t-16.5 -39.5t-24.5 -31q-30 -30 -69.5 -41.5t-94.5 -11.5h-4q-33 0 -49 8q-20 10 -21 37z" />
<glyph unicode="~" d="M117 504q0 12 6 24.5t24 30.5q28 28 52.5 45.5t48.5 27t48.5 13.5t49.5 4q51 0 102.5 -20t106.5 -43q43 -18 79.5 -32.5t76.5 -14.5q19 0 36 2.5t32.5 9.5t31.5 19.5t37 31.5q25 25 47 25q16 0 29 -13q12 -12 12 -28q0 -12 -6.5 -25t-24.5 -31q-54 -54 -101 -72t-97 -18 q-51 0 -102.5 20t-106.5 44q-43 18 -79.5 32.5t-76.5 14.5q-20 0 -36.5 -2.5t-32 -10t-32.5 -19.5t-36 -32q-25 -25 -47 -24q-16 0 -29 12q-12 12 -12 29z" />
<glyph unicode="&#xa1;" horiz-adv-x="622" d="M201 911q0 34 24 58t58 24t58 -24t24 -58t-24.5 -58t-57.5 -24q-34 0 -58 24.5t-24 57.5zM227 -402v927q0 24 2.5 34.5t10.5 22.5q14 20 43 20t43 -20q7 -11 9.5 -22t2.5 -35v-927q0 -24 -2.5 -34.5t-9.5 -22.5q-14 -20 -43 -20t-43 20q-7 11 -10 22t-3 35z" />
<glyph unicode="&#xa2;" horiz-adv-x="1006" d="M141 750q0 108 24.5 195t72 151.5t116 104t155.5 50.5v150q0 18 2.5 28.5t7.5 18.5q13 18 37 18q23 0 37 -18q5 -8 7.5 -18.5t2.5 -28.5v-147q71 -4 125.5 -27t104.5 -65q29 -25 40.5 -40.5t11.5 -35.5q0 -9 -4.5 -18t-12.5 -15q-14 -12 -32 -13q-14 0 -27.5 9.5 t-37.5 29.5q-46 40 -84.5 58.5t-83.5 22.5v-821q45 4 83.5 22.5t84.5 58.5q24 20 37 29.5t28 9.5q18 0 32 -13q7 -6 12 -15t5 -18q0 -19 -11.5 -35t-40.5 -41q-49 -43 -104 -65.5t-126 -26.5v-188q0 -18 -2.5 -28.5t-7.5 -18.5q-14 -18 -37 -18q-24 0 -37 18q-5 8 -7.5 18.5 t-2.5 28.5v191q-87 10 -155.5 49.5t-116 104t-72 152.5t-24.5 196zM248 750q0 -50 3.5 -91t11.5 -74.5t21 -62t31 -55.5q70 -102 194 -124v812q-123 -22 -194 -123q-18 -27 -31 -56t-21 -62.5t-11.5 -73.5t-3.5 -90z" />
<glyph unicode="&#xa3;" horiz-adv-x="1099" d="M94 737q0 20 16 32q12 9 42 9h81v250q0 99 31 181t88 140t136.5 89.5t179.5 31.5q74 0 145.5 -19.5t124.5 -64.5q18 -15 26.5 -27t8.5 -28q0 -17 -12 -33q-6 -8 -16 -13t-21 -5q-15 0 -29 8.5t-26 18.5q-42 33 -89.5 49t-111.5 16q-158 0 -241 -95t-83 -271v-228h274 q30 0 42 -9q15 -11 16 -32q0 -20 -16 -31q-12 -9 -42 -10h-274v-598h584q36 0 49 -10q18 -15 18 -39t-18 -39q-13 -10 -49 -10h-629q-12 0 -25.5 2t-24.5 13t-13.5 24.5t-2.5 26.5v630h-81q-30 0 -42 10q-15 11 -16 31z" />
<glyph unicode="&#xa4;" horiz-adv-x="1345" d="M182 109q2 9 8 18t21 25l112 111q-46 57 -71 128.5t-25 151.5t24.5 151t71.5 128l-112 112q-15 15 -21 24.5t-8 18.5q-3 25 14 41q17 17 42 14q9 -2 18 -7.5t25 -20.5l111 -112q57 48 128.5 71.5t151.5 23.5t151 -23.5t128 -71.5l112 112q15 15 24.5 20.5t18.5 7.5 q25 3 42 -14q16 -16 13 -41q-2 -9 -7.5 -18.5t-20.5 -24.5l-112 -112q46 -57 70.5 -128t24.5 -151t-24.5 -151t-70.5 -129l112 -111q15 -15 20.5 -24.5t7.5 -18.5q3 -25 -13 -41q-17 -17 -42 -15q-9 2 -18.5 8t-24.5 21l-112 112q-57 -48 -128 -72t-151 -24t-151 23.5 t-129 72.5l-111 -112q-15 -15 -24.5 -21t-18.5 -8q-25 -3 -42 15q-16 16 -14 41zM326 543q0 -73 27 -136t73.5 -109.5t109.5 -73.5t136 -27q72 0 135 27t110 73.5t74 109.5t27 136q0 72 -27 135t-74 110t-110.5 74t-134.5 27q-73 0 -136 -27t-109.5 -74t-73.5 -110.5 t-27 -134.5z" />
<glyph unicode="&#xa5;" horiz-adv-x="1011" d="M50 1423q2 11 9.5 21t19.5 16t24 6t22 -5q10 -6 17.5 -15t16.5 -28l347 -694l347 694q9 18 16.5 27.5t17.5 15.5q9 5 21 5t25 -6q12 -6 19 -15.5t10 -21.5q2 -11 -2 -22t-13 -30l-291 -580h171q30 0 42 -10q15 -11 16 -31q0 -20 -16 -32q-12 -9 -42 -9h-212l-54 -110 v-103h266q30 0 42 -10q15 -11 16 -31q0 -20 -16 -32q-12 -9 -42 -9h-266v-345q0 -24 -2.5 -34.5t-9.5 -22.5q-14 -20 -43 -20t-43 20q-7 11 -9.5 22t-2.5 35v345h-269q-30 0 -42 9q-15 11 -15 32q0 20 15 31q12 9 42 10h269v103l-56 110h-213q-30 0 -42 9q-15 11 -15 32 q0 20 15 31q12 9 42 10h172l-289 580q-9 18 -13 29.5t-2 22.5z" />
<glyph unicode="&#xa6;" horiz-adv-x="671" d="M272 -88v590q0 20 3 31t9 20q13 20 42 20t42 -20q6 -9 8.5 -20t2.5 -31v-590q0 -20 -2.5 -31t-8.5 -20q-13 -20 -42 -21q-29 0 -42 21q-6 9 -9 19.5t-3 31.5zM272 956v590q0 20 3 31t9 20q13 20 42 21q29 0 42 -21q6 -9 8.5 -19.5t2.5 -31.5v-590q0 -20 -2.5 -31 t-8.5 -20q-13 -20 -42 -20t-42 20q-6 9 -9 20t-3 31z" />
<glyph unicode="&#xa7;" horiz-adv-x="1159" d="M199 506q0 66 18.5 120.5t49 98t71.5 76.5t86 53q-48 20 -85.5 47t-63.5 62t-40 79t-14 101q0 77 28.5 137.5t77.5 102.5t114 64.5t139 22.5q119 0 203 -42.5t124 -120.5q14 -29 23.5 -59t9.5 -60q0 -15 -4 -26t-10 -19q-13 -16 -39 -17q-27 0 -41 21q-5 6 -8 15t-7 30 q-15 98 -77.5 140t-173.5 42q-114 0 -182 -57t-68 -174q0 -47 14 -83t39 -62.5t59 -44.5t74 -29l170 -47q66 -18 116.5 -54t86 -84t54 -108t18.5 -125q0 -66 -18.5 -120.5t-49.5 -98t-72 -76.5t-86 -53q47 -16 86 -44.5t66.5 -67t43 -86t15.5 -101.5q0 -75 -27 -137.5 t-75.5 -108t-116 -71t-147.5 -25.5q-124 0 -211.5 44.5t-127.5 123.5q-14 29 -23 58.5t-9 58.5q0 32 16 48q14 14 37 15q22 0 36 -15q9 -9 13 -22t6 -29q15 -97 83.5 -140.5t179.5 -43.5q58 0 105 16t81 46.5t52 76t18 105.5q0 82 -52.5 143t-140.5 86l-170 47 q-66 18 -116.5 53.5t-85.5 84t-53.5 107.5t-18.5 126zM309 506q0 -65 15 -114t57 -93q78 -84 199 -84t198 84q41 44 56.5 93t15.5 114t-15.5 113.5t-56.5 93.5q-78 84 -198 84q-121 0 -199 -84q-20 -23 -34 -46t-22.5 -48t-12 -53t-3.5 -60z" />
<glyph unicode="&#xa8;" horiz-adv-x="1024" d="M252 1305q0 32 22 53.5t54 21.5t53.5 -22t21.5 -53q0 -32 -21.5 -54t-53.5 -22t-54 22t-22 54zM678 1305q0 32 22 53.5t54 21.5t53.5 -22t21.5 -53q0 -32 -21.5 -54t-53.5 -22t-54 22t-22 54z" />
<glyph unicode="&#xa9;" horiz-adv-x="1830" d="M174 729q0 102 26.5 197t75 177.5t116 150t150 115.5t177 74.5t196.5 26.5t197 -26.5t177.5 -74.5t150 -115.5t116 -150t75 -177.5t26.5 -197t-26.5 -197t-75 -177.5t-116 -150t-150 -115.5t-177 -74.5t-197.5 -26.5q-102 0 -196.5 26.5t-177 74.5t-150 115.5t-116 150 t-75 177.5t-26.5 197zM260 729q0 -90 23.5 -174t66.5 -157.5t103 -134.5t132.5 -105t156 -68t173.5 -24t173.5 24t156.5 68t133 105t103 134.5t66.5 157.5t23.5 174t-23.5 174t-66.5 158t-103 134.5t-133 105t-156 68.5t-174 24q-90 0 -173.5 -24t-156 -68.5t-132.5 -105 t-103 -134.5t-66.5 -158t-23.5 -174zM611 729q0 76 18.5 142.5t57 116.5t99 79t143.5 29q59 0 105 -16.5t84 -49.5q20 -18 28.5 -30t8.5 -26t-9 -24q-11 -11 -26 -11q-11 0 -22.5 6.5t-28.5 22.5q-19 16 -36 27t-33.5 17t-34 8.5t-36.5 2.5q-69 0 -114 -24t-72 -64.5 t-38.5 -94t-11.5 -111.5t11.5 -111.5t38.5 -94t72 -64.5t114 -24q19 0 36.5 2t34 8.5t33.5 17t36 27.5q17 15 28.5 22t22.5 7q14 0 26 -11q9 -9 9 -24q0 -14 -8 -26t-29 -30q-38 -33 -84 -49.5t-105 -16.5q-83 0 -143.5 29t-99 79t-57 116.5t-18.5 142.5z" />
<glyph unicode="&#xaa;" horiz-adv-x="917" d="M119 885q0 109 73 168t201 59h248v86q0 92 -49 139t-166 47q-35 0 -62.5 -5.5t-51 -17t-44 -29t-41.5 -41.5q-9 -11 -18.5 -14.5t-19.5 -3.5q-16 0 -27 11q-5 5 -8 12t-3 19q0 18 18 41t57 53t87.5 42.5t112.5 12.5q155 0 230 -67t75 -191v-482q0 -17 -2 -27.5t-7 -16.5 q-14 -18 -36 -18q-23 0 -36 18q-5 6 -7 16.5t-2 27.5v21q-25 -25 -49.5 -41t-52 -26t-60 -14.5t-71.5 -4.5q-86 0 -139.5 16t-91.5 56q-28 28 -43 68.5t-15 85.5zM209 887q0 -76 46.5 -112t152.5 -36q68 0 113 13t80 48q24 24 32 58t8 86v96h-238q-100 0 -147 -38.5 t-47 -114.5z" />
<glyph unicode="&#xab;" horiz-adv-x="1123" d="M85 509l352 352q15 15 24.5 21t18.5 8q25 3 42 -14q16 -16 14 -41q-2 -9 -8 -18.5t-21 -24.5l-283 -283l283 -283q15 -15 21 -24t8 -19q3 -25 -14 -41q-17 -17 -42 -14q-9 2 -18 7.5t-25 21.5zM512 509l352 352q15 15 24.5 21t18.5 8q25 3 42 -14q16 -16 14 -41 q-2 -9 -8 -18.5t-21 -24.5l-283 -283l283 -283q15 -15 21 -24t8 -19q3 -25 -14 -41q-17 -17 -42 -14q-9 2 -18 7.5t-25 21.5z" />
<glyph unicode="&#xac;" d="M100 539q0 23 19 36q8 5 18 8t29 3h713q12 0 24.5 -1.5t24.5 -13.5q11 -11 12.5 -23.5t1.5 -25.5v-246q0 -18 -2.5 -28t-7.5 -19q-14 -18 -37 -18q-24 0 -37 18q-5 8 -7.5 18.5t-2.5 28.5v216h-682q-18 0 -28.5 2.5t-18.5 7.5q-18 13 -19 37z" />
<glyph unicode="&#xad;" horiz-adv-x="872" d="M160 541q0 23 18 37q8 5 18.5 7.5t28.5 2.5h422q18 0 28.5 -2.5t18.5 -7.5q18 -14 19 -37q0 -24 -19 -37q-8 -5 -18 -7.5t-29 -2.5h-422q-18 0 -28.5 2.5t-18.5 7.5q-18 13 -18 37z" />
<glyph unicode="&#xae;" horiz-adv-x="1830" d="M174 729q0 102 26.5 197t75 177.5t116 150t150 115.5t177 74.5t196.5 26.5t197 -26.5t177.5 -74.5t150 -115.5t116 -150t75 -177.5t26.5 -197t-26.5 -197t-75 -177.5t-116 -150t-150 -115.5t-177 -74.5t-197.5 -26.5q-102 0 -196.5 26.5t-177 74.5t-150 115.5t-116 150 t-75 177.5t-26.5 197zM260 729q0 -90 23.5 -174t66.5 -157.5t103 -134.5t132.5 -105t156 -68t173.5 -24t173.5 24t156.5 68t133 105t103 134.5t66.5 157.5t23.5 174t-23.5 174t-66.5 158t-103 134.5t-133 105t-156 68.5t-174 24q-90 0 -173.5 -24t-156 -68.5t-132.5 -105 t-103 -134.5t-66.5 -158t-23.5 -174zM714 423v614q0 11 1.5 21t9.5 19q9 8 19.5 10t20.5 2h178q44 0 84 -15t70.5 -42.5t48.5 -66.5t18 -86q0 -82 -45 -131.5t-117 -68.5l140 -237q8 -14 11 -22.5t3 -17.5t-5.5 -17t-13.5 -13q-11 -6 -22 -6q-12 0 -22 7.5t-21 27.5 l-159 271h-117v-249q0 -30 -10 -42q-11 -15 -31 -15t-32 15q-9 12 -9 42zM796 744h137q65 0 107 36t42 99q0 32 -11 57t-31 42t-47.5 26.5t-59.5 9.5h-137v-270z" />
<glyph unicode="&#xaf;" horiz-adv-x="1024" d="M241 1296q0 23 18 37q8 5 18.5 7.5t28.5 2.5h469q18 0 28.5 -2.5t18.5 -7.5q18 -14 19 -37q0 -24 -19 -36q-8 -5 -18 -8t-29 -3h-469q-18 0 -28.5 2.5t-18.5 8.5q-18 13 -18 36z" />
<glyph unicode="&#xb0;" horiz-adv-x="937" d="M147 1151q0 67 25.5 125.5t69 102t102 69t125.5 25.5t125.5 -25.5t102 -69t69 -102t25.5 -125.5t-25.5 -125.5t-69 -102t-102 -69t-125.5 -25.5t-125.5 25.5t-102 69t-69 102t-25.5 125.5zM240 1151q0 -51 17 -94t48 -74.5t73 -49.5t91 -18t91 18t73 49.5t48 74.5t17 94 q0 50 -17 93.5t-48 75t-73 49t-91 17.5t-91 -17.5t-73 -49t-48 -75t-17 -93.5z" />
<glyph unicode="&#xb1;" d="M100 47q0 23 19 37q8 5 18 7.5t29 2.5h721q18 0 28.5 -2.5t18.5 -7.5q18 -14 18 -37q0 -24 -18 -37q-8 -5 -18.5 -7.5t-28.5 -2.5h-721q-18 0 -28.5 2.5t-18.5 7.5q-18 13 -19 37zM100 602q0 23 19 37q8 5 18 7.5t29 2.5h313v314q0 18 2.5 28t7.5 19q13 18 37 18 q23 0 37 -18q5 -8 7.5 -18.5t2.5 -28.5v-314h314q18 0 28.5 -2.5t18.5 -7.5q18 -14 18 -37q0 -24 -18 -37q-8 -5 -18.5 -7.5t-28.5 -2.5h-314v-313q0 -18 -2.5 -28.5t-7.5 -18.5q-14 -18 -37 -19q-24 0 -37 19q-5 8 -7.5 18t-2.5 29v313h-313q-18 0 -28.5 2.5t-18.5 7.5 q-18 13 -19 37z" />
<glyph unicode="&#xb2;" horiz-adv-x="641" d="M82 625q0 11 6 22t20 28l323 431q24 31 35 60t11 64q0 71 -39.5 113t-110.5 42q-25 0 -48.5 -7t-43 -20.5t-34 -34.5t-19.5 -50q-2 -11 -5 -23.5t-9 -21.5q-5 -8 -13.5 -12.5t-21.5 -4.5q-23 0 -34 16q-5 6 -6.5 14t-1.5 16q0 23 8.5 49t18.5 46q27 53 80.5 84t128.5 31 q54 0 98.5 -17t75.5 -48t48.5 -75t17.5 -97q0 -49 -15 -88.5t-48 -82.5l-300 -393h320q30 0 42 -9q15 -11 16 -32q0 -20 -16 -32q-12 -9 -42 -9h-376q-20 0 -32.5 1.5t-23.5 12.5q-10 12 -10 27z" />
<glyph unicode="&#xb3;" horiz-adv-x="641" d="M72 777q0 32 13 45q12 12 29 12q18 0 30 -12q6 -6 10 -14t6 -25q4 -32 17.5 -55.5t35 -39t49.5 -23t60 -7.5q35 0 65 11.5t52.5 33t35 53t12.5 70.5q0 77 -42 121.5t-130 44.5q-8 0 -16.5 2.5t-13.5 7.5q-12 12 -13 29q0 17 13 30q10 10 30 10q77 0 116.5 41.5 t39.5 114.5q0 38 -12.5 67.5t-33.5 49.5t-48.5 30.5t-57.5 10.5q-53 0 -87.5 -19t-51.5 -61q-4 -10 -6.5 -22t-5.5 -29q-4 -22 -16.5 -29.5t-26.5 -7.5q-22 0 -32.5 15t-10.5 38q0 24 9 50.5t21 43.5q35 54 84 78.5t123 24.5q54 0 99 -17t76.5 -48t49 -75t17.5 -98 q0 -140 -117 -192q133 -49 134 -211q0 -60 -20 -107t-54.5 -78.5t-81.5 -48t-100 -16.5q-76 0 -131.5 27t-85.5 69q-14 20 -23.5 49t-9.5 56z" />
<glyph unicode="&#xb4;" horiz-adv-x="1024" d="M487 1257q0 10 5 21t14 26l110 177q5 9 12 17.5t14 13.5q13 10 30 11q15 0 27 -9q26 -16 26 -44q0 -17 -18 -46l-111 -177q-7 -11 -12.5 -18.5t-13.5 -13.5q-13 -10 -29 -10q-15 0 -28 8q-26 16 -26 44z" />
<glyph unicode="&#xb5;" horiz-adv-x="1161" d="M199 -408v1332q0 20 2.5 31t8.5 20q13 20 42 20t42 -20q6 -9 8.5 -20t2.5 -31v-547q0 -143 69 -219t204 -76q134 0 206 76t72 219v547q0 20 2.5 31t8.5 20q13 20 42 20t42 -20q6 -9 9 -20t3 -31v-861q0 -20 -3 -30.5t-9 -20.5q-13 -20 -42 -20t-42 20q-6 9 -8.5 20 t-2.5 31v54q-111 -129 -291 -129q-81 0 -147 23t-113 67v-486q0 -24 -3.5 -34.5t-8.5 -18.5q-6 -9 -17.5 -13.5t-23.5 -4.5q-26 0 -41 18q-6 8 -9 19t-3 34z" />
<glyph unicode="&#xb6;" horiz-adv-x="1185" d="M92 1069q0 75 28 145.5t83 124.5t135.5 86.5t185.5 32.5h375q12 0 25 -1.5t24 -12.5t13 -24t2 -25v-1803q0 -20 -3 -31t-9 -20q-13 -20 -42 -20t-42 20q-6 9 -8.5 20t-2.5 31v1768h-250v-1768q0 -20 -2.5 -31t-8.5 -20q-13 -20 -42 -20t-42 20q-6 9 -8.5 20t-2.5 31v1088 q-97 0 -173 34t-128.5 88.5t-79.5 124t-27 142.5z" />
<glyph unicode="&#xb7;" horiz-adv-x="612" d="M212 541q0 19 7 36.5t20 30.5t30.5 20t36.5 7t36.5 -7t30.5 -20t20 -30.5t7 -36.5t-7 -37t-20 -30.5t-30.5 -20t-36.5 -7.5t-36.5 7.5t-30.5 20t-20 30t-7 37.5z" />
<glyph unicode="&#xb8;" horiz-adv-x="1081" d="M345 -400q0 10 4.5 20.5t14.5 25.5l110 177q5 9 12 17.5t14 14.5q13 10 29 10q15 0 28 -8q26 -16 26 -44q0 -17 -19 -46l-110 -178q-7 -11 -13 -18.5t-13 -12.5q-13 -10 -30 -11q-15 0 -27 9q-26 16 -26 44z" />
<glyph unicode="&#xb9;" horiz-adv-x="641" d="M132 1268q2 9 7 17t17 19l131 131q14 14 30 23t33 9q10 0 20 -2.5t18 -12.5q13 -16 13 -46v-768q0 -17 -2 -27.5t-7 -16.5q-14 -18 -36 -18q-23 0 -35 18q-5 6 -7.5 16.5t-2.5 27.5v704l-97 -96q-11 -11 -19 -16.5t-17 -7.5q-18 -3 -34 12q-15 15 -12 34z" />
<glyph unicode="&#xba;" horiz-adv-x="929" d="M147 1063q0 42 4 85t14.5 83.5t29.5 78t51 68.5q42 42 96.5 64t122.5 22t122.5 -22t96.5 -64q32 -32 51 -69t29.5 -77.5t14 -83.5t3.5 -85t-3.5 -85t-14 -83.5t-29.5 -78t-51 -68.5q-42 -42 -97 -64t-122 -22q-68 0 -122.5 22t-96.5 64q-32 32 -51 69t-29.5 77.5 t-14.5 83.5t-4 85zM238 1063q0 -33 1.5 -68.5t8 -69t20.5 -64.5t37 -54q31 -31 71.5 -48.5t88.5 -17.5t88.5 17.5t71.5 48.5q24 24 37.5 54.5t20 64t8 69t1.5 68.5t-1.5 68t-8 69t-20.5 64.5t-37 54.5q-31 31 -71.5 48t-88.5 17t-88.5 -17t-71.5 -48q-24 -24 -37.5 -54.5 t-20 -64.5t-8 -69t-1.5 -68z" />
<glyph unicode="&#xbb;" horiz-adv-x="1123" d="M161 184q2 9 7.5 18.5t20.5 24.5l283 283l-283 283q-15 15 -20.5 24t-7.5 19q-3 25 13 41q17 17 42 14q9 -2 18.5 -7.5t24.5 -21.5l352 -352l-352 -352q-15 -15 -24.5 -21t-18.5 -8q-25 -3 -42 14q-16 16 -13 41zM588 184q2 9 7.5 18.5t20.5 24.5l283 283l-283 283 q-15 15 -20.5 24t-7.5 19q-3 25 13 41q17 17 42 14q9 -2 18.5 -7.5t24.5 -21.5l352 -352l-352 -352q-15 -15 -24.5 -21t-18.5 -8q-25 -3 -42 14q-16 16 -13 41z" />
<glyph unicode="&#xbc;" horiz-adv-x="1644" d="M132 1268q2 9 7 17t17 19l131 131q14 14 30 23t33 9q10 0 20 -2.5t18 -12.5q13 -16 13 -46v-768q0 -17 -2 -27.5t-7 -16.5q-14 -18 -36 -18q-23 0 -35 18q-5 6 -7.5 16.5t-2.5 27.5v704l-97 -96q-11 -11 -19 -16.5t-17 -7.5q-18 -3 -34 12q-15 15 -12 34zM435 25 q-3 16 10 42l681 1361q12 27 27 34q7 4 16 4t20 -5q18 -10 21 -27q3 -16 -10 -42l-681 -1362q-12 -27 -26 -34q-7 -4 -17 -4q-9 0 -19 5q-18 10 -22 28zM1042 178q0 12 11 36l314 629q8 17 18 28.5t28 11.5q14 0 28 -10.5t14 -27.5q0 -9 -3.5 -18.5t-9.5 -21.5l-293 -586 h254v197q0 30 10 42q11 15 31 15t32 -15q9 -12 9 -42v-197h62q30 0 42 -9q15 -11 15 -32q0 -20 -15 -32q-12 -9 -42 -9h-62v-88q0 -30 -9 -42q-11 -15 -32 -15q-20 0 -31 15q-9 12 -10 42v88h-307q-23 0 -36 7q-18 11 -18 34z" />
<glyph unicode="&#xbd;" horiz-adv-x="1644" d="M132 1268q2 9 7 17t17 19l131 131q14 14 30 23t33 9q10 0 20 -2.5t18 -12.5q13 -16 13 -46v-768q0 -17 -2 -27.5t-7 -16.5q-14 -18 -36 -18q-23 0 -35 18q-5 6 -7.5 16.5t-2.5 27.5v704l-97 -96q-11 -11 -19 -16.5t-17 -7.5q-18 -3 -34 12q-15 15 -12 34zM435 25 q-3 16 10 42l681 1361q12 27 27 34q7 4 16 4t20 -5q18 -10 21 -27q3 -16 -10 -42l-681 -1362q-12 -27 -26 -34q-7 -4 -17 -4q-9 0 -19 5q-18 10 -22 28zM1091 41q0 11 6 22t20 28l323 431q24 31 35 60t11 64q0 71 -39.5 113t-110.5 42q-25 0 -48.5 -7t-43 -20.5t-34 -34.5 t-19.5 -50q-2 -11 -5 -23.5t-9 -21.5q-5 -8 -13.5 -12.5t-21.5 -4.5q-23 0 -34 16q-5 6 -6.5 14t-1.5 16q0 23 8.5 49t18.5 46q27 53 80.5 84t128.5 31q54 0 98.5 -17t75.5 -48t48.5 -75t17.5 -97q0 -49 -15 -88.5t-48 -82.5l-300 -393h320q30 0 42 -9q15 -11 16 -32 q0 -20 -16 -32q-12 -9 -42 -9h-376q-20 0 -32.5 1.5t-23.5 12.5q-10 12 -10 27z" />
<glyph unicode="&#xbe;" horiz-adv-x="1644" d="M72 777q0 32 13 45q12 12 29 12q18 0 30 -12q6 -6 10 -14t6 -25q4 -32 17.5 -55.5t35 -39t49.5 -23t60 -7.5q35 0 65 11.5t52.5 33t35 53t12.5 70.5q0 77 -42 121.5t-130 44.5q-8 0 -16.5 2.5t-13.5 7.5q-12 12 -13 29q0 17 13 30q10 10 30 10q77 0 116.5 41.5 t39.5 114.5q0 38 -12.5 67.5t-33.5 49.5t-48.5 30.5t-57.5 10.5q-53 0 -87.5 -19t-51.5 -61q-4 -10 -6.5 -22t-5.5 -29q-4 -22 -16.5 -29.5t-26.5 -7.5q-22 0 -32.5 15t-10.5 38q0 24 9 50.5t21 43.5q35 54 84 78.5t123 24.5q54 0 99 -17t76.5 -48t49 -75t17.5 -98 q0 -140 -117 -192q133 -49 134 -211q0 -60 -20 -107t-54.5 -78.5t-81.5 -48t-100 -16.5q-76 0 -131.5 27t-85.5 69q-14 20 -23.5 49t-9.5 56zM435 25q-3 16 10 42l681 1361q12 27 27 34q7 4 16 4t20 -5q18 -10 21 -27q3 -16 -10 -42l-681 -1362q-12 -27 -26 -34 q-7 -4 -17 -4q-9 0 -19 5q-18 10 -22 28zM1042 178q0 12 11 36l314 629q8 17 18 28.5t28 11.5q14 0 28 -10.5t14 -27.5q0 -9 -3.5 -18.5t-9.5 -21.5l-293 -586h254v197q0 30 10 42q11 15 31 15t32 -15q9 -12 9 -42v-197h62q30 0 42 -9q15 -11 15 -32q0 -20 -15 -32 q-12 -9 -42 -9h-62v-88q0 -30 -9 -42q-11 -15 -32 -15q-20 0 -31 15q-9 12 -10 42v88h-307q-23 0 -36 7q-18 11 -18 34z" />
<glyph unicode="&#xbf;" horiz-adv-x="999" d="M100 -123q0 71 26 128t64 116l172 254q26 37 32.5 75.5t6.5 81.5q0 20 3 31t9 21q13 20 42 20t42 -20q6 -9 8.5 -20t2.5 -32q0 -35 -2 -61.5t-8 -50.5t-18 -48t-31 -53l-173 -253q-31 -46 -50 -88.5t-19 -100.5q0 -57 20 -106t55 -85t83 -56.5t104 -20.5q50 0 98 16.5 t86 52.5q34 33 52.5 75.5t24.5 88.5q2 13 4.5 26t8.5 23q6 9 16.5 15t28.5 6q9 0 20 -4.5t17 -13.5t8.5 -18.5t2.5 -20.5q0 -62 -28.5 -125.5t-71.5 -108.5q-49 -49 -116.5 -76.5t-150.5 -27.5q-79 0 -146 27.5t-116.5 75.5t-78 114t-28.5 143zM373 911q0 34 24 58t58 24 t58 -24t24 -58t-24.5 -58t-57.5 -24q-34 0 -58 24.5t-24 57.5z" />
<glyph unicode="&#xc0;" horiz-adv-x="1232" d="M52.5 45q1.5 21 9.5 42l490 1311q7 18 11.5 28t9.5 18q7 10 18 16t25 6t25 -6t18 -16q5 -8 10 -18t12 -28l489 -1311q8 -22 10.5 -42t-14.5 -37q-16 -16 -42 -16q-13 0 -26 8q-10 7 -16.5 17t-14.5 31l-116 306h-669l-116 -306q-8 -22 -14.5 -31.5t-16.5 -16.5 q-13 -8 -26 -8q-26 0 -42 16t-14.5 37zM316 453h600l-300 826zM433 1854q0 28 26 44q12 8 28 9q16 0 29 -11q7 -5 14 -13.5t12 -17.5l110 -177q9 -14 14 -25t5 -22q0 -28 -26 -44q-12 -8 -27 -8q-16 0 -30 10q-7 5 -12.5 13t-13.5 19l-110 177q-18 29 -19 46z" />
<glyph unicode="&#xc1;" horiz-adv-x="1232" d="M52.5 45q1.5 21 9.5 42l490 1311q7 18 11.5 28t9.5 18q7 10 18 16t25 6t25 -6t18 -16q5 -8 10 -18t12 -28l489 -1311q8 -22 10.5 -42t-14.5 -37q-16 -16 -42 -16q-13 0 -26 8q-10 7 -16.5 17t-14.5 31l-116 306h-669l-116 -306q-8 -22 -14.5 -31.5t-16.5 -16.5 q-13 -8 -26 -8q-26 0 -42 16t-14.5 37zM316 453h600l-300 826zM564 1647q0 10 5 20.5t14 25.5l110 177q5 9 12 17.5t14 14.5q13 10 30 10q15 0 27 -8q26 -16 26 -44q0 -17 -18 -46l-111 -178q-7 -11 -12.5 -18.5t-13.5 -12.5q-13 -10 -29 -11q-15 0 -28 9q-26 16 -26 44z " />
<glyph unicode="&#xc2;" horiz-adv-x="1232" d="M52.5 45q1.5 21 9.5 42l490 1311q7 18 11.5 28t9.5 18q7 10 18 16t25 6t25 -6t18 -16q5 -8 10 -18t12 -28l489 -1311q8 -22 10.5 -42t-14.5 -37q-16 -16 -42 -16q-13 0 -26 8q-10 7 -16.5 17t-14.5 31l-116 306h-669l-116 -306q-8 -22 -14.5 -31.5t-16.5 -16.5 q-13 -8 -26 -8q-26 0 -42 16t-14.5 37zM316 453h600l-300 826zM353 1640q2 9 7.5 18.5t18.5 22.5l194 194q8 8 18.5 16.5t26.5 8.5q15 0 26 -8.5t19 -16.5l193 -194q13 -13 18.5 -22t7.5 -19q3 -23 -13 -38q-16 -16 -39 -14q-9 2 -18.5 7.5t-22.5 18.5l-171 171l-171 -171 q-13 -13 -22.5 -18.5t-18.5 -7.5q-23 -3 -39 14q-16 16 -14 38z" />
<glyph unicode="&#xc3;" horiz-adv-x="1232" d="M52.5 45q1.5 21 9.5 42l490 1311q7 18 11.5 28t9.5 18q7 10 18 16t25 6t25 -6t18 -16q5 -8 10 -18t12 -28l489 -1311q8 -22 10.5 -42t-14.5 -37q-16 -16 -42 -16q-13 0 -26 8q-10 7 -16.5 17t-14.5 31l-116 306h-669l-116 -306q-8 -22 -14.5 -31.5t-16.5 -16.5 q-13 -8 -26 -8q-26 0 -42 16t-14.5 37zM311 1681q0 10 6.5 22.5t24.5 29.5q26 23 47 35.5t39.5 18.5t33 7.5t28.5 1.5q23 0 40.5 -3.5t34 -9.5t32.5 -15t34 -20q30 -17 57 -30.5t58 -13.5q10 0 19 1t20 4.5t23 11.5t28 22q13 11 24.5 18.5t22.5 7.5q16 0 28 -11q5 -5 9 -12 t4 -17t-6 -22.5t-25 -29.5q-26 -23 -46.5 -35.5t-39 -18.5t-33.5 -7.5t-28 -1.5q-23 0 -41 3.5t-34 9.5t-32.5 15t-34.5 20q-30 17 -57 30.5t-57 13.5q-10 0 -19.5 -1t-20.5 -4.5t-23 -12t-27 -21.5q-13 -11 -24.5 -19t-23.5 -8q-8 0 -15 3.5t-12 8.5t-9.5 12t-4.5 17z M316 453h600l-300 826z" />
<glyph unicode="&#xc4;" horiz-adv-x="1232" d="M52.5 45q1.5 21 9.5 42l490 1311q7 18 11.5 28t9.5 18q7 10 18 16t25 6t25 -6t18 -16q5 -8 10 -18t12 -28l489 -1311q8 -22 10.5 -42t-14.5 -37q-16 -16 -42 -16q-13 0 -26 8q-10 7 -16.5 17t-14.5 31l-116 306h-669l-116 -306q-8 -22 -14.5 -31.5t-16.5 -16.5 q-13 -8 -26 -8q-26 0 -42 16t-14.5 37zM316 453h600l-300 826zM329 1694q0 32 22 53.5t54 21.5t53.5 -22t21.5 -53q0 -32 -21.5 -54t-53.5 -22t-54 22t-22 54zM755 1694q0 32 22 53.5t54 21.5t53.5 -22t21.5 -53q0 -32 -21.5 -54t-53.5 -22t-54 22t-22 54z" />
<glyph unicode="&#xc5;" horiz-adv-x="1232" d="M52.5 45q1.5 21 9.5 42l490 1311q7 18 11.5 28t9.5 18q7 10 18 16t25 6t25 -6t18 -16q5 -8 10 -18t12 -28l489 -1311q8 -22 10.5 -42t-14.5 -37q-16 -16 -42 -16q-13 0 -26 8q-10 7 -16.5 17t-14.5 31l-116 306h-669l-116 -306q-8 -22 -14.5 -31.5t-16.5 -16.5 q-13 -8 -26 -8q-26 0 -42 16t-14.5 37zM316 453h600l-300 826zM384 1761q0 48 18.5 90.5t50.5 74.5t74.5 50.5t90.5 18.5t90.5 -18.5t74 -50.5t50 -74.5t18.5 -90.5t-18.5 -90.5t-50 -74t-74 -50t-90.5 -18.5t-90.5 18.5t-74.5 50t-50.5 74t-18.5 90.5zM468 1761 q0 -31 12 -58.5t32 -47.5t47.5 -31.5t58.5 -11.5t58.5 11.5t47.5 31.5t31.5 47.5t11.5 58.5t-11.5 58.5t-31.5 47.5t-48 32t-58 12q-31 0 -58.5 -12t-47.5 -32t-32 -47.5t-12 -58.5z" />
<glyph unicode="&#xc6;" horiz-adv-x="1811" d="M52 35q-2 11 1.5 22.5t13.5 29.5l653 1308q10 20 18 31.5t17 17.5q9 8 20 11t23 3h836q22 0 32.5 -2.5t19.5 -7.5q19 -15 19 -39t-19 -39q-8 -5 -19 -7.5t-33 -2.5h-711v-576h597q22 0 32.5 -2.5t18.5 -7.5q19 -15 19 -39t-19 -39q-8 -5 -19 -7.5t-32 -2.5h-597v-588h711 q22 0 32.5 -2.5t19.5 -7.5q19 -15 19 -39t-19 -39q-8 -5 -19 -7.5t-33 -2.5h-756q-12 0 -25.5 2t-25.5 13q-11 11 -13 24.5t-2 26.5v288h-497l-154 -314q-9 -18 -16.5 -27.5t-17.5 -15.5q-9 -5 -22 -5q-12 0 -24 6t-19.5 16t-9.5 21zM365 453h447v907z" />
<glyph unicode="&#xc7;" horiz-adv-x="1318" d="M168 729q0 88 1.5 158t6 125.5t14.5 99.5t25.5 81.5t40 70.5t57.5 67q65 65 155 102t200 37q73 0 133 -14.5t109 -40t88 -60.5t70 -75q18 -25 33.5 -53t26.5 -54.5t17 -50t6 -40.5q0 -26 -14 -40q-8 -8 -17.5 -11t-18.5 -3q-12 0 -20.5 3.5t-15.5 10.5q-8 8 -15 21.5 t-12 31.5q-20 65 -54.5 116t-81.5 86.5t-106.5 55t-127.5 19.5q-80 0 -149.5 -27.5t-127.5 -84.5q-39 -39 -61.5 -83.5t-33.5 -105.5t-14 -144t-3 -198q0 -116 3 -198t14 -143t33.5 -105.5t61.5 -83.5q57 -57 127 -85t150 -28q69 0 128 19.5t106 55.5t81.5 87t54.5 116 q5 17 12 30.5t15 21.5q7 7 15.5 10.5t20.5 3.5q9 0 18 -3t18 -11q14 -14 14 -40q0 -16 -6 -40t-17 -51t-26.5 -54.5t-33.5 -52.5q-31 -40 -70 -74.5t-88 -60.5t-109.5 -40.5t-132.5 -14.5q-110 0 -200 37t-155 102q-34 34 -58 67t-39.5 70.5t-25.5 81.5t-14.5 99.5t-6 125 t-1.5 158.5zM497 -400q0 10 4.5 20.5t14.5 25.5l110 177q5 9 12 17.5t14 14.5q13 10 29 10q15 0 28 -8q26 -16 26 -44q0 -17 -19 -46l-110 -178q-7 -11 -13 -18.5t-13 -12.5q-13 -10 -30 -11q-15 0 -27 9q-26 16 -26 44z" />
<glyph unicode="&#xc8;" horiz-adv-x="1224" d="M225 66v1327q0 12 2 25.5t14 24.5q11 11 24.5 13t25.5 2h757q22 0 32.5 -2.5t18.5 -7.5q19 -15 19 -39t-19 -39q-8 -5 -19 -7.5t-32 -2.5h-712v-576h597q22 0 32.5 -2.5t18.5 -7.5q19 -15 20 -39q0 -24 -20 -39q-8 -5 -19 -7.5t-32 -2.5h-597v-588h712q22 0 32.5 -2.5 t18.5 -7.5q19 -15 19 -39t-19 -39q-8 -5 -19 -7.5t-32 -2.5h-757q-12 0 -25.5 2t-24.5 13t-13.5 24.5t-2.5 26.5zM457 1854q0 28 26 44q12 8 28 9q16 0 29 -11q7 -5 14 -13.5t12 -17.5l110 -177q9 -14 14 -25t5 -22q0 -28 -26 -44q-12 -8 -27 -8q-16 0 -30 10q-7 5 -12.5 13 t-13.5 19l-110 177q-18 29 -19 46z" />
<glyph unicode="&#xc9;" horiz-adv-x="1224" d="M225 66v1327q0 12 2 25.5t14 24.5q11 11 24.5 13t25.5 2h757q22 0 32.5 -2.5t18.5 -7.5q19 -15 19 -39t-19 -39q-8 -5 -19 -7.5t-32 -2.5h-712v-576h597q22 0 32.5 -2.5t18.5 -7.5q19 -15 20 -39q0 -24 -20 -39q-8 -5 -19 -7.5t-32 -2.5h-597v-588h712q22 0 32.5 -2.5 t18.5 -7.5q19 -15 19 -39t-19 -39q-8 -5 -19 -7.5t-32 -2.5h-757q-12 0 -25.5 2t-24.5 13t-13.5 24.5t-2.5 26.5zM588 1647q0 10 5 20.5t14 25.5l110 177q5 9 12 17.5t14 14.5q13 10 30 10q15 0 27 -8q26 -16 26 -44q0 -17 -18 -46l-111 -178q-7 -11 -12.5 -18.5 t-13.5 -12.5q-13 -10 -29 -11q-15 0 -28 9q-26 16 -26 44z" />
<glyph unicode="&#xca;" horiz-adv-x="1224" d="M225 66v1327q0 12 2 25.5t14 24.5q11 11 24.5 13t25.5 2h757q22 0 32.5 -2.5t18.5 -7.5q19 -15 19 -39t-19 -39q-8 -5 -19 -7.5t-32 -2.5h-712v-576h597q22 0 32.5 -2.5t18.5 -7.5q19 -15 20 -39q0 -24 -20 -39q-8 -5 -19 -7.5t-32 -2.5h-597v-588h712q22 0 32.5 -2.5 t18.5 -7.5q19 -15 19 -39t-19 -39q-8 -5 -19 -7.5t-32 -2.5h-757q-12 0 -25.5 2t-24.5 13t-13.5 24.5t-2.5 26.5zM377 1640q2 9 7.5 18.5t18.5 22.5l194 194q8 8 18.5 16.5t26.5 8.5q15 0 26 -8.5t19 -16.5l193 -194q13 -13 18.5 -22t7.5 -19q3 -23 -13 -38q-16 -16 -39 -14 q-9 2 -18.5 7.5t-22.5 18.5l-171 171l-171 -171q-13 -13 -22.5 -18.5t-18.5 -7.5q-23 -3 -39 14q-16 16 -14 38z" />
<glyph unicode="&#xcb;" horiz-adv-x="1224" d="M225 66v1327q0 12 2 25.5t14 24.5q11 11 24.5 13t25.5 2h757q22 0 32.5 -2.5t18.5 -7.5q19 -15 19 -39t-19 -39q-8 -5 -19 -7.5t-32 -2.5h-712v-576h597q22 0 32.5 -2.5t18.5 -7.5q19 -15 20 -39q0 -24 -20 -39q-8 -5 -19 -7.5t-32 -2.5h-597v-588h712q22 0 32.5 -2.5 t18.5 -7.5q19 -15 19 -39t-19 -39q-8 -5 -19 -7.5t-32 -2.5h-757q-12 0 -25.5 2t-24.5 13t-13.5 24.5t-2.5 26.5zM353 1694q0 32 22 53.5t54 21.5t53.5 -22t21.5 -53q0 -32 -21.5 -54t-53.5 -22t-54 22t-22 54zM779 1694q0 32 22 53.5t54 21.5t53.5 -22t21.5 -53 q0 -32 -21.5 -54t-53.5 -22t-54 22t-22 54z" />
<glyph unicode="&#xcc;" horiz-adv-x="561" d="M97 1854q0 28 26 44q12 8 28 9q16 0 29 -11q7 -5 14 -13.5t12 -17.5l110 -177q9 -14 14 -25t5 -22q0 -28 -26 -44q-12 -8 -27 -8q-16 0 -30 10q-7 5 -12.5 13t-13.5 19l-110 177q-18 29 -19 46zM225 69v1321q0 24 2.5 34.5t10.5 21.5q14 20 43 20t43 -20q7 -11 9.5 -22 t2.5 -34v-1321q0 -24 -2.5 -34.5t-9.5 -22.5q-14 -20 -43 -20t-43 20q-7 11 -10 22t-3 35z" />
<glyph unicode="&#xcd;" horiz-adv-x="561" d="M225 69v1321q0 24 2.5 34.5t10.5 21.5q14 20 43 20t43 -20q7 -11 9.5 -22t2.5 -34v-1321q0 -24 -2.5 -34.5t-9.5 -22.5q-14 -20 -43 -20t-43 20q-7 11 -10 22t-3 35zM228 1647q0 10 5 20.5t14 25.5l110 177q5 9 12 17.5t14 14.5q13 10 30 10q15 0 27 -8q26 -16 26 -44 q0 -17 -18 -46l-111 -178q-7 -11 -12.5 -18.5t-13.5 -12.5q-13 -10 -29 -11q-15 0 -28 9q-26 16 -26 44z" />
<glyph unicode="&#xce;" horiz-adv-x="561" d="M17 1640q2 9 7.5 18.5t18.5 22.5l194 194q8 8 18.5 16.5t26.5 8.5q15 0 26 -8.5t19 -16.5l193 -194q13 -13 18.5 -22t7.5 -19q3 -23 -13 -38q-16 -16 -39 -14q-9 2 -18.5 7.5t-22.5 18.5l-171 171l-171 -171q-13 -13 -22.5 -18.5t-18.5 -7.5q-23 -3 -39 14q-16 16 -14 38 zM225 69v1321q0 24 2.5 34.5t10.5 21.5q14 20 43 20t43 -20q7 -11 9.5 -22t2.5 -34v-1321q0 -24 -2.5 -34.5t-9.5 -22.5q-14 -20 -43 -20t-43 20q-7 11 -10 22t-3 35z" />
<glyph unicode="&#xcf;" horiz-adv-x="561" d="M17 1694q0 32 22 53.5t54 21.5t54 -22t22 -53q0 -32 -22 -54t-54 -22t-54 22t-22 54zM225 69v1321q0 24 2.5 34.5t10.5 21.5q14 20 43 20t43 -20q7 -11 9.5 -22t2.5 -34v-1321q0 -24 -2.5 -34.5t-9.5 -22.5q-14 -20 -43 -20t-43 20q-7 11 -10 22t-3 35zM392 1694 q0 32 22 53.5t54 21.5t54 -22t22 -53q0 -32 -22 -54t-54 -22t-54 22t-22 54z" />
<glyph unicode="&#xd0;" horiz-adv-x="1411" d="M74 735q0 23 18 37q8 5 18.5 7.5t28.5 2.5h109v611q0 12 2 25.5t13 24.5t24.5 13t25.5 2h424q231 0 365 -133q52 -52 80.5 -121t42 -147.5t16 -162.5t2.5 -165q0 -82 -2.5 -165.5t-16 -161.5t-42 -147.5t-80.5 -121.5q-133 -133 -365 -133h-424q-12 0 -25.5 2t-24.5 13 t-13 24.5t-2 26.5v622h-109q-18 0 -28.5 2.5t-18.5 7.5q-18 13 -18 37zM358 98h353q44 0 86.5 5.5t82.5 18t76 34.5t68 55q41 43 63 102.5t32 127.5t12 141.5t2 146.5q0 72 -2 146t-12 142t-32 127.5t-63 102.5q-32 33 -68 55t-76 35t-82.5 18t-86.5 5h-353v-578h308 q18 0 28.5 -2.5t18.5 -7.5q18 -14 18 -37q0 -24 -18 -37q-8 -5 -18.5 -7.5t-28.5 -2.5h-308v-590z" />
<glyph unicode="&#xd1;" horiz-adv-x="1513" d="M225 69v1321q0 24 5.5 37t14.5 22q17 17 43 17q20 0 35 -10.5t26 -28.5l829 -1224v1187q0 24 2.5 34.5t9.5 21.5q14 20 43 20t43 -20q7 -11 9.5 -22t2.5 -34v-1321q0 -24 -5 -37.5t-14 -22.5q-8 -8 -19.5 -12.5t-23.5 -4.5q-20 0 -35 10.5t-27 28.5l-828 1224v-1186 q0 -24 -2.5 -34.5t-9.5 -22.5q-14 -20 -43 -20t-43 20q-7 11 -10 22t-3 35zM450 1681q0 10 6.5 22.5t24.5 29.5q26 23 47 35.5t39.5 18.5t33 7.5t28.5 1.5q23 0 40.5 -3.5t34 -9.5t32.5 -15t34 -20q30 -17 57 -30.5t58 -13.5q10 0 19 1t20 4.5t23 11.5t28 22 q13 11 24.5 18.5t22.5 7.5q16 0 28 -11q5 -5 9 -12t4 -17t-6 -22.5t-25 -29.5q-26 -23 -46.5 -35.5t-39 -18.5t-33.5 -7.5t-28 -1.5q-23 0 -41 3.5t-34 9.5t-32.5 15t-34.5 20q-30 17 -57 30.5t-57 13.5q-10 0 -19.5 -1t-20.5 -4.5t-23 -12t-27 -21.5q-13 -11 -24.5 -19 t-23.5 -8q-8 0 -15 3.5t-12 8.5t-9.5 12t-4.5 17z" />
<glyph unicode="&#xd2;" horiz-adv-x="1335" d="M168 729q0 88 1.5 158t6 125.5t14.5 99.5t25.5 81.5t40 70.5t57.5 67q65 65 155 102t200 37t199.5 -37t154.5 -102q50 -51 79 -101t44 -117t18.5 -159t3.5 -225q0 -89 -1.5 -158.5t-6 -125t-14 -99.5t-25.5 -81.5t-40 -70.5t-58 -67q-65 -65 -155 -102t-199 -37 q-110 0 -200 37t-155 102q-34 34 -58 67t-39.5 70.5t-25.5 81.5t-14.5 99.5t-6 125t-1.5 158.5zM279 729q0 -116 3 -198t14 -143t33.5 -105.5t61.5 -83.5q57 -57 127 -85t150 -28t149.5 28t126.5 85q39 39 61.5 83.5t34 105.5t14.5 143t3 198q0 115 -3 198t-14.5 144 t-34 105.5t-61.5 83.5q-57 57 -126.5 84.5t-149.5 27.5t-149.5 -27.5t-127.5 -84.5q-39 -39 -61.5 -83.5t-33.5 -105.5t-14 -144t-3 -198zM483 1854q0 28 26 44q12 8 28 9q16 0 29 -11q7 -5 14 -13.5t12 -17.5l110 -177q9 -14 14 -25t5 -22q0 -28 -26 -44q-12 -8 -27 -8 q-16 0 -30 10q-7 5 -12.5 13t-13.5 19l-110 177q-18 29 -19 46z" />
<glyph unicode="&#xd3;" horiz-adv-x="1335" d="M168 729q0 88 1.5 158t6 125.5t14.5 99.5t25.5 81.5t40 70.5t57.5 67q65 65 155 102t200 37t199.5 -37t154.5 -102q50 -51 79 -101t44 -117t18.5 -159t3.5 -225q0 -89 -1.5 -158.5t-6 -125t-14 -99.5t-25.5 -81.5t-40 -70.5t-58 -67q-65 -65 -155 -102t-199 -37 q-110 0 -200 37t-155 102q-34 34 -58 67t-39.5 70.5t-25.5 81.5t-14.5 99.5t-6 125t-1.5 158.5zM279 729q0 -116 3 -198t14 -143t33.5 -105.5t61.5 -83.5q57 -57 127 -85t150 -28t149.5 28t126.5 85q39 39 61.5 83.5t34 105.5t14.5 143t3 198q0 115 -3 198t-14.5 144 t-34 105.5t-61.5 83.5q-57 57 -126.5 84.5t-149.5 27.5t-149.5 -27.5t-127.5 -84.5q-39 -39 -61.5 -83.5t-33.5 -105.5t-14 -144t-3 -198zM614 1647q0 10 5 20.5t14 25.5l110 177q5 9 12 17.5t14 14.5q13 10 30 10q15 0 27 -8q26 -16 26 -44q0 -17 -18 -46l-111 -178 q-7 -11 -12.5 -18.5t-13.5 -12.5q-13 -10 -29 -11q-15 0 -28 9q-26 16 -26 44z" />
<glyph unicode="&#xd4;" horiz-adv-x="1335" d="M168 729q0 88 1.5 158t6 125.5t14.5 99.5t25.5 81.5t40 70.5t57.5 67q65 65 155 102t200 37t199.5 -37t154.5 -102q50 -51 79 -101t44 -117t18.5 -159t3.5 -225q0 -89 -1.5 -158.5t-6 -125t-14 -99.5t-25.5 -81.5t-40 -70.5t-58 -67q-65 -65 -155 -102t-199 -37 q-110 0 -200 37t-155 102q-34 34 -58 67t-39.5 70.5t-25.5 81.5t-14.5 99.5t-6 125t-1.5 158.5zM279 729q0 -116 3 -198t14 -143t33.5 -105.5t61.5 -83.5q57 -57 127 -85t150 -28t149.5 28t126.5 85q39 39 61.5 83.5t34 105.5t14.5 143t3 198q0 115 -3 198t-14.5 144 t-34 105.5t-61.5 83.5q-57 57 -126.5 84.5t-149.5 27.5t-149.5 -27.5t-127.5 -84.5q-39 -39 -61.5 -83.5t-33.5 -105.5t-14 -144t-3 -198zM403 1640q2 9 7.5 18.5t18.5 22.5l194 194q8 8 18.5 16.5t26.5 8.5q15 0 26 -8.5t19 -16.5l193 -194q13 -13 18.5 -22t7.5 -19 q3 -23 -13 -38q-16 -16 -39 -14q-9 2 -18.5 7.5t-22.5 18.5l-171 171l-171 -171q-13 -13 -22.5 -18.5t-18.5 -7.5q-23 -3 -39 14q-16 16 -14 38z" />
<glyph unicode="&#xd5;" horiz-adv-x="1335" d="M168 729q0 88 1.5 158t6 125.5t14.5 99.5t25.5 81.5t40 70.5t57.5 67q65 65 155 102t200 37t199.5 -37t154.5 -102q50 -51 79 -101t44 -117t18.5 -159t3.5 -225q0 -89 -1.5 -158.5t-6 -125t-14 -99.5t-25.5 -81.5t-40 -70.5t-58 -67q-65 -65 -155 -102t-199 -37 q-110 0 -200 37t-155 102q-34 34 -58 67t-39.5 70.5t-25.5 81.5t-14.5 99.5t-6 125t-1.5 158.5zM279 729q0 -116 3 -198t14 -143t33.5 -105.5t61.5 -83.5q57 -57 127 -85t150 -28t149.5 28t126.5 85q39 39 61.5 83.5t34 105.5t14.5 143t3 198q0 115 -3 198t-14.5 144 t-34 105.5t-61.5 83.5q-57 57 -126.5 84.5t-149.5 27.5t-149.5 -27.5t-127.5 -84.5q-39 -39 -61.5 -83.5t-33.5 -105.5t-14 -144t-3 -198zM361 1681q0 10 6.5 22.5t24.5 29.5q26 23 47 35.5t39.5 18.5t33 7.5t28.5 1.5q23 0 40.5 -3.5t34 -9.5t32.5 -15t34 -20 q30 -17 57 -30.5t58 -13.5q10 0 19 1t20 4.5t23 11.5t28 22q13 11 24.5 18.5t22.5 7.5q16 0 28 -11q5 -5 9 -12t4 -17t-6 -22.5t-25 -29.5q-26 -23 -46.5 -35.5t-39 -18.5t-33.5 -7.5t-28 -1.5q-23 0 -41 3.5t-34 9.5t-32.5 15t-34.5 20q-30 17 -57 30.5t-57 13.5 q-10 0 -19.5 -1t-20.5 -4.5t-23 -12t-27 -21.5q-13 -11 -24.5 -19t-23.5 -8q-8 0 -15 3.5t-12 8.5t-9.5 12t-4.5 17z" />
<glyph unicode="&#xd6;" horiz-adv-x="1335" d="M168 729q0 88 1.5 158t6 125.5t14.5 99.5t25.5 81.5t40 70.5t57.5 67q65 65 155 102t200 37t199.5 -37t154.5 -102q50 -51 79 -101t44 -117t18.5 -159t3.5 -225q0 -89 -1.5 -158.5t-6 -125t-14 -99.5t-25.5 -81.5t-40 -70.5t-58 -67q-65 -65 -155 -102t-199 -37 q-110 0 -200 37t-155 102q-34 34 -58 67t-39.5 70.5t-25.5 81.5t-14.5 99.5t-6 125t-1.5 158.5zM279 729q0 -116 3 -198t14 -143t33.5 -105.5t61.5 -83.5q57 -57 127 -85t150 -28t149.5 28t126.5 85q39 39 61.5 83.5t34 105.5t14.5 143t3 198q0 115 -3 198t-14.5 144 t-34 105.5t-61.5 83.5q-57 57 -126.5 84.5t-149.5 27.5t-149.5 -27.5t-127.5 -84.5q-39 -39 -61.5 -83.5t-33.5 -105.5t-14 -144t-3 -198zM379 1694q0 32 22 53.5t54 21.5t53.5 -22t21.5 -53q0 -32 -21.5 -54t-53.5 -22t-54 22t-22 54zM805 1694q0 32 22 53.5t54 21.5 t53.5 -22t21.5 -53q0 -32 -21.5 -54t-53.5 -22t-54 22t-22 54z" />
<glyph unicode="&#xd7;" d="M172 241q2 9 7.5 18t21.5 25l256 256l-256 256q-15 15 -21 24t-8 19q-3 25 13 41q17 17 42 14q9 -2 18.5 -7.5t24.5 -21.5l256 -256l256 256q15 15 24.5 21t18.5 8q25 3 41 -13q17 -17 15 -42q-2 -9 -8 -18.5t-21 -24.5l-256 -256l256 -256q15 -15 21 -24.5t8 -18.5 q3 -25 -14 -41q-17 -17 -42 -15q-9 2 -18 8t-25 21l-256 256l-256 -256q-15 -15 -24 -21t-19 -8q-25 -3 -41 14q-17 17 -14 42z" />
<glyph unicode="&#xd8;" horiz-adv-x="1335" d="M168 729q0 88 1.5 158t6 125.5t14.5 99.5t25.5 81.5t40 70.5t57.5 67q65 65 155 102t200 37q77 0 143.5 -18t122.5 -52l55 109q9 18 17 27t16 14q20 11 43 0q22 -10 26 -34q2 -9 -1.5 -20.5t-12.5 -30.5l-63 -127q36 -35 61 -69t42.5 -72.5t27 -83t14.5 -100.5t6.5 -126 t1.5 -158q0 -89 -1.5 -158.5t-6 -125t-14 -99.5t-25.5 -81.5t-40 -70.5t-58 -67q-65 -65 -154.5 -102t-199.5 -37q-77 0 -143.5 18.5t-123.5 51.5l-55 -109q-9 -18 -16.5 -27t-16.5 -14q-20 -11 -43 0q-22 10 -25 35q-2 9 1 20t12 30l64 127q-54 52 -85 104t-46.5 120 t-19 160t-3.5 225zM279 729q0 -108 2.5 -186t11.5 -137.5t27.5 -103t50.5 -81.5l518 1085q-49 34 -104.5 50t-116.5 16q-80 0 -149.5 -27.5t-127.5 -84.5q-39 -39 -61.5 -83.5t-33.5 -105.5t-14 -144t-3 -198zM446 153q49 -34 105 -50.5t117 -16.5q80 0 149.5 27.5 t126.5 85.5q39 39 61.5 83.5t34 105.5t14.5 143t3 198q0 108 -2.5 186t-12 137.5t-28 103t-49.5 81.5z" />
<glyph unicode="&#xd9;" horiz-adv-x="1409" d="M205 473v917q0 24 2.5 34.5t9.5 21.5q14 20 43 20t43 -20q7 -11 9.5 -22t2.5 -34v-903q0 -91 28.5 -164.5t79 -126.5t122 -81.5t160.5 -28.5q87 0 159 28.5t122.5 81.5t79 126.5t28.5 164.5v903q0 24 2.5 34.5t9.5 21.5q14 20 43 20t43 -20q7 -11 9.5 -22t2.5 -34v-917 q0 -106 -37 -195.5t-103 -154t-158 -100t-201 -35.5q-110 0 -202 35.5t-158 100t-103 154t-37 195.5zM519 1854q0 28 26 44q12 8 28 9q16 0 29 -11q7 -5 14 -13.5t12 -17.5l110 -177q9 -14 14 -25t5 -22q0 -28 -26 -44q-12 -8 -27 -8q-16 0 -30 10q-7 5 -12.5 13t-13.5 19 l-110 177q-18 29 -19 46z" />
<glyph unicode="&#xda;" horiz-adv-x="1409" d="M205 473v917q0 24 2.5 34.5t9.5 21.5q14 20 43 20t43 -20q7 -11 9.5 -22t2.5 -34v-903q0 -91 28.5 -164.5t79 -126.5t122 -81.5t160.5 -28.5q87 0 159 28.5t122.5 81.5t79 126.5t28.5 164.5v903q0 24 2.5 34.5t9.5 21.5q14 20 43 20t43 -20q7 -11 9.5 -22t2.5 -34v-917 q0 -106 -37 -195.5t-103 -154t-158 -100t-201 -35.5q-110 0 -202 35.5t-158 100t-103 154t-37 195.5zM650 1647q0 10 5 20.5t14 25.5l110 177q5 9 12 17.5t14 14.5q13 10 30 10q15 0 27 -8q26 -16 26 -44q0 -17 -18 -46l-111 -178q-7 -11 -12.5 -18.5t-13.5 -12.5 q-13 -10 -29 -11q-15 0 -28 9q-26 16 -26 44z" />
<glyph unicode="&#xdb;" horiz-adv-x="1409" d="M205 473v917q0 24 2.5 34.5t9.5 21.5q14 20 43 20t43 -20q7 -11 9.5 -22t2.5 -34v-903q0 -91 28.5 -164.5t79 -126.5t122 -81.5t160.5 -28.5q87 0 159 28.5t122.5 81.5t79 126.5t28.5 164.5v903q0 24 2.5 34.5t9.5 21.5q14 20 43 20t43 -20q7 -11 9.5 -22t2.5 -34v-917 q0 -106 -37 -195.5t-103 -154t-158 -100t-201 -35.5q-110 0 -202 35.5t-158 100t-103 154t-37 195.5zM439 1640q2 9 7.5 18.5t18.5 22.5l194 194q8 8 18.5 16.5t26.5 8.5q15 0 26 -8.5t19 -16.5l193 -194q13 -13 18.5 -22t7.5 -19q3 -23 -13 -38q-16 -16 -39 -14 q-9 2 -18.5 7.5t-22.5 18.5l-171 171l-171 -171q-13 -13 -22.5 -18.5t-18.5 -7.5q-23 -3 -39 14q-16 16 -14 38z" />
<glyph unicode="&#xdc;" horiz-adv-x="1409" d="M205 473v917q0 24 2.5 34.5t9.5 21.5q14 20 43 20t43 -20q7 -11 9.5 -22t2.5 -34v-903q0 -91 28.5 -164.5t79 -126.5t122 -81.5t160.5 -28.5q87 0 159 28.5t122.5 81.5t79 126.5t28.5 164.5v903q0 24 2.5 34.5t9.5 21.5q14 20 43 20t43 -20q7 -11 9.5 -22t2.5 -34v-917 q0 -106 -37 -195.5t-103 -154t-158 -100t-201 -35.5q-110 0 -202 35.5t-158 100t-103 154t-37 195.5zM415 1694q0 32 22 53.5t54 21.5t53.5 -22t21.5 -53q0 -32 -21.5 -54t-53.5 -22t-54 22t-22 54zM841 1694q0 32 22 53.5t54 21.5t53.5 -22t21.5 -53q0 -32 -21.5 -54 t-53.5 -22t-54 22t-22 54z" />
<glyph unicode="&#xdd;" horiz-adv-x="1011" d="M50 1423q2 11 9.5 21t19.5 16t24 6t22 -5q10 -6 17.5 -15t16.5 -28l347 -694l347 694q9 18 16.5 27.5t17.5 15.5q9 5 21 5t25 -6q12 -6 19 -15.5t10 -21.5q2 -11 -2 -22t-13 -30l-386 -772v-530q0 -24 -2.5 -34.5t-9.5 -22.5q-14 -20 -43 -20t-43 20q-7 11 -9.5 22 t-2.5 35v530l-386 772q-9 18 -13 29.5t-2 22.5zM453 1647q0 10 5 20.5t14 25.5l110 177q5 9 12 17.5t14 14.5q13 10 30 10q15 0 27 -8q26 -16 26 -44q0 -17 -18 -46l-111 -178q-7 -11 -12.5 -18.5t-13.5 -12.5q-13 -10 -29 -11q-15 0 -28 9q-26 16 -26 44z" />
<glyph unicode="&#xde;" horiz-adv-x="1323" d="M225 69v1321q0 24 2.5 34.5t10.5 21.5q14 20 43 20t43 -20q7 -11 9.5 -22t2.5 -34v-235h424q94 0 175 -27.5t140 -81.5t92 -132t33 -179q0 -100 -33 -178t-92 -131.5t-140 -82t-175 -28.5h-424v-246q0 -24 -2.5 -34.5t-9.5 -22.5q-14 -20 -43 -20t-43 20q-7 11 -10 22 t-3 35zM336 414h412q76 0 138.5 19.5t107.5 59t70.5 100t25.5 142.5t-25.5 142.5t-70.5 100.5t-108 59.5t-138 19.5h-412v-643z" />
<glyph unicode="&#xdf;" horiz-adv-x="1126" d="M199 63v1010q0 92 27 166t77.5 125t124 78.5t166.5 27.5q76 0 144.5 -19t120 -60t82 -103.5t30.5 -148.5q0 -82 -31.5 -143.5t-97.5 -106.5q40 -22 65.5 -45.5t40 -53t20 -67.5t5.5 -88v-361q0 -67 -21.5 -119t-58.5 -85q-20 -18 -41.5 -31.5t-44.5 -22t-50 -12.5t-59 -4 h-51q-20 0 -31.5 2.5t-19.5 7.5q-18 13 -18 37q0 23 18 37q8 5 18.5 7.5t28.5 2.5h40q42 0 77 12.5t58 35.5q27 25 37.5 58.5t10.5 83.5v365q0 49 -10 82.5t-37 58.5q-48 48 -133 48h-46q-19 0 -29 2.5t-16 7.5q-17 13 -17 35t17 35q6 5 16 7.5t29 2.5h26q45 0 82 15 t63.5 43t40.5 67t14 86q0 51 -19.5 96.5t-51.5 77.5q-70 66 -213 65q-74 0 -126.5 -22.5t-86 -62.5t-49 -96t-15.5 -124v-1010q0 -20 -2.5 -30.5t-8.5 -20.5q-13 -20 -42 -20t-42 20q-6 9 -8.5 20t-2.5 31z" />
<glyph unicode="&#xe0;" horiz-adv-x="1073" d="M113 272q0 68 24 120.5t68.5 89t107.5 56t141 19.5h324v94q0 62 -14.5 110t-47 80t-83.5 49t-123 17q-45 0 -79.5 -6t-63 -18.5t-54 -32t-52.5 -45.5q-17 -17 -30 -22t-24 -5q-20 0 -33 13q-6 6 -10 13t-4 21q0 44 94 108q52 36 113 51t143 15q187 0 281 -82.5t94 -240.5 v-613q0 -20 -2.5 -30.5t-9.5 -20.5q-13 -20 -42 -20t-41 20q-6 9 -9 20t-3 31v35q-32 -32 -63.5 -52.5t-67.5 -33.5t-77.5 -18.5t-92.5 -5.5q-55 0 -98.5 4.5t-78.5 15t-63 28t-52 42.5q-34 36 -53 86t-19 108zM219 272q0 -98 63.5 -145t194.5 -47q34 0 67 2.5t64 10 t59.5 22.5t55.5 41q55 52 55 188v126h-317q-121 0 -181.5 -50t-60.5 -148zM326 1465q0 28 26 44q12 8 28 9q16 0 29 -11q7 -5 14 -13.5t12 -17.5l110 -178q9 -14 14 -24.5t5 -21.5q0 -28 -26 -44q-12 -8 -27 -8q-16 0 -30 10q-7 5 -12.5 13t-13.5 19l-110 177q-18 29 -19 46 z" />
<glyph unicode="&#xe1;" horiz-adv-x="1073" d="M113 272q0 68 24 120.5t68.5 89t107.5 56t141 19.5h324v94q0 62 -14.5 110t-47 80t-83.5 49t-123 17q-45 0 -79.5 -6t-63 -18.5t-54 -32t-52.5 -45.5q-17 -17 -30 -22t-24 -5q-20 0 -33 13q-6 6 -10 13t-4 21q0 44 94 108q52 36 113 51t143 15q187 0 281 -82.5t94 -240.5 v-613q0 -20 -2.5 -30.5t-9.5 -20.5q-13 -20 -42 -20t-41 20q-6 9 -9 20t-3 31v35q-32 -32 -63.5 -52.5t-67.5 -33.5t-77.5 -18.5t-92.5 -5.5q-55 0 -98.5 4.5t-78.5 15t-63 28t-52 42.5q-34 36 -53 86t-19 108zM219 272q0 -98 63.5 -145t194.5 -47q34 0 67 2.5t64 10 t59.5 22.5t55.5 41q55 52 55 188v126h-317q-121 0 -181.5 -50t-60.5 -148zM457 1257q0 10 5 21t14 26l110 177q5 9 12 17.5t14 13.5q13 10 30 11q15 0 27 -9q26 -16 26 -44q0 -17 -18 -46l-111 -177q-7 -11 -12.5 -18.5t-13.5 -13.5q-13 -10 -29 -10q-15 0 -28 8 q-26 16 -26 44z" />
<glyph unicode="&#xe2;" horiz-adv-x="1073" d="M113 272q0 68 24 120.5t68.5 89t107.5 56t141 19.5h324v94q0 62 -14.5 110t-47 80t-83.5 49t-123 17q-45 0 -79.5 -6t-63 -18.5t-54 -32t-52.5 -45.5q-17 -17 -30 -22t-24 -5q-20 0 -33 13q-6 6 -10 13t-4 21q0 44 94 108q52 36 113 51t143 15q187 0 281 -82.5t94 -240.5 v-613q0 -20 -2.5 -30.5t-9.5 -20.5q-13 -20 -42 -20t-41 20q-6 9 -9 20t-3 31v35q-32 -32 -63.5 -52.5t-67.5 -33.5t-77.5 -18.5t-92.5 -5.5q-55 0 -98.5 4.5t-78.5 15t-63 28t-52 42.5q-34 36 -53 86t-19 108zM219 272q0 -98 63.5 -145t194.5 -47q34 0 67 2.5t64 10 t59.5 22.5t55.5 41q55 52 55 188v126h-317q-121 0 -181.5 -50t-60.5 -148zM246 1251q2 9 7.5 18.5t18.5 22.5l194 194q8 8 18.5 16t26.5 8q15 0 26 -8t19 -16l193 -194q13 -13 18.5 -22t7.5 -19q3 -23 -13 -39t-39 -13q-9 2 -18.5 7t-22.5 19l-171 171l-171 -171 q-13 -13 -22.5 -18.5t-18.5 -7.5q-23 -3 -39 13t-14 39z" />
<glyph unicode="&#xe3;" horiz-adv-x="1073" d="M113 272q0 68 24 120.5t68.5 89t107.5 56t141 19.5h324v94q0 62 -14.5 110t-47 80t-83.5 49t-123 17q-45 0 -79.5 -6t-63 -18.5t-54 -32t-52.5 -45.5q-17 -17 -30 -22t-24 -5q-20 0 -33 13q-6 6 -10 13t-4 21q0 44 94 108q52 36 113 51t143 15q187 0 281 -82.5t94 -240.5 v-613q0 -20 -2.5 -30.5t-9.5 -20.5q-13 -20 -42 -20t-41 20q-6 9 -9 20t-3 31v35q-32 -32 -63.5 -52.5t-67.5 -33.5t-77.5 -18.5t-92.5 -5.5q-55 0 -98.5 4.5t-78.5 15t-63 28t-52 42.5q-34 36 -53 86t-19 108zM204 1307q0 10 6.5 22t24.5 29q26 23 47 35.5t39.5 18.5 t33 7.5t28.5 1.5q23 0 40.5 -3.5t34 -9.5t32.5 -15t34 -20q30 -17 57 -30.5t58 -13.5q10 0 19 1t20 4.5t23 11.5t28 22q13 11 24.5 19t22.5 8q16 0 28 -12q5 -5 9 -12t4 -17t-6 -22.5t-25 -28.5q-26 -23 -46.5 -36t-39 -19t-33.5 -7.5t-28 -1.5q-23 0 -41 3.5t-34 9.5 t-32.5 15t-34.5 20q-30 17 -57 30.5t-57 13.5q-10 0 -19.5 -1t-20.5 -4.5t-23 -11.5t-27 -22q-13 -11 -24.5 -18.5t-23.5 -7.5q-8 0 -15 3t-12 8t-9.5 12t-4.5 18zM219 272q0 -98 63.5 -145t194.5 -47q34 0 67 2.5t64 10t59.5 22.5t55.5 41q55 52 55 188v126h-317 q-121 0 -181.5 -50t-60.5 -148z" />
<glyph unicode="&#xe4;" horiz-adv-x="1073" d="M113 272q0 68 24 120.5t68.5 89t107.5 56t141 19.5h324v94q0 62 -14.5 110t-47 80t-83.5 49t-123 17q-45 0 -79.5 -6t-63 -18.5t-54 -32t-52.5 -45.5q-17 -17 -30 -22t-24 -5q-20 0 -33 13q-6 6 -10 13t-4 21q0 44 94 108q52 36 113 51t143 15q187 0 281 -82.5t94 -240.5 v-613q0 -20 -2.5 -30.5t-9.5 -20.5q-13 -20 -42 -20t-41 20q-6 9 -9 20t-3 31v35q-32 -32 -63.5 -52.5t-67.5 -33.5t-77.5 -18.5t-92.5 -5.5q-55 0 -98.5 4.5t-78.5 15t-63 28t-52 42.5q-34 36 -53 86t-19 108zM219 272q0 -98 63.5 -145t194.5 -47q34 0 67 2.5t64 10 t59.5 22.5t55.5 41q55 52 55 188v126h-317q-121 0 -181.5 -50t-60.5 -148zM222 1305q0 32 22 53.5t54 21.5t53.5 -22t21.5 -53q0 -32 -21.5 -54t-53.5 -22t-54 22t-22 54zM648 1305q0 32 22 53.5t54 21.5t53.5 -22t21.5 -53q0 -32 -21.5 -54t-53.5 -22t-54 22t-22 54z" />
<glyph unicode="&#xe5;" horiz-adv-x="1073" d="M113 272q0 68 24 120.5t68.5 89t107.5 56t141 19.5h324v94q0 62 -14.5 110t-47 80t-83.5 49t-123 17q-45 0 -79.5 -6t-63 -18.5t-54 -32t-52.5 -45.5q-17 -17 -30 -22t-24 -5q-20 0 -33 13q-6 6 -10 13t-4 21q0 44 94 108q52 36 113 51t143 15q187 0 281 -82.5t94 -240.5 v-613q0 -20 -2.5 -30.5t-9.5 -20.5q-13 -20 -42 -20t-41 20q-6 9 -9 20t-3 31v35q-32 -32 -63.5 -52.5t-67.5 -33.5t-77.5 -18.5t-92.5 -5.5q-55 0 -98.5 4.5t-78.5 15t-63 28t-52 42.5q-34 36 -53 86t-19 108zM219 272q0 -98 63.5 -145t194.5 -47q34 0 67 2.5t64 10 t59.5 22.5t55.5 41q55 52 55 188v126h-317q-121 0 -181.5 -50t-60.5 -148zM277 1386q0 48 18.5 91t50.5 74.5t74.5 50t90.5 18.5t90.5 -18.5t74 -50t50 -74t18.5 -91.5q0 -48 -18.5 -90.5t-50 -74t-74 -50t-90.5 -18.5t-90.5 18.5t-74.5 50t-50.5 74t-18.5 90.5zM361 1386 q0 -31 12 -58.5t32 -47t47.5 -31.5t58.5 -12t58.5 12t47.5 31.5t31.5 47t11.5 58.5t-11.5 59t-31.5 47.5t-48 31.5t-58 12q-31 0 -58.5 -12t-47.5 -31.5t-32 -47.5t-12 -59z" />
<glyph unicode="&#xe6;" horiz-adv-x="1707" d="M113 272q0 68 24 120.5t68.5 89t107.5 56t141 19.5h324v94q0 62 -14.5 110t-47 80t-83.5 49t-123 17q-45 0 -79.5 -6t-63 -18.5t-54 -32t-52.5 -45.5q-17 -17 -30 -22t-24 -5q-20 0 -33 13q-6 6 -10 13t-4 21q0 44 94 108q52 36 113 51t143 15q134 0 220 -44t125 -128 q51 85 132 128.5t188 43.5q92 0 165 -32.5t124.5 -93.5t78.5 -147t27 -192q0 -10 -1.5 -24t-13.5 -26q-11 -11 -23.5 -12.5t-25.5 -1.5h-622q0 -188 82 -288t239 -100q62 0 120.5 18t107.5 60q22 19 33.5 27t25.5 8q18 0 32.5 -15t14.5 -33q0 -16 -11.5 -32.5t-28 -30 t-34.5 -25t-30 -18.5q-42 -24 -102 -38.5t-134 -14.5q-129 0 -216 45.5t-139 138.5q-31 -50 -66.5 -85t-79.5 -57t-98 -32t-123 -10q-55 0 -98.5 4.5t-78.5 15t-63 28t-52 42.5q-34 36 -53 86t-19 108zM219 272q0 -98 63.5 -145t194.5 -47q34 0 67 2.5t64 10t59.5 22.5 t55.5 41q55 52 55 188v126h-317q-121 0 -181.5 -50t-60.5 -148zM884 557h581q-2 31 -4 55t-5.5 44.5t-9.5 40.5t-15 43q-15 38 -41 69t-59.5 52.5t-72.5 32.5t-83 11q-88 0 -157 -44t-99 -121q-9 -24 -15.5 -43.5t-10 -40t-6 -44.5t-3.5 -55z" />
<glyph unicode="&#xe7;" horiz-adv-x="1006" d="M141 494q0 118 29.5 211.5t85 159t136 100t182.5 34.5q82 0 143.5 -23.5t115.5 -69.5q29 -25 40.5 -40.5t11.5 -35.5q0 -9 -4.5 -18t-12.5 -15q-14 -12 -32 -13q-14 0 -27.5 9.5t-37.5 29.5q-52 46 -96.5 64t-100.5 18q-83 0 -148.5 -32t-110.5 -97q-18 -27 -31 -56 t-21 -62.5t-11.5 -73.5t-3.5 -90t3.5 -91t11.5 -74.5t21 -62t31 -55.5q45 -65 111 -97t148 -32q55 0 100 18t97 64q24 20 37 29.5t28 9.5q18 0 32 -13q7 -6 12 -15t5 -18q0 -19 -11.5 -35t-40.5 -41q-53 -46 -115 -69.5t-144 -23.5q-102 0 -182.5 34.5t-136 100t-85 159.5 t-29.5 212zM381 -400q0 10 4.5 20.5t14.5 25.5l110 177q5 9 12 17.5t14 14.5q13 10 29 10q15 0 28 -8q26 -16 26 -44q0 -17 -19 -46l-110 -178q-7 -11 -13 -18.5t-13 -12.5q-13 -10 -30 -11q-15 0 -27 9q-26 16 -26 44z" />
<glyph unicode="&#xe8;" horiz-adv-x="1071" d="M141 494q0 122 28 216t79 158.5t124.5 97.5t166.5 33q92 0 165 -32.5t124.5 -93t78.5 -146.5t27 -192q0 -10 -1.5 -24t-12.5 -26q-11 -11 -24 -12.5t-26 -1.5h-622q0 -188 82 -288.5t239 -100.5q62 0 121 18t107 60q22 19 33.5 27t25.5 8q18 0 32.5 -15t14.5 -33 q0 -16 -11.5 -32.5t-28 -30t-34.5 -25t-30 -18.5q-42 -24 -102 -38.5t-134 -14.5q-206 0 -314 128.5t-108 377.5zM248 559h581q-2 31 -4 54.5t-5.5 44t-9.5 40t-15 42.5q-15 38 -41 69t-59 52.5t-72.5 32.5t-83.5 11q-88 0 -157 -44t-99 -121q-9 -24 -15.5 -43t-10 -39.5 t-6 -44t-3.5 -54.5zM355 1465q0 28 26 44q12 8 28 9q16 0 29 -11q7 -5 14 -13.5t12 -17.5l110 -178q9 -14 14 -24.5t5 -21.5q0 -28 -26 -44q-12 -8 -27 -8q-16 0 -30 10q-7 5 -12.5 13t-13.5 19l-110 177q-18 29 -19 46z" />
<glyph unicode="&#xe9;" horiz-adv-x="1071" d="M141 494q0 122 28 216t79 158.5t124.5 97.5t166.5 33q92 0 165 -32.5t124.5 -93t78.5 -146.5t27 -192q0 -10 -1.5 -24t-12.5 -26q-11 -11 -24 -12.5t-26 -1.5h-622q0 -188 82 -288.5t239 -100.5q62 0 121 18t107 60q22 19 33.5 27t25.5 8q18 0 32.5 -15t14.5 -33 q0 -16 -11.5 -32.5t-28 -30t-34.5 -25t-30 -18.5q-42 -24 -102 -38.5t-134 -14.5q-206 0 -314 128.5t-108 377.5zM248 559h581q-2 31 -4 54.5t-5.5 44t-9.5 40t-15 42.5q-15 38 -41 69t-59 52.5t-72.5 32.5t-83.5 11q-88 0 -157 -44t-99 -121q-9 -24 -15.5 -43t-10 -39.5 t-6 -44t-3.5 -54.5zM486 1257q0 10 5 21t14 26l110 177q5 9 12 17.5t14 13.5q13 10 30 11q15 0 27 -9q26 -16 26 -44q0 -17 -18 -46l-111 -177q-7 -11 -12.5 -18.5t-13.5 -13.5q-13 -10 -29 -10q-15 0 -28 8q-26 16 -26 44z" />
<glyph unicode="&#xea;" horiz-adv-x="1071" d="M141 494q0 122 28 216t79 158.5t124.5 97.5t166.5 33q92 0 165 -32.5t124.5 -93t78.5 -146.5t27 -192q0 -10 -1.5 -24t-12.5 -26q-11 -11 -24 -12.5t-26 -1.5h-622q0 -188 82 -288.5t239 -100.5q62 0 121 18t107 60q22 19 33.5 27t25.5 8q18 0 32.5 -15t14.5 -33 q0 -16 -11.5 -32.5t-28 -30t-34.5 -25t-30 -18.5q-42 -24 -102 -38.5t-134 -14.5q-206 0 -314 128.5t-108 377.5zM248 559h581q-2 31 -4 54.5t-5.5 44t-9.5 40t-15 42.5q-15 38 -41 69t-59 52.5t-72.5 32.5t-83.5 11q-88 0 -157 -44t-99 -121q-9 -24 -15.5 -43t-10 -39.5 t-6 -44t-3.5 -54.5zM275 1251q2 9 7.5 18.5t18.5 22.5l194 194q8 8 18.5 16t26.5 8q15 0 26 -8t19 -16l193 -194q13 -13 18.5 -22t7.5 -19q3 -23 -13 -39t-39 -13q-9 2 -18.5 7t-22.5 19l-171 171l-171 -171q-13 -13 -22.5 -18.5t-18.5 -7.5q-23 -3 -39 13t-14 39z" />
<glyph unicode="&#xeb;" horiz-adv-x="1071" d="M141 494q0 122 28 216t79 158.5t124.5 97.5t166.5 33q92 0 165 -32.5t124.5 -93t78.5 -146.5t27 -192q0 -10 -1.5 -24t-12.5 -26q-11 -11 -24 -12.5t-26 -1.5h-622q0 -188 82 -288.5t239 -100.5q62 0 121 18t107 60q22 19 33.5 27t25.5 8q18 0 32.5 -15t14.5 -33 q0 -16 -11.5 -32.5t-28 -30t-34.5 -25t-30 -18.5q-42 -24 -102 -38.5t-134 -14.5q-206 0 -314 128.5t-108 377.5zM248 559h581q-2 31 -4 54.5t-5.5 44t-9.5 40t-15 42.5q-15 38 -41 69t-59 52.5t-72.5 32.5t-83.5 11q-88 0 -157 -44t-99 -121q-9 -24 -15.5 -43t-10 -39.5 t-6 -44t-3.5 -54.5zM251 1305q0 32 22 53.5t54 21.5t53.5 -22t21.5 -53q0 -32 -21.5 -54t-53.5 -22t-54 22t-22 54zM677 1305q0 32 22 53.5t54 21.5t53.5 -22t21.5 -53q0 -32 -21.5 -54t-53.5 -22t-54 22t-22 54z" />
<glyph unicode="&#xec;" horiz-adv-x="503" d="M68 1466q0 28 26 44q12 8 28 9q16 0 29 -11q7 -5 14 -13.5t12 -17.5l110 -178q9 -14 14 -24.5t5 -21.5q0 -28 -26 -44q-12 -8 -27 -8q-16 0 -30 10q-7 5 -12.5 13t-13.5 19l-110 177q-18 29 -19 46zM199 63v861q0 20 2.5 31t8.5 20q13 20 42 20t42 -20q6 -9 8.5 -20 t2.5 -31v-861q0 -20 -2.5 -30.5t-8.5 -20.5q-13 -20 -42 -20t-42 20q-6 9 -8.5 20t-2.5 31z" />
<glyph unicode="&#xed;" horiz-adv-x="503" d="M199 63v861q0 20 2.5 31t8.5 20q13 20 42 20t42 -20q6 -9 8.5 -20t2.5 -31v-861q0 -20 -2.5 -30.5t-8.5 -20.5q-13 -20 -42 -20t-42 20q-6 9 -8.5 20t-2.5 31zM199 1257q0 10 5 21t14 26l110 177q5 9 12 17.5t14 13.5q13 10 30 11q15 0 27 -9q26 -16 26 -44 q0 -17 -18 -46l-111 -177q-7 -11 -12.5 -18.5t-13.5 -13.5q-13 -10 -29 -10q-15 0 -28 8q-26 16 -26 44z" />
<glyph unicode="&#xee;" horiz-adv-x="503" d="M-12 1251q2 9 7.5 18.5t18.5 22.5l194 194q8 8 18.5 16t26.5 8q15 0 26 -8t19 -16l193 -194q13 -13 18.5 -22t7.5 -19q3 -23 -13 -39t-39 -13q-9 2 -18.5 7t-22.5 19l-171 171l-171 -171q-13 -13 -22.5 -18.5t-18.5 -7.5q-23 -3 -39 13t-14 39zM199 63v861q0 20 2.5 31 t8.5 20q13 20 42 20t42 -20q6 -9 8.5 -20t2.5 -31v-861q0 -20 -2.5 -30.5t-8.5 -20.5q-13 -20 -42 -20t-42 20q-6 9 -8.5 20t-2.5 31z" />
<glyph unicode="&#xef;" horiz-adv-x="503" d="M-11 1305q0 32 22 53.5t54 21.5t53.5 -22t21.5 -53q0 -32 -21.5 -54t-53.5 -22t-54 22t-22 54zM199 63v861q0 20 2.5 31t8.5 20q13 20 42 20t42 -20q6 -9 8.5 -20t2.5 -31v-861q0 -20 -2.5 -30.5t-8.5 -20.5q-13 -20 -42 -20t-42 20q-6 9 -8.5 20t-2.5 31zM364 1305 q0 32 22 53.5t53 21.5q32 0 54 -22t22 -53q0 -32 -22 -54t-54 -22t-53.5 22t-21.5 54z" />
<glyph unicode="&#xf0;" horiz-adv-x="1077" d="M139 494q0 53 4.5 106.5t18.5 105.5t38.5 99t63.5 86q52 52 122 80t153 28q39 0 81 -8t72 -26l-105 211h-198q-30 0 -42 9q-15 11 -15 32q0 20 15 31q12 9 42 9h157l-59 118q-14 29 -14 45q0 20 14.5 33t31.5 13q13 0 25 -6q9 -5 15.5 -13.5t15.5 -27.5l81 -162h118 q30 0 42 -9q15 -11 15 -31t-15 -32q-12 -9 -42 -9h-77l154 -308q27 -53 43.5 -97.5t26.5 -87.5t13.5 -88.5t3.5 -100.5q0 -53 -4.5 -107t-18.5 -106t-38.5 -99t-63.5 -86q-52 -52 -121.5 -80t-152.5 -28t-153 28t-122 80q-39 39 -63.5 86t-38.5 99t-18.5 105.5t-4.5 107.5z M246 494q0 -43 2 -89t11 -89t26.5 -82t48.5 -70q40 -40 92 -62t113 -22q60 0 112 22t92 62q31 31 48.5 70t26.5 82t11 89t2 89t-2 88.5t-11 88.5t-26.5 82.5t-48.5 69.5q-40 40 -92 62t-112 22t-112.5 -22t-92.5 -62q-31 -31 -48.5 -70t-26.5 -82t-11 -88.5t-2 -88.5z" />
<glyph unicode="&#xf1;" horiz-adv-x="1148" d="M199 63v861q0 20 2.5 31t8.5 20q13 20 42 20t42 -20q6 -9 8.5 -20t2.5 -31v-54q111 129 291 129q167 0 264 -94q50 -48 76.5 -117t26.5 -157v-568q0 -20 -3 -30.5t-9 -20.5q-13 -20 -42 -20t-42 20q-6 9 -8.5 20t-2.5 31v547q0 143 -69 219t-203 76t-206.5 -76 t-72.5 -219v-547q0 -20 -2.5 -30.5t-8.5 -20.5q-13 -20 -42 -20t-42 20q-6 9 -8.5 20t-2.5 31zM282 1307q0 10 6.5 22t24.5 29q26 23 47 35.5t39.5 18.5t33 7.5t28.5 1.5q23 0 40.5 -3.5t34 -9.5t32.5 -15t34 -20q30 -17 57 -30.5t58 -13.5q10 0 19 1t20 4.5t23 11.5t28 22 q13 11 24.5 19t22.5 8q16 0 28 -12q5 -5 9 -12t4 -17t-6 -22.5t-25 -28.5q-26 -23 -46.5 -36t-39 -19t-33.5 -7.5t-28 -1.5q-23 0 -41 3.5t-34 9.5t-32.5 15t-34.5 20q-30 17 -57 30.5t-57 13.5q-10 0 -19.5 -1t-20.5 -4.5t-23 -11.5t-27 -22q-13 -11 -24.5 -18.5 t-23.5 -7.5q-8 0 -15 3t-12 8t-9.5 12t-4.5 18z" />
<glyph unicode="&#xf2;" horiz-adv-x="1081" d="M141 494q0 53 5 106t18 104.5t37.5 99t64.5 87.5q52 52 122 80t153 28t152.5 -28t121.5 -80q40 -40 64.5 -87.5t38 -99t18 -104.5t4.5 -106t-4.5 -106.5t-18 -105t-38 -99t-64.5 -87.5q-52 -52 -121.5 -80t-152.5 -28t-153 28t-122 80q-40 40 -64.5 87.5t-37.5 99 t-18 104.5t-5 107zM248 494q0 -44 3 -90.5t12.5 -89.5t27 -81.5t47.5 -67.5q42 -42 91.5 -62.5t111.5 -20.5q61 0 110.5 20.5t91.5 62.5q29 29 47 67.5t27.5 81.5t13 89.5t3.5 90.5t-3.5 90t-13 89t-27.5 81.5t-47 67.5q-42 42 -91.5 62.5t-110.5 20.5t-111 -20.5t-92 -62.5 q-30 -30 -47.5 -68t-27 -81t-12.5 -89t-3 -90zM356 1465q0 28 26 44q12 8 28 9q16 0 29 -11q7 -5 14 -13.5t12 -17.5l110 -178q9 -14 14 -24.5t5 -21.5q0 -28 -26 -44q-12 -8 -27 -8q-16 0 -30 10q-7 5 -12.5 13t-13.5 19l-110 177q-18 29 -19 46z" />
<glyph unicode="&#xf3;" horiz-adv-x="1081" d="M141 494q0 53 5 106t18 104.5t37.5 99t64.5 87.5q52 52 122 80t153 28t152.5 -28t121.5 -80q40 -40 64.5 -87.5t38 -99t18 -104.5t4.5 -106t-4.5 -106.5t-18 -105t-38 -99t-64.5 -87.5q-52 -52 -121.5 -80t-152.5 -28t-153 28t-122 80q-40 40 -64.5 87.5t-37.5 99 t-18 104.5t-5 107zM248 494q0 -44 3 -90.5t12.5 -89.5t27 -81.5t47.5 -67.5q42 -42 91.5 -62.5t111.5 -20.5q61 0 110.5 20.5t91.5 62.5q29 29 47 67.5t27.5 81.5t13 89.5t3.5 90.5t-3.5 90t-13 89t-27.5 81.5t-47 67.5q-42 42 -91.5 62.5t-110.5 20.5t-111 -20.5t-92 -62.5 q-30 -30 -47.5 -68t-27 -81t-12.5 -89t-3 -90zM487 1257q0 10 5 21t14 26l110 177q5 9 12 17.5t14 13.5q13 10 30 11q15 0 27 -9q26 -16 26 -44q0 -17 -18 -46l-111 -177q-7 -11 -12.5 -18.5t-13.5 -13.5q-13 -10 -29 -10q-15 0 -28 8q-26 16 -26 44z" />
<glyph unicode="&#xf4;" horiz-adv-x="1081" d="M141 494q0 53 5 106t18 104.5t37.5 99t64.5 87.5q52 52 122 80t153 28t152.5 -28t121.5 -80q40 -40 64.5 -87.5t38 -99t18 -104.5t4.5 -106t-4.5 -106.5t-18 -105t-38 -99t-64.5 -87.5q-52 -52 -121.5 -80t-152.5 -28t-153 28t-122 80q-40 40 -64.5 87.5t-37.5 99 t-18 104.5t-5 107zM248 494q0 -44 3 -90.5t12.5 -89.5t27 -81.5t47.5 -67.5q42 -42 91.5 -62.5t111.5 -20.5q61 0 110.5 20.5t91.5 62.5q29 29 47 67.5t27.5 81.5t13 89.5t3.5 90.5t-3.5 90t-13 89t-27.5 81.5t-47 67.5q-42 42 -91.5 62.5t-110.5 20.5t-111 -20.5t-92 -62.5 q-30 -30 -47.5 -68t-27 -81t-12.5 -89t-3 -90zM276 1251q2 9 7.5 18.5t18.5 22.5l194 194q8 8 18.5 16t26.5 8q15 0 26 -8t19 -16l193 -194q13 -13 18.5 -22t7.5 -19q3 -23 -13 -39t-39 -13q-9 2 -18.5 7t-22.5 19l-171 171l-171 -171q-13 -13 -22.5 -18.5t-18.5 -7.5 q-23 -3 -39 13t-14 39z" />
<glyph unicode="&#xf5;" horiz-adv-x="1081" d="M141 494q0 53 5 106t18 104.5t37.5 99t64.5 87.5q52 52 122 80t153 28t152.5 -28t121.5 -80q40 -40 64.5 -87.5t38 -99t18 -104.5t4.5 -106t-4.5 -106.5t-18 -105t-38 -99t-64.5 -87.5q-52 -52 -121.5 -80t-152.5 -28t-153 28t-122 80q-40 40 -64.5 87.5t-37.5 99 t-18 104.5t-5 107zM234 1307q0 10 6.5 22t24.5 29q26 23 47 35.5t39.5 18.5t33 7.5t28.5 1.5q23 0 40.5 -3.5t34 -9.5t32.5 -15t34 -20q30 -17 57 -30.5t58 -13.5q10 0 19 1t20 4.5t23 11.5t28 22q13 11 24.5 19t22.5 8q16 0 28 -12q5 -5 9 -12t4 -17t-6 -22.5t-25 -28.5 q-26 -23 -46.5 -36t-39 -19t-33.5 -7.5t-28 -1.5q-23 0 -41 3.5t-34 9.5t-32.5 15t-34.5 20q-30 17 -57 30.5t-57 13.5q-10 0 -19.5 -1t-20.5 -4.5t-23 -11.5t-27 -22q-13 -11 -24.5 -18.5t-23.5 -7.5q-8 0 -15 3t-12 8t-9.5 12t-4.5 18zM248 494q0 -44 3 -90.5t12.5 -89.5 t27 -81.5t47.5 -67.5q42 -42 91.5 -62.5t111.5 -20.5q61 0 110.5 20.5t91.5 62.5q29 29 47 67.5t27.5 81.5t13 89.5t3.5 90.5t-3.5 90t-13 89t-27.5 81.5t-47 67.5q-42 42 -91.5 62.5t-110.5 20.5t-111 -20.5t-92 -62.5q-30 -30 -47.5 -68t-27 -81t-12.5 -89t-3 -90z" />
<glyph unicode="&#xf6;" horiz-adv-x="1081" d="M141 494q0 53 5 106t18 104.5t37.5 99t64.5 87.5q52 52 122 80t153 28t152.5 -28t121.5 -80q40 -40 64.5 -87.5t38 -99t18 -104.5t4.5 -106t-4.5 -106.5t-18 -105t-38 -99t-64.5 -87.5q-52 -52 -121.5 -80t-152.5 -28t-153 28t-122 80q-40 40 -64.5 87.5t-37.5 99 t-18 104.5t-5 107zM248 494q0 -44 3 -90.5t12.5 -89.5t27 -81.5t47.5 -67.5q42 -42 91.5 -62.5t111.5 -20.5q61 0 110.5 20.5t91.5 62.5q29 29 47 67.5t27.5 81.5t13 89.5t3.5 90.5t-3.5 90t-13 89t-27.5 81.5t-47 67.5q-42 42 -91.5 62.5t-110.5 20.5t-111 -20.5t-92 -62.5 q-30 -30 -47.5 -68t-27 -81t-12.5 -89t-3 -90zM252 1305q0 32 22 53.5t54 21.5t53.5 -22t21.5 -53q0 -32 -21.5 -54t-53.5 -22t-54 22t-22 54zM678 1305q0 32 22 53.5t54 21.5t53.5 -22t21.5 -53q0 -32 -21.5 -54t-53.5 -22t-54 22t-22 54z" />
<glyph unicode="&#xf7;" d="M100 540q0 23 19 37q8 5 18 7.5t29 2.5h721q18 0 28.5 -2.5t18.5 -7.5q18 -14 18 -37q0 -24 -18 -37q-8 -5 -18.5 -7.5t-28.5 -2.5h-721q-18 0 -28.5 2.5t-18.5 7.5q-18 13 -19 37zM432 193q0 39 27.5 66.5t66.5 27.5t67 -28t28 -66q0 -39 -28 -67t-67 -28t-66.5 28 t-27.5 67zM432 887q0 39 27.5 66.5t66.5 27.5t67 -27.5t28 -66.5t-28 -66.5t-67 -27.5t-66.5 27.5t-27.5 66.5z" />
<glyph unicode="&#xf8;" horiz-adv-x="1081" d="M141 494q0 53 5 106.5t18.5 105.5t38 99t63.5 86q52 52 122 80t153 28q61 0 114.5 -15t99.5 -45l64 110q11 18 20.5 27t24.5 9q11 0 23 -6q8 -5 14 -13.5t6 -21.5q0 -8 -3 -15t-11 -21l-73 -122q38 -39 61 -85.5t36.5 -97.5t18 -104t4.5 -105q0 -53 -4.5 -107t-18.5 -106 t-38.5 -99t-63.5 -86q-52 -52 -121.5 -80t-152.5 -28q-62 0 -116 15t-100 45l-67 -111q-11 -18 -20.5 -27.5t-24.5 -9.5q-12 0 -23 6q-8 5 -14 13.5t-6 21.5q0 8 3 15t11 21l75 126q-37 39 -60 85t-35.5 97t-17.5 103.5t-5 105.5zM248 494q0 -39 1.5 -79.5t8 -79.5t19.5 -76 t35 -68l393 666q-36 24 -77 37t-87 13q-60 0 -112.5 -22t-92.5 -62q-31 -31 -48.5 -70t-26.5 -82t-11 -88.5t-2 -88.5zM373 132q36 -26 78.5 -39t89.5 -13q60 0 112.5 22t91.5 62q31 31 48.5 70t26.5 82t11.5 89t2.5 89q0 39 -2 79.5t-9 80t-20 77t-36 68.5z" />
<glyph unicode="&#xf9;" horiz-adv-x="1148" d="M186 356v568q0 20 2.5 31t9.5 20q13 20 42 20t42 -20q6 -9 8.5 -20t2.5 -31v-547q0 -143 69 -219t203 -76t206.5 76t72.5 219v547q0 20 2.5 31t8.5 20q13 20 42 20t42 -20q6 -9 8.5 -20t2.5 -31v-861q0 -20 -2.5 -30.5t-8.5 -20.5q-13 -20 -42 -20t-42 20q-6 9 -8.5 20 t-2.5 31v54q-111 -129 -291 -129q-167 0 -264 94q-50 48 -76.5 117t-26.5 157zM384 1465q0 28 26 44q12 8 28 9q16 0 29 -11q7 -5 14 -13.5t12 -17.5l110 -178q9 -14 14 -24.5t5 -21.5q0 -28 -26 -44q-12 -8 -27 -8q-16 0 -30 10q-7 5 -12.5 13t-13.5 19l-110 177 q-18 29 -19 46z" />
<glyph unicode="&#xfa;" horiz-adv-x="1148" d="M186 356v568q0 20 2.5 31t9.5 20q13 20 42 20t42 -20q6 -9 8.5 -20t2.5 -31v-547q0 -143 69 -219t203 -76t206.5 76t72.5 219v547q0 20 2.5 31t8.5 20q13 20 42 20t42 -20q6 -9 8.5 -20t2.5 -31v-861q0 -20 -2.5 -30.5t-8.5 -20.5q-13 -20 -42 -20t-42 20q-6 9 -8.5 20 t-2.5 31v54q-111 -129 -291 -129q-167 0 -264 94q-50 48 -76.5 117t-26.5 157zM515 1257q0 10 5 21t14 26l110 177q5 9 12 17.5t14 13.5q13 10 30 11q15 0 27 -9q26 -16 26 -44q0 -17 -18 -46l-111 -177q-7 -11 -12.5 -18.5t-13.5 -13.5q-13 -10 -29 -10q-15 0 -28 8 q-26 16 -26 44z" />
<glyph unicode="&#xfb;" horiz-adv-x="1148" d="M186 356v568q0 20 2.5 31t9.5 20q13 20 42 20t42 -20q6 -9 8.5 -20t2.5 -31v-547q0 -143 69 -219t203 -76t206.5 76t72.5 219v547q0 20 2.5 31t8.5 20q13 20 42 20t42 -20q6 -9 8.5 -20t2.5 -31v-861q0 -20 -2.5 -30.5t-8.5 -20.5q-13 -20 -42 -20t-42 20q-6 9 -8.5 20 t-2.5 31v54q-111 -129 -291 -129q-167 0 -264 94q-50 48 -76.5 117t-26.5 157zM304 1251q2 9 7.5 18.5t18.5 22.5l194 194q8 8 18.5 16t26.5 8q15 0 26 -8t19 -16l193 -194q13 -13 18.5 -22t7.5 -19q3 -23 -13 -39t-39 -13q-9 2 -18.5 7t-22.5 19l-171 171l-171 -171 q-13 -13 -22.5 -18.5t-18.5 -7.5q-23 -3 -39 13t-14 39z" />
<glyph unicode="&#xfc;" horiz-adv-x="1148" d="M186 356v568q0 20 2.5 31t9.5 20q13 20 42 20t42 -20q6 -9 8.5 -20t2.5 -31v-547q0 -143 69 -219t203 -76t206.5 76t72.5 219v547q0 20 2.5 31t8.5 20q13 20 42 20t42 -20q6 -9 8.5 -20t2.5 -31v-861q0 -20 -2.5 -30.5t-8.5 -20.5q-13 -20 -42 -20t-42 20q-6 9 -8.5 20 t-2.5 31v54q-111 -129 -291 -129q-167 0 -264 94q-50 48 -76.5 117t-26.5 157zM280 1305q0 32 22 53.5t54 21.5t53.5 -22t21.5 -53q0 -32 -21.5 -54t-53.5 -22t-54 22t-22 54zM706 1305q0 32 22 53.5t54 21.5t53.5 -22t21.5 -53q0 -32 -21.5 -54t-53.5 -22t-54 22t-22 54z " />
<glyph unicode="&#xfd;" horiz-adv-x="880" d="M64 939q-2 12 3 24q5 14 17.5 23t30.5 9q22 0 34.5 -13.5t20.5 -39.5l270 -812l271 812q8 26 20.5 39.5t34.5 13.5q17 0 30 -9t18 -23q4 -11 2.5 -23t-7.5 -31l-409 -1177q-11 -34 -27.5 -64t-39.5 -52q-38 -35 -81.5 -48.5t-92.5 -13.5q-20 0 -31 2.5t-18 7.5 q-9 6 -14 14t-5 23q0 11 4.5 20.5t14.5 16.5q6 5 15.5 7.5t27.5 2.5q61 0 100 28.5t64 104.5l73 219l-318 909q-6 18 -8 30zM388 1257q0 10 5 21t14 26l110 177q5 9 12 17.5t14 13.5q13 10 30 11q15 0 27 -9q26 -16 26 -44q0 -17 -18 -46l-111 -177q-7 -11 -12.5 -18.5 t-13.5 -13.5q-13 -10 -29 -10q-15 0 -28 8q-26 16 -26 44z" />
<glyph unicode="&#xfe;" horiz-adv-x="1110" d="M199 -408v1803q0 20 2.5 31t8.5 20q13 20 42 20t42 -20q6 -9 8.5 -20t2.5 -31v-535q32 43 66.5 70t71 42.5t75 21t80.5 5.5q77 0 140 -23.5t102 -62.5q38 -38 62.5 -86t39 -102.5t21 -113.5t6.5 -117t-6.5 -117.5t-21 -114t-39 -102.5t-62.5 -86q-39 -39 -102 -62.5 t-140 -23.5q-42 0 -80.5 5.5t-75 21t-71 42.5t-66.5 70v-535q0 -20 -2.5 -31t-8.5 -20q-13 -20 -42 -20t-42 20q-6 9 -8.5 20t-2.5 31zM305 494q0 -51 4 -101.5t15 -96.5t30 -85t50 -67.5t75.5 -45t104.5 -16.5q90 0 145 35.5t84.5 93.5t39 132t9.5 151t-9.5 150.5t-39 132 t-84.5 93.5t-145 35q-60 0 -104.5 -16.5t-75.5 -45t-50 -67.5t-30 -85t-15 -96t-4 -101z" />
<glyph unicode="&#xff;" horiz-adv-x="880" d="M64 939q-2 12 3 24q5 14 17.5 23t30.5 9q22 0 34.5 -13.5t20.5 -39.5l270 -812l271 812q8 26 20.5 39.5t34.5 13.5q17 0 30 -9t18 -23q4 -11 2.5 -23t-7.5 -31l-409 -1177q-11 -34 -27.5 -64t-39.5 -52q-38 -35 -81.5 -48.5t-92.5 -13.5q-20 0 -31 2.5t-18 7.5 q-9 6 -14 14t-5 23q0 11 4.5 20.5t14.5 16.5q6 5 15.5 7.5t27.5 2.5q61 0 100 28.5t64 104.5l73 219l-318 909q-6 18 -8 30zM153 1305q0 32 22 53.5t54 21.5t53.5 -22t21.5 -53q0 -32 -21.5 -54t-53.5 -22t-54 22t-22 54zM579 1305q0 32 22 53.5t54 21.5t53.5 -22t21.5 -53 q0 -32 -21.5 -54t-53.5 -22t-54 22t-22 54z" />
<glyph unicode="&#x152;" horiz-adv-x="2056" d="M168 729q0 88 1.5 158t6 125.5t14.5 99.5t25.5 81.5t40 70.5t57.5 67q65 65 155 102t200 37t210 -42t179 -135v100q0 12 2 25.5t13 24.5t24.5 13t25.5 2h757q22 0 32.5 -2.5t18.5 -7.5q19 -15 20 -39q0 -24 -20 -39q-8 -5 -18.5 -7.5t-32.5 -2.5h-712v-576h597 q22 0 32.5 -2.5t19.5 -7.5q19 -15 19 -39t-19 -39q-8 -5 -19 -7.5t-33 -2.5h-597v-588h712q22 0 32.5 -2.5t18.5 -7.5q19 -15 20 -39q0 -24 -20 -39q-8 -5 -18.5 -7.5t-32.5 -2.5h-757q-12 0 -25.5 2t-24.5 13t-13 24.5t-2 26.5v98q-80 -93 -178.5 -134.5t-210.5 -41.5 q-110 0 -200 37t-155 102q-34 34 -58 67t-39.5 70.5t-25.5 81.5t-14.5 99.5t-6 125t-1.5 158.5zM279 729q0 -116 3 -198t14 -143t33.5 -105.5t61.5 -83.5q57 -57 127 -85t150 -28t149.5 28t126.5 85q39 39 61.5 83.5t34 105.5t14.5 143t3 198q0 115 -3 198t-14.5 144 t-34 105.5t-61.5 83.5q-57 57 -126.5 84.5t-149.5 27.5t-149.5 -27.5t-127.5 -84.5q-39 -39 -61.5 -83.5t-33.5 -105.5t-14 -144t-3 -198z" />
<glyph unicode="&#x153;" horiz-adv-x="1763" d="M141 494q0 53 5 106t18 104.5t37.5 99t64.5 87.5q52 52 122 80t153 28q116 0 207 -54.5t141 -159.5q49 105 135.5 159.5t206.5 54.5q92 0 165 -32.5t124.5 -93t78.5 -146.5t27 -192q0 -10 -1.5 -24t-12.5 -26q-11 -11 -24 -12.5t-25 -1.5h-623q0 -188 82 -288.5 t240 -100.5q62 0 120.5 18t106.5 60q20 17 32 26t27 9q18 0 32.5 -15t14.5 -33q0 -16 -11.5 -32.5t-28 -30t-34.5 -25t-30 -18.5q-42 -24 -102 -38.5t-134 -14.5q-133 0 -225 53.5t-141 160.5q-49 -103 -141 -158.5t-207 -55.5q-83 0 -153 28t-122 80q-40 40 -64.5 87.5 t-37.5 99t-18 104.5t-5 107zM248 494q0 -44 3 -90.5t12.5 -89.5t27 -81.5t47.5 -67.5q42 -42 91.5 -62.5t111.5 -20.5q61 0 110.5 20.5t91.5 62.5q29 29 47 67.5t27.5 81.5t13 89.5t3.5 90.5t-3.5 90t-13 89t-27.5 81.5t-47 67.5q-42 42 -91.5 62.5t-110.5 20.5t-111 -20.5 t-92 -62.5q-30 -30 -47.5 -68t-27 -81t-12.5 -89t-3 -90zM940 559h582q-2 31 -4 54.5t-6 44t-10 40t-15 42.5q-15 38 -41 69t-59 52.5t-72.5 32.5t-83.5 11q-88 0 -156.5 -44t-99.5 -121q-9 -24 -15.5 -43t-10 -39.5t-6 -44t-3.5 -54.5z" />
<glyph unicode="&#x178;" horiz-adv-x="1011" d="M50 1423q2 11 9.5 21t19.5 16t24 6t22 -5q10 -6 17.5 -15t16.5 -28l347 -694l347 694q9 18 16.5 27.5t17.5 15.5q9 5 21 5t25 -6q12 -6 19 -15.5t10 -21.5q2 -11 -2 -22t-13 -30l-386 -772v-530q0 -24 -2.5 -34.5t-9.5 -22.5q-14 -20 -43 -20t-43 20q-7 11 -9.5 22 t-2.5 35v530l-386 772q-9 18 -13 29.5t-2 22.5zM218 1694q0 32 22 53.5t54 21.5t53.5 -22t21.5 -53q0 -32 -21.5 -54t-53.5 -22t-54 22t-22 54zM644 1694q0 32 22 53.5t54 21.5t53.5 -22t21.5 -53q0 -32 -21.5 -54t-53.5 -22t-54 22t-22 54z" />
<glyph unicode="&#x2c6;" horiz-adv-x="1024" d="M276 1251q2 9 7.5 18.5t18.5 22.5l194 194q8 8 18.5 16t26.5 8q15 0 26 -8t19 -16l193 -194q13 -13 18.5 -22t7.5 -19q3 -23 -13 -39t-39 -13q-9 2 -18.5 7t-22.5 19l-171 171l-171 -171q-13 -13 -22.5 -18.5t-18.5 -7.5q-23 -3 -39 13t-14 39z" />
<glyph unicode="&#x2dc;" horiz-adv-x="1024" d="M234 1307q0 10 6.5 22t24.5 29q26 23 47 35.5t39.5 18.5t33 7.5t28.5 1.5q23 0 40.5 -3.5t34 -9.5t32.5 -15t34 -20q30 -17 57 -30.5t58 -13.5q10 0 19 1t20 4.5t23 11.5t28 22q13 11 24.5 19t22.5 8q16 0 28 -12q5 -5 9 -12t4 -17t-6 -22.5t-25 -28.5q-26 -23 -46.5 -36 t-39 -19t-33.5 -7.5t-28 -1.5q-23 0 -41 3.5t-34 9.5t-32.5 15t-34.5 20q-30 17 -57 30.5t-57 13.5q-10 0 -19.5 -1t-20.5 -4.5t-23 -11.5t-27 -22q-13 -11 -24.5 -18.5t-23.5 -7.5q-8 0 -15 3t-12 8t-9.5 12t-4.5 18z" />
<glyph unicode="&#x2000;" horiz-adv-x="997" />
<glyph unicode="&#x2001;" horiz-adv-x="1995" />
<glyph unicode="&#x2002;" horiz-adv-x="997" />
<glyph unicode="&#x2003;" horiz-adv-x="1995" />
<glyph unicode="&#x2004;" horiz-adv-x="665" />
<glyph unicode="&#x2005;" horiz-adv-x="498" />
<glyph unicode="&#x2006;" horiz-adv-x="332" />
<glyph unicode="&#x2007;" horiz-adv-x="332" />
<glyph unicode="&#x2008;" horiz-adv-x="249" />
<glyph unicode="&#x2009;" horiz-adv-x="399" />
<glyph unicode="&#x200a;" horiz-adv-x="110" />
<glyph unicode="&#x2010;" horiz-adv-x="872" d="M160 540q0 23 18 37q8 5 18.5 7.5t28.5 2.5h422q18 0 28.5 -2.5t18.5 -7.5q18 -14 19 -37q0 -24 -19 -37q-8 -5 -18 -7.5t-29 -2.5h-422q-18 0 -28.5 2.5t-18.5 7.5q-18 13 -18 37z" />
<glyph unicode="&#x2011;" horiz-adv-x="872" d="M160 540q0 23 18 37q8 5 18.5 7.5t28.5 2.5h422q18 0 28.5 -2.5t18.5 -7.5q18 -14 19 -37q0 -24 -19 -37q-8 -5 -18 -7.5t-29 -2.5h-422q-18 0 -28.5 2.5t-18.5 7.5q-18 13 -18 37z" />
<glyph unicode="&#x2012;" horiz-adv-x="872" d="M160 540q0 23 18 37q8 5 18.5 7.5t28.5 2.5h422q18 0 28.5 -2.5t18.5 -7.5q18 -14 19 -37q0 -24 -19 -37q-8 -5 -18 -7.5t-29 -2.5h-422q-18 0 -28.5 2.5t-18.5 7.5q-18 13 -18 37z" />
<glyph unicode="&#x2013;" d="M100 540q0 23 19 37q8 5 18 7.5t29 2.5h721q18 0 28.5 -2.5t18.5 -7.5q18 -14 18 -37q0 -24 -18 -37q-8 -5 -18.5 -7.5t-28.5 -2.5h-721q-18 0 -28.5 2.5t-18.5 7.5q-18 13 -19 37z" />
<glyph unicode="&#x2014;" horiz-adv-x="1787" d="M100 541q0 23 19 37q8 5 18 7.5t29 2.5h1456q18 0 28.5 -2.5t18.5 -7.5q18 -14 19 -37q0 -24 -19 -37q-8 -5 -18.5 -7.5t-28.5 -2.5h-1456q-18 0 -28.5 2.5t-18.5 7.5q-18 13 -19 37z" />
<glyph unicode="&#x2018;" horiz-adv-x="475" d="M141.5 1162.5q1.5 11.5 8.5 29.5l74 224q6 18 11.5 27.5t13.5 16.5q13 10 32 10q18 0 32 -10t19 -25q3 -11 1.5 -22.5t-7.5 -30.5l-75 -224q-6 -18 -11.5 -27.5t-13.5 -16.5q-13 -10 -31 -10t-32.5 10t-19.5 26q-3 11 -1.5 22.5z" />
<glyph unicode="&#x2019;" horiz-adv-x="475" d="M141.5 1162.5q1.5 11.5 8.5 29.5l74 224q6 18 11.5 27.5t13.5 16.5q13 10 32 10q18 0 32 -10t19 -25q3 -11 1.5 -22.5t-7.5 -30.5l-75 -224q-6 -18 -11.5 -27.5t-13.5 -16.5q-13 -10 -31 -10t-32.5 10t-19.5 26q-3 11 -1.5 22.5z" />
<glyph unicode="&#x201a;" horiz-adv-x="475" d="M141.5 -172.5q1.5 11.5 8.5 30.5l74 224q6 18 11.5 27.5t13.5 16.5q13 10 32 10q18 0 32 -10t19 -26q3 -11 1.5 -22t-7.5 -30l-75 -224q-6 -18 -11.5 -27.5t-13.5 -16.5q-13 -10 -31 -10t-32.5 10t-19.5 25q-3 11 -1.5 22.5z" />
<glyph unicode="&#x201c;" horiz-adv-x="792" d="M141.5 1162.5q1.5 11.5 8.5 29.5l74 224q6 18 11.5 27.5t13.5 16.5q13 10 32 10q18 0 32 -10t19 -25q3 -11 1.5 -22.5t-7.5 -30.5l-75 -224q-6 -18 -11.5 -27.5t-13.5 -16.5q-13 -10 -31 -10t-32.5 10t-19.5 26q-3 11 -1.5 22.5zM459.5 1162.5q1.5 11.5 7.5 29.5l75 224 q6 18 11 27.5t13 16.5q13 10 32 10q18 0 32 -10t19 -25q3 -11 1.5 -22.5t-7.5 -30.5l-75 -224q-6 -18 -11 -27.5t-13 -16.5q-13 -10 -32 -10q-18 0 -32 10t-19 26q-3 11 -1.5 22.5z" />
<glyph unicode="&#x201d;" horiz-adv-x="792" d="M141.5 1162.5q1.5 11.5 8.5 29.5l74 224q6 18 11.5 27.5t13.5 16.5q13 10 32 10q18 0 32 -10t19 -25q3 -11 1.5 -22.5t-7.5 -30.5l-75 -224q-6 -18 -11.5 -27.5t-13.5 -16.5q-13 -10 -31 -10t-32.5 10t-19.5 26q-3 11 -1.5 22.5zM459.5 1162.5q1.5 11.5 7.5 29.5l75 224 q6 18 11 27.5t13 16.5q13 10 32 10q18 0 32 -10t19 -25q3 -11 1.5 -22.5t-7.5 -30.5l-75 -224q-6 -18 -11 -27.5t-13 -16.5q-13 -10 -32 -10q-18 0 -32 10t-19 26q-3 11 -1.5 22.5z" />
<glyph unicode="&#x201e;" horiz-adv-x="792" d="M141.5 -172.5q1.5 11.5 8.5 30.5l74 224q6 18 11.5 27.5t13.5 16.5q13 10 32 10q18 0 32 -10t19 -26q3 -11 1.5 -22t-7.5 -30l-75 -224q-6 -18 -11.5 -27.5t-13.5 -16.5q-13 -10 -31 -10t-32.5 10t-19.5 25q-3 11 -1.5 22.5zM459.5 -172.5q1.5 11.5 7.5 30.5l75 224 q6 18 11 27.5t13 16.5q13 10 32 10q18 0 32 -10t19 -26q3 -11 1.5 -22t-7.5 -30l-75 -224q-6 -18 -11 -27.5t-13 -16.5q-13 -10 -32 -10q-18 0 -32 10t-19 25q-3 11 -1.5 22.5z" />
<glyph unicode="&#x2022;" d="M194 540q0 69 26 129t71.5 105.5t106 71.5t128.5 26q69 0 129.5 -26t106 -71.5t71.5 -106t26 -128.5q0 -69 -26 -129.5t-71.5 -106t-106 -71.5t-129.5 -26t-129 26t-105.5 71.5t-71.5 106t-26 129.5z" />
<glyph unicode="&#x2026;" horiz-adv-x="1482" d="M176 88q0 19 7 36.5t20 30.5t30.5 20t36.5 7t37 -7t30.5 -20t20 -30t7.5 -37q0 -19 -7.5 -36.5t-20 -30.5t-30.5 -20t-37 -7t-36.5 7t-30.5 20t-20 30.5t-7 36.5zM647 88q0 19 7.5 36.5t20 30.5t30 20t36.5 7t37 -7t30.5 -20t20 -30t7.5 -37q0 -19 -7.5 -36.5t-20 -30.5 t-30.5 -20t-37 -7t-36.5 7t-30 20t-20 30.5t-7.5 36.5zM1118 88q0 19 7.5 36.5t20 30.5t30 20t36.5 7t37 -7t30.5 -20t20 -30t7.5 -37q0 -19 -7.5 -36.5t-20 -30.5t-30.5 -20t-37 -7t-36.5 7t-30 20t-20 30.5t-7.5 36.5z" />
<glyph unicode="&#x202f;" horiz-adv-x="399" />
<glyph unicode="&#x2039;" horiz-adv-x="696" d="M85 509l352 352q15 15 24.5 21t18.5 8q25 3 42 -14q16 -16 14 -41q-2 -9 -8 -18.5t-21 -24.5l-283 -283l283 -283q15 -15 21 -24t8 -19q3 -25 -14 -41q-17 -17 -42 -14q-9 2 -18 7.5t-25 21.5z" />
<glyph unicode="&#x203a;" horiz-adv-x="696" d="M161 184q2 9 7.5 18.5t20.5 24.5l283 283l-283 283q-15 15 -20.5 24t-7.5 19q-3 25 13 41q17 17 42 14q9 -2 18.5 -7.5t24.5 -21.5l352 -352l-352 -352q-15 -15 -24.5 -21t-18.5 -8q-25 -3 -42 14q-16 16 -13 41z" />
<glyph unicode="&#x205f;" horiz-adv-x="498" />
<glyph unicode="&#x20ac;" horiz-adv-x="1431" d="M141 588q0 20 16 32q12 9 42 9h82v213h-82q-30 0 -42 9q-15 11 -16 32q0 20 16 31q12 9 42 10h84q3 78 10.5 136t24 105t42.5 86.5t66 79.5q65 65 155 102t199 37q73 0 133.5 -14.5t109.5 -40t88 -60.5t70 -75q18 -25 33.5 -53t26 -54.5t17 -50t6.5 -40.5q0 -26 -15 -40 q-8 -8 -17 -11t-19 -3q-12 0 -20 3.5t-15 10.5q-8 8 -15 21.5t-12 31.5q-20 65 -54.5 116t-81.5 86.5t-106.5 55t-128.5 19.5q-80 0 -149.5 -27.5t-126.5 -84.5q-30 -30 -50 -62.5t-32.5 -72t-19 -89t-9.5 -112.5h451q30 0 42 -10q15 -11 15 -31t-15 -32q-12 -9 -42 -9h-453 v-213h453q30 0 42 -9q15 -11 15 -32q0 -20 -15 -32q-12 -9 -42 -9h-451q2 -67 8.5 -118.5t19 -92.5t32.5 -74t51 -63q57 -57 126.5 -85t149.5 -28q69 0 128.5 19.5t106.5 55.5t81 87t55 116q5 17 11.5 30.5t15.5 21.5q7 7 15 10.5t20 3.5q9 0 18.5 -3t17.5 -11 q14 -14 15 -40q0 -16 -6.5 -40t-17 -51t-26 -54.5t-33.5 -52.5q-31 -40 -70 -74.5t-88 -60.5t-109.5 -40.5t-133.5 -14.5q-110 0 -200 37t-154 102q-41 41 -67.5 81t-42.5 88t-23.5 108.5t-9.5 142.5h-84q-30 0 -42 9q-15 11 -16 32z" />
<glyph unicode="&#x2122;" horiz-adv-x="1656" d="M57 1417q0 20 16 32q12 9 42 9h491q30 0 42 -9q15 -11 16 -32q0 -20 -16 -32q-12 -9 -42 -9h-200v-738q0 -17 -2.5 -27.5t-7.5 -16.5q-14 -18 -36 -19q-23 0 -35 19q-5 6 -7.5 16.5t-2.5 27.5v738h-200q-30 0 -42 9q-15 11 -16 32zM817 638v736q0 32 3 46.5t11 23.5 q5 6 14.5 10t24.5 4q23 0 37 -14q7 -7 16 -21t21 -39l236 -479l235 479q12 25 21 39t16 21q14 14 37 14q15 0 24.5 -4t14.5 -10q8 -9 11 -23.5t3 -46.5v-736q0 -17 -2 -27.5t-7 -16.5q-14 -18 -36 -19q-23 0 -36 19q-5 6 -7 16.5t-2 27.5v617l-207 -409q-11 -23 -27 -35 t-38 -12q-23 0 -39 12t-27 35l-207 409v-617q0 -17 -2 -27.5t-7 -16.5q-14 -18 -36 -19q-23 0 -36 19q-5 6 -7 16.5t-2 27.5z" />
<glyph unicode="&#x25fc;" horiz-adv-x="993" d="M0 0v993h993v-993h-993z" />
<glyph unicode="&#xfb01;" horiz-adv-x="1121" d="M84 944q0 22 16 34q8 5 17.5 7t26.5 2h83v213q0 56 15.5 103.5t45 81.5t74.5 53.5t103 19.5h31q20 0 31.5 -2.5t19.5 -7.5q18 -14 18 -37q0 -24 -18 -37q-8 -5 -18.5 -7.5t-28.5 -2.5h-17q-77 0 -113 -43.5t-36 -120.5v-213h171q17 0 26.5 -2t17.5 -7q16 -12 16 -34 t-16 -34q-8 -5 -17.5 -7t-26.5 -2h-171v-838q0 -20 -2.5 -30.5t-8.5 -20.5q-13 -20 -42 -20t-42 20q-6 9 -9 20t-3 31v838h-83q-17 0 -26 2t-18 7q-16 12 -16 34zM793 1395q0 32 22 53.5t54 21.5t54 -22t22 -53q0 -32 -22 -54t-54 -22t-54 22t-22 54zM816 63v861 q0 20 2.5 31t8.5 20q13 20 42 20t42 -20q6 -9 8.5 -20t2.5 -31v-861q0 -20 -2.5 -30.5t-8.5 -20.5q-13 -20 -42 -20t-42 20q-6 9 -8.5 20t-2.5 31z" />
<glyph unicode="&#xfb02;" horiz-adv-x="1201" d="M84 944q0 22 16 34q8 5 17.5 7t26.5 2h83v213q0 56 15.5 103.5t45 81.5t74.5 53.5t103 19.5h31q20 0 31.5 -2.5t19.5 -7.5q18 -14 18 -37q0 -24 -18 -37q-8 -5 -18.5 -7.5t-28.5 -2.5h-17q-77 0 -113 -43.5t-36 -120.5v-213h171q17 0 26.5 -2t17.5 -7q16 -12 16 -34 t-16 -34q-8 -5 -17.5 -7t-26.5 -2h-171v-838q0 -20 -2.5 -30.5t-8.5 -20.5q-13 -20 -42 -20t-42 20q-6 9 -9 20t-3 31v838h-83q-17 0 -26 2t-18 7q-16 12 -16 34zM808 258v1137q0 20 2.5 31t8.5 20q13 20 42 20t42 -20q6 -9 8.5 -20t2.5 -31v-1137q0 -77 36.5 -120.5 t113.5 -43.5h16q18 0 28.5 -2.5t18.5 -7.5q18 -14 18 -37q0 -24 -18 -37q-8 -5 -19.5 -7.5t-31.5 -2.5h-31q-58 0 -102.5 19.5t-74.5 54t-45 81.5t-15 103z" />
</font>
</defs>
</svg>
